<svg xmlns="http://www.w3.org/2000/svg" viewBox="0 0 314 152"><defs><style>.cls-1{isolation:isolate;}.cls-2{fill:#43afe4;}.cls-3{fill:#d8d9da;}.cls-19,.cls-3{opacity:0.8;}.cls-11,.cls-13,.cls-18,.cls-29,.cls-3,.cls-31,.cls-32,.cls-7{mix-blend-mode:multiply;}.cls-19,.cls-4{fill:#fff;}.cls-5{fill:#c5d3cf;}.cls-6{fill:#ed193e;}.cls-7{fill:#dedfe0;}.cls-8{fill:#adafb2;}.cls-9{fill:#e3f2ed;}.cls-10,.cls-14{fill:#294468;}.cls-11{opacity:0.4;}.cls-12{fill:#931e30;}.cls-14,.cls-36,.cls-37{mix-blend-mode:screen;}.cls-15{fill:#1f3756;}.cls-16{fill:#bbbab2;}.cls-17{fill:#f6f3e6;}.cls-18{fill:#dddbd1;}.cls-20{fill:#f26d80;}.cls-21{fill:#5277a6;}.cls-22{fill:#00618f;}.cls-23{fill:#c72c5e;}.cls-24{fill:#ef4637;}.cls-25{fill:#549f45;}.cls-26{fill:#babbbb;}.cls-27{fill:#1b1d24;}.cls-28,.cls-37{fill:#3d424f;}.cls-29{fill:#666665;}.cls-30,.cls-31,.cls-36{fill:#e8e8e8;}.cls-32{fill:#b5b5b5;opacity:0.5;}.cls-33{fill:#b02c10;}.cls-34{fill:#05060a;}.cls-35{fill:#a4cee3;}</style></defs><g class="cls-1"><g id="Layer_1" data-name="Layer 1"><rect class="cls-2" width="314" height="152"/><rect class="cls-3" x="59.01" y="28.02" width="237.05" height="99.99"/><rect class="cls-4" x="54.97" y="23.98" width="237.05" height="99.99"/><path class="cls-3" d="M104,18.61l-11.84-4A5.68,5.68,0,0,0,87.4,9.49L68.13,6.39a5.67,5.67,0,0,0-6.5,4.7L57.77,35H41.38v8L11.61,48.42l13.12,73.11,19-3.41-5.93,17.53a5.67,5.67,0,0,0,3.55,7.19l18.49,6.26A5.67,5.67,0,0,0,67,145.55h0a5.67,5.67,0,0,0,5-4.73l3.08-19.15L80,107.29H91.22a4,4,0,0,0,.9-.1A2.31,2.31,0,0,0,94,104.87V65.8l13.54-40A5.68,5.68,0,0,0,104,18.61Z" transform="translate(0 0)"/><path class="cls-5" d="M64,143.71a5.67,5.67,0,0,1-7.19,3.55L38.27,141a5.69,5.69,0,0,1-3.56-7.2L75.25,14.07a5.69,5.69,0,0,1,7.2-3.56l18.48,6.26A5.68,5.68,0,0,1,104.49,24Z" transform="translate(0 0)"/><path class="cls-6" d="M84.54,11.22l-2.09-.71a5.69,5.69,0,0,0-7.2,3.56L34.71,133.81a5.69,5.69,0,0,0,3.56,7.2l2.09.7Z" transform="translate(0 0)"/><path class="cls-4" d="M93.63,35.89l.93,0h0a3.68,3.68,0,0,0-.32-.78l-3.79-1.28s0-.05,0-.07c-.08-.53-.18-1.09-.28-1.68l0-.15L90,31l0-.14c0-.28-.1-.57-.15-.86v-.07h0c-.21-1.12-.43-2.27-.64-3.37h1.27s0,0,0,0,0,0,0,0h0a.67.67,0,0,0,.06.12h0a.08.08,0,0,0,.08,0h0l0,0a.34.34,0,0,1,0-.1h0a0,0,0,0,0,0,0,0,0,0,0,0,0,0h1.22v0s0,0,0,0h0l.06.11h0a.13.13,0,0,0,.09,0h0a0,0,0,0,0,0,0,.33.33,0,0,0,0-.1h0s0,0,0,0h0l1,0h.27s0,0,0,0v0h0s0,.09.07.12h0a.09.09,0,0,0,.09,0h0v-.1h0a.06.06,0,0,0,0,0h1.23a0,0,0,0,0,0,0v0h0a.81.81,0,0,0,.06.13h0l.08,0h0l0,0a.31.31,0,0,0,0-.09h0a.11.11,0,0,1,0,0h0l1.25,0h0a.48.48,0,0,0-.06-.34l0,0h0l0,0,0,0-.08,0h0l-.32-.14h0l-.19-.09h0l-.06,0h0c-.92-.39-2.43-1-3.84-1.58,0-.13-.07-.29-.12-.45h0a2.87,2.87,0,0,0-.15-.37h-.17a2,2,0,0,0-.52.09h0l-.1,0H90.2l-.17.1a.22.22,0,0,1,0,.06l-1-.4-.11,0h0L88.43,23c-.05-.24-.1-.46-.14-.68h0c-.11-.5-.19-.93-.27-1.26,0,0,0-.07,0-.1s0-.11,0-.15a.44.44,0,0,1,0-.1,1,1,0,0,0,0-.12s0-.06,0-.08l0-.15c-.41-1.68-1.23-2.92-1.84-2.78s-.79,1.63-.39,3.31c0,0,0,.09,0,.15s0,.06,0,.09a.29.29,0,0,1,0,.09s0,.09,0,.13a.19.19,0,0,0,0,.08l.14.54c0,.08,0,.16.07.25a.11.11,0,0,0,0,.05c0,.17.1.36.15.56h0l.19.69-.36.41h0l-.77.88,0,0h-.36a1.51,1.51,0,0,0-.48.15l-.08,0h0l0,0h0a0,0,0,0,1,0,0,2.47,2.47,0,0,0,0,.39h0a3.41,3.41,0,0,0,.09.46l-1.51,1.74-.07.09-.19.22-.16.18a.27.27,0,0,1-.07.08l-.14.18-.06.06-.19.21v0l-.32.37h0l0,.06h0l-.15.17h0l-.23.29s0,0,0,0l-.07.08s0,0,0,0l0,.05h0l0,0a.41.41,0,0,0,.08.3l0,0,1.12-.56h0a.06.06,0,0,0,0,0h0a.63.63,0,0,1,0,.09h0a.09.09,0,0,0,.08,0h0l0,0a.62.62,0,0,0,0-.13h0v-.06l1.09-.54,0,0h0l0,.09h0a.11.11,0,0,0,.08,0h0s0,0,0,0a.66.66,0,0,0,0-.13h0v0l.74-.36.35-.18s0,0,0,.05h0l0,.08h0a.09.09,0,0,0,.08,0h0l0,0v-.13h0a.08.08,0,0,1,0,0L86,27.65h0l0,0h0a.63.63,0,0,1,0,.09h0a.08.08,0,0,0,.08,0h0l0,0a.56.56,0,0,0,0-.13h0v0a.43.43,0,0,1,0-.05L87.31,27c.31,1.1.64,2.26,1,3.37h0l0,.12c.08.25.15.5.22.75a.93.93,0,0,1,0,.13c.09.27.17.54.24.79a2.41,2.41,0,0,1,.08.25c.08.26.16.51.23.76l0,.08c.08.25.15.48.23.71,0,0,0,.05,0,.07l-.26.27a.08.08,0,0,0,0,0h0l-1.78,1.8-.06.06a1.85,1.85,0,0,1-.14.14l0,.06a2.88,2.88,0,0,0-.25.26l0,0-.09.09h0a.17.17,0,0,0-.06.06h0l0,0a2.2,2.2,0,0,0,0,.65h0a1.38,1.38,0,0,0,0,.19l.84-.39h0l2.61-1.18h0l0,.08a.61.61,0,0,1,0,.12c0,.09.07.18.1.26a.93.93,0,0,0,.24,0l.23-.08c0-.06,0-.11,0-.17h0a.28.28,0,0,1,0-.09h0a.25.25,0,0,1,0-.08v0h0a.49.49,0,0,1,0-.12l2.88-.12Z" transform="translate(0 0)"/><rect class="cls-4" x="65.29" y="22.43" width="20.96" height="1.43" transform="translate(29.52 87.48) rotate(-71.28)"/><rect class="cls-4" x="74.47" y="23.04" width="6.73" height="1.43" transform="matrix(0.32, -0.95, 0.95, 0.32, 30.3, 89.81)"/><rect class="cls-4" x="72.15" y="29.91" width="6.72" height="1.43" transform="translate(22.27 92.31) rotate(-71.28)"/><rect class="cls-4" x="76.74" y="16.34" width="6.73" height="1.43" transform="translate(38.17 87.4) rotate(-71.22)"/><rect class="cls-4" x="30.41" y="126.94" width="20.96" height="0.72" transform="translate(-92.8 125.2) rotate(-71.29)"/><rect class="cls-4" x="38.58" y="127.2" width="6.73" height="0.72" transform="translate(-92.32 125.79) rotate(-71.05)"/><rect class="cls-4" x="36.25" y="134.07" width="6.73" height="0.72" transform="matrix(0.32, -0.95, 0.95, 0.32, -100.43, 129.06)"/><rect class="cls-4" x="40.84" y="120.5" width="6.73" height="0.72" transform="translate(-84.45 123.9) rotate(-71.27)"/><polygon class="cls-4" points="44.82 116.8 44.14 116.58 50.86 96.72 51.54 96.95 44.82 116.8"/><polygon class="cls-4" points="48.15 110.32 47.47 110.09 49.63 103.72 50.3 103.94 48.15 110.32"/><rect class="cls-4" x="43.2" y="113.53" width="6.72" height="0.72" transform="translate(-76.24 121.57) rotate(-71.34)"/><rect class="cls-4" x="47.79" y="99.96" width="6.73" height="0.72" transform="translate(-60.26 116.71) rotate(-71.35)"/><path class="cls-7" d="M99.13,17.58l-3.11-1a5.32,5.32,0,0,1,3,6.87L59.44,140.33A5.3,5.3,0,0,1,52.88,144L56,145a5.3,5.3,0,0,0,6.56-3.62L102.14,24.45A5.32,5.32,0,0,0,99.13,17.58Z" transform="translate(0 0)"/><rect class="cls-8" x="32.57" y="120.72" width="40.87" height="1.39" transform="translate(-79.01 132.48) rotate(-71.21)"/><polygon class="cls-8" points="53.62 128.35 52.29 127.9 56.49 115.48 57.82 115.93 53.62 128.35"/><rect class="cls-8" x="43.96" y="134.62" width="13.11" height="1.4" transform="translate(-93.86 139.49) rotate(-71.18)"/><rect class="cls-8" x="52.92" y="108.16" width="13.12" height="1.4" transform="translate(-62.73 130.16) rotate(-71.24)"/><rect class="cls-8" x="46.13" y="80.68" width="40.87" height="1.4" transform="translate(-31.82 118.44) rotate(-71.36)"/><rect class="cls-8" x="62.05" y="81.18" width="13.11" height="1.4" transform="translate(-30.95 120.59) rotate(-71.29)"/><rect class="cls-8" x="57.51" y="94.58" width="13.11" height="1.4" transform="translate(-46.7 125.49) rotate(-71.34)"/><rect class="cls-8" x="66.47" y="68.12" width="13.12" height="1.4" transform="translate(-15.58 115.92) rotate(-71.3)"/><path class="cls-9" d="M69,139a5.68,5.68,0,0,1-6.51,4.7l-19.27-3.1a5.68,5.68,0,0,1-4.7-6.51L58.56,9.25a5.68,5.68,0,0,1,6.51-4.7l19.27,3.1A5.68,5.68,0,0,1,89,14.16Z" transform="translate(0 0)"/><path class="cls-6" d="M67.25,4.9l-2.18-.35a5.68,5.68,0,0,0-6.51,4.7L38.48,134.06a5.68,5.68,0,0,0,4.7,6.51l2.18.35Z" transform="translate(0 0)"/><path class="cls-4" d="M80.31,27.72l.91-.2h0a3.31,3.31,0,0,0-.44-.7c-.08,0-2.72-.44-4-.64l0-.07c-.16-.51-.35-1-.55-1.6a1.31,1.31,0,0,0,0-.15l-.3-.85a1.12,1.12,0,0,0,0-.13c-.09-.27-.19-.54-.3-.82,0,0,0,0,0-.07h0c-.39-1.07-.8-2.16-1.19-3.21l1.24-.22h0l0,0s0,0,0,0h0l.07.11h0a.08.08,0,0,0,.08,0h0s0,0,0,0a.36.36,0,0,0,0-.1h0l0,0v0L77,18.8h0v0l0,0h0a1,1,0,0,0,.08.11h0a.08.08,0,0,0,.07,0h0v0a.36.36,0,0,0,0-.1h0s0,0,0,0v0l.94-.17.26,0s0,0,0,0,0,0,0,0h0a1,1,0,0,0,.08.11h0s0,0,.08,0h0a0,0,0,0,1,0,0,.36.36,0,0,0,0-.1h0a.06.06,0,0,0,0,0l1.2-.21h0v0a0,0,0,0,1,0,0h0l.07.11h0a.08.08,0,0,0,.07,0h0s0,0,0,0a.36.36,0,0,0,0-.1h0a.43.43,0,0,1,0,0h0L81.19,18h0s0-.24-.12-.33h-.13l-.09,0h0l-.34-.09h0l-.21-.05h-.08v0c-1-.23-2.56-.6-4-.93a3.1,3.1,0,0,0-.2-.42h0a2.39,2.39,0,0,0-.21-.34h0s0,0,0,0h-.13A1.7,1.7,0,0,0,75,16h0l-.09,0h-.05a.93.93,0,0,0-.15.13.18.18,0,0,0,0,.05l-1-.22-.12,0h0L73,15.88c-.08-.23-.17-.45-.25-.66h0c-.18-.47-.34-.87-.47-1.19l0-.1-.06-.14,0-.1,0-.11,0-.08-.06-.14c-.67-1.59-1.69-2.68-2.27-2.43s-.51,1.73.16,3.33l.07.13,0,.09a.36.36,0,0,1,0,.09l.06.12,0,.08.23.51c0,.07.07.15.1.23l0,0c.07.17.15.34.24.53h0c.09.21.19.42.3.65l-.29.46h0l-.61,1,0-.05-.19,0h-.07s-.07,0-.09,0h0a1.34,1.34,0,0,0-.45.22l-.07.05h0l0,0,0,0h0a2.79,2.79,0,0,0,.1.39h0a3,3,0,0,0,.17.43c-.41.66-.82,1.34-1.2,2a.41.41,0,0,0,0,.09l-.16.25-.12.21a.41.41,0,0,0,0,.09,1.37,1.37,0,0,0-.13.2.43.43,0,0,0,0,.07l-.15.24h0c-.08.16-.17.3-.25.43h0l0,.06v0l-.12.19h0l-.19.32h0l-.05.09a0,0,0,0,1,0,0l0,.06h0a.08.08,0,0,0,0,0A.41.41,0,0,0,67,24l0,0,1-.73h0l0,0h0l.06.08h0a.11.11,0,0,0,.07,0h0a.31.31,0,0,0,0-.13h0a0,0,0,0,0,0,0s0,0,0-.05l1-.71,0,0h0l0,.08h0a.13.13,0,0,0,.08,0h0v0a.6.6,0,0,0,0-.12h0l0,0,.67-.49.32-.23,0,.05h0s0,.07.06.08h0a.08.08,0,0,0,.08,0h0v0a.59.59,0,0,0,0-.13h0a.06.06,0,0,1,0,0l1-.71h0s0,0,0,.05h0l.06.08h0a.07.07,0,0,0,.08,0h0v0a.21.21,0,0,0,0-.13h0v0a.43.43,0,0,1,0-.05l1-.73c.49,1,1,2.12,1.52,3.17h0a.47.47,0,0,1,.05.1l.35.71.06.13c.12.25.25.49.37.73,0,.08.07.16.11.23l.36.71,0,.08.34.66,0,.06-.22.31,0,.05h0L74.15,29l-.05.07-.12.16a.43.43,0,0,1,0,.07l-.21.3s0,0,0,0l-.07.11h0l0,.08h0a.08.08,0,0,0,0,0,2.38,2.38,0,0,0,.13.63h0a1.56,1.56,0,0,1,.06.18l.77-.52h0l2.37-1.59,0,0s0,.05,0,.08l.07.11.15.23.23-.06.2-.12,0-.16h0s0-.06,0-.09h0a.24.24,0,0,1,0-.08v0h0l0-.11,2.82-.6Z" transform="translate(0 0)"/><rect class="cls-4" x="50.1" y="17.41" width="20.96" height="1.43" transform="translate(33.11 75.08) rotate(-80.91)"/><rect class="cls-4" x="59.36" y="17.66" width="6.73" height="1.43" transform="translate(34.56 77.35) rotate(-80.8)"/><rect class="cls-4" x="58.21" y="24.82" width="6.73" height="1.43" transform="translate(26.61 82.29) rotate(-80.9)"/><polygon class="cls-4" points="64.02 14.83 62.6 14.6 63.67 7.96 65.09 8.19 64.02 14.83"/><polygon class="cls-4" points="42.18 137.02 41.47 136.91 44.8 116.21 45.51 116.33 42.18 137.02"/><polygon class="cls-4" points="44.38 130.07 43.68 129.96 44.75 123.32 45.45 123.43 44.38 130.07"/><polygon class="cls-4" points="43.23 137.24 42.53 137.12 43.59 130.48 44.3 130.6 43.23 137.24"/><polygon class="cls-4" points="45.51 123.09 44.8 122.98 45.87 116.34 46.58 116.45 45.51 123.09"/><polygon class="cls-4" points="45.62 115.62 44.91 115.5 48.24 94.81 48.95 94.92 45.62 115.62"/><rect class="cls-4" x="44.65" y="104.93" width="6.73" height="0.71" transform="translate(-63.56 135.99) rotate(-80.87)"/><rect class="cls-4" x="43.49" y="112.1" width="6.73" height="0.72" transform="translate(-71.63 140.78) rotate(-80.83)"/><rect class="cls-4" x="45.77" y="97.95" width="6.73" height="0.72" transform="translate(-55.85 130.85) rotate(-80.67)"/><path class="cls-7" d="M82.7,8.75l-3.24-.52a5.31,5.31,0,0,1,4.1,6.27L64,136.39a5.32,5.32,0,0,1-5.87,4.67l3.24.52a5.32,5.32,0,0,0,5.87-4.67L86.8,15A5.31,5.31,0,0,0,82.7,8.75Z" transform="translate(0 0)"/><polygon class="cls-8" points="51.9 139.09 50.53 138.87 57.02 98.51 58.4 98.74 51.9 139.09"/><rect class="cls-8" x="50.01" y="118.26" width="13.11" height="1.4" transform="translate(-69.9 155.77) rotate(-80.8)"/><rect class="cls-8" x="47.76" y="132.22" width="13.12" height="1.4" transform="translate(-85.57 165.35) rotate(-80.83)"/><rect class="cls-8" x="52.2" y="104.65" width="13.12" height="1.4" transform="translate(-54.64 146.5) rotate(-80.8)"/><polygon class="cls-8" points="58.62 97.36 57.24 97.13 63.74 56.79 65.11 57.01 58.62 97.36"/><rect class="cls-8" x="56.72" y="76.52" width="13.11" height="1.4" transform="translate(-23 127.46) rotate(-80.88)"/><polygon class="cls-8" points="60.68 97.78 59.3 97.55 61.38 84.61 62.76 84.83 60.68 97.78"/><rect class="cls-8" x="58.91" y="62.92" width="13.11" height="1.4" transform="translate(-7.76 118.12) rotate(-80.84)"/><path class="cls-10" d="M89.06,105.35A2.32,2.32,0,0,0,91,103V36a2.63,2.63,0,0,0-1.78-2.6,5.7,5.7,0,0,0-1.12-.18H38.32v72.26H88.16A4.57,4.57,0,0,0,89.06,105.35Z" transform="translate(0 0)"/><g class="cls-11"><path class="cls-10" d="M43.07,100.5V37.67c.23-3.91,9.48-4.43,9.48-4.43l0,0H38.32v72.26H51.78a10.38,10.38,0,0,0-1.35-.11C43.18,105.25,43.07,100.5,43.07,100.5Z" transform="translate(0 0)"/></g><path class="cls-4" d="M49.65,58.73v2.19h-.38V55.64h1.48c1.06,0,1.63.47,1.63,1.54s-.57,1.55-1.63,1.55Zm0-2.75v2.41h1.1c.83,0,1.25-.3,1.25-1.21S51.58,56,50.75,56Z" transform="translate(0 0)"/><path class="cls-4" d="M55.93,59.38H53.6L53,60.92h-.4l1.94-5.28H55l1.94,5.28H56.5ZM53.72,59H55.8l-1-2.85Z" transform="translate(0 0)"/><path class="cls-4" d="M59.33,61a3.12,3.12,0,0,1-1.72-.51l.15-.33a2.64,2.64,0,0,0,1.56.5c.79,0,1.37-.28,1.37-1.11,0-1.75-2.93-.51-2.93-2.7,0-.88.71-1.29,1.6-1.29A3.22,3.22,0,0,1,61,56l-.14.32a3,3,0,0,0-1.47-.4c-.68,0-1.22.31-1.22,1,0,1.78,2.93.54,2.93,2.7C61.07,60.64,60.29,61,59.33,61Z" transform="translate(0 0)"/><path class="cls-4" d="M63.7,61A3.12,3.12,0,0,1,62,60.49l.15-.33a2.64,2.64,0,0,0,1.56.5c.79,0,1.38-.28,1.38-1.11,0-1.75-2.94-.51-2.94-2.7,0-.88.72-1.29,1.6-1.29a3.19,3.19,0,0,1,1.61.42l-.14.32a3,3,0,0,0-1.47-.4c-.68,0-1.22.31-1.22,1,0,1.78,2.93.54,2.93,2.7C65.44,60.64,64.66,61,63.7,61Z" transform="translate(0 0)"/><path class="cls-4" d="M67,58.73v2.19h-.38V55.64h1.48c1.07,0,1.63.47,1.63,1.54s-.56,1.55-1.63,1.55ZM67,56v2.41h1.1c.83,0,1.25-.3,1.25-1.21S69,56,68.13,56Z" transform="translate(0 0)"/><path class="cls-4" d="M70.71,58.28c0-2.07.83-2.72,2.1-2.72s2.09.65,2.09,2.72S74.07,61,72.81,61,70.71,60.35,70.71,58.28Zm3.82,0c0-1.87-.69-2.38-1.72-2.38s-1.73.51-1.73,2.38.69,2.38,1.73,2.38S74.53,60.15,74.53,58.28Z" transform="translate(0 0)"/><path class="cls-4" d="M77.93,58.52l1.41,2.4H78.9l-1.4-2.38h-1v2.38h-.38V55.64h1.56c1,0,1.56.5,1.56,1.45A1.29,1.29,0,0,1,77.93,58.52ZM76.45,56V58.2h1.18c.79,0,1.18-.34,1.18-1.11S78.42,56,77.63,56Z" transform="translate(0 0)"/><path class="cls-4" d="M81.68,56v4.94H81.3V56H79.79v-.34h3.4V56Z" transform="translate(0 0)"/><path class="cls-12" d="M73,110.37a2.37,2.37,0,0,0,1.49-2.69L62.3,39.84A2.69,2.69,0,0,0,60,37.54a5.66,5.66,0,0,0-1.16,0l-50.32,9,13.11,73.1,50.43-9A4,4,0,0,0,73,110.37Z" transform="translate(0 0)"/><g class="cls-13"><path class="cls-12" d="M25.58,113.82,14.17,50.24C13.69,46.25,23,44,23,44l0,0L8.55,46.59l13.11,73.1,13.63-2.44a10.58,10.58,0,0,0-1.39.13C26.55,118.59,25.58,113.82,25.58,113.82Z" transform="translate(0 0)"/></g><path class="cls-4" d="M24.64,70.36l.4,2.22-.38.06-1-5.34L25.2,67a1.43,1.43,0,0,1,1.93,1.27c.2,1.09-.29,1.67-1.37,1.86Zm-.5-2.79L24.58,70l1.12-.2c.84-.15,1.21-.54,1.05-1.45s-.65-1.15-1.49-1Z" transform="translate(0 0)"/><path class="cls-4" d="M31.12,69.87l-2.36.42L28.47,72l-.4.07,1-5.7.38-.07,2.92,5-.4.08Zm-2.3.06,2.1-.38-1.56-2.69Z" transform="translate(0 0)"/><path class="cls-4" d="M34.85,70.9A3.33,3.33,0,0,1,33,70.7l.1-.37a2.67,2.67,0,0,0,1.66.22c.8-.14,1.34-.53,1.19-1.37-.32-1.77-3.06,0-3.46-2.2-.16-.89.49-1.43,1.38-1.59a3.37,3.37,0,0,1,1.71.13l-.08.35A3.08,3.08,0,0,0,34,65.73c-.69.13-1.18.54-1.06,1.19.32,1.8,3.06,0,3.45,2.19C36.55,70.22,35.82,70.72,34.85,70.9Z" transform="translate(0 0)"/><path class="cls-4" d="M39.27,70.1a3.24,3.24,0,0,1-1.83-.2l.1-.36a2.74,2.74,0,0,0,1.66.22c.81-.14,1.34-.53,1.19-1.37-.32-1.78-3.06,0-3.45-2.2-.16-.89.48-1.44,1.38-1.59a3.33,3.33,0,0,1,1.7.12l-.08.36a3.06,3.06,0,0,0-1.56-.14c-.69.12-1.18.53-1.06,1.18.32,1.8,3.06,0,3.46,2.2C41,69.43,40.24,69.93,39.27,70.1Z" transform="translate(0 0)"/><path class="cls-4" d="M42.23,67.21l.4,2.21-.38.07-1-5.35,1.49-.27A1.59,1.59,0,1,1,43.35,67Zm-.5-2.79.44,2.44,1.11-.2c.85-.15,1.22-.53,1-1.45s-.64-1.15-1.48-1Z" transform="translate(0 0)"/><path class="cls-4" d="M45.87,66.08c-.38-2.09.35-2.9,1.63-3.13s2.24.27,2.62,2.37-.36,2.9-1.63,3.13S46.24,68.17,45.87,66.08Zm3.87-.7c-.35-1.89-1.13-2.28-2.18-2.09s-1.65.83-1.31,2.72,1.13,2.28,2.18,2.1S50.08,67.28,49.74,65.38Z" transform="translate(0 0)"/><path class="cls-4" d="M53.22,65l1.86,2.18-.44.08-1.85-2.16-1.06.19.43,2.41-.38.07-1-5.35,1.57-.28a1.38,1.38,0,0,1,1.84,1.18A1.33,1.33,0,0,1,53.22,65Zm-2-2.3L51.67,65l1.19-.21c.8-.15,1.13-.55,1-1.34s-.59-1-1.39-.91Z" transform="translate(0 0)"/><path class="cls-4" d="M56.55,61.76l.9,5-.38.07-.9-5-1.53.27-.06-.34L58,61.14l.06.34Z" transform="translate(0 0)"/><path class="cls-14" d="M50.81,39.24,58,37.94s3.13-.66,3.92,1.76l2.54,15L61.77,40.61S60.62,38,58.2,38.2C56.24,38.33,50.81,39.24,50.81,39.24Z" transform="translate(0 0)"/><path class="cls-3" d="M179.89,109.45,161.36,44.9c-.42-1.44-.65-2.35-1.33-2.63-.33-.63-.69-1-1.09-1a1.83,1.83,0,0,0-2.48-1L106.8,54.53A2,2,0,0,0,105.27,56l-.72.21a4.2,4.2,0,0,0-3.22-.09l-2.18.62h0l-2,.59L54.45,69.58a4.7,4.7,0,0,0-2.77,1.75A3.91,3.91,0,0,0,50.37,74a4.2,4.2,0,0,0-.16,2.71c.6,2.08,16.49,57.42,17.91,62.34s3,4.68,5.34,4l44.84-12.88c4.17-1.19,5.22-1.26,6.12-.94a2.28,2.28,0,0,0,2.39-.61,9.2,9.2,0,0,1,3.31-1.39L167.2,116.6,178,113.5C179.41,113.09,180.61,111.93,179.89,109.45Z" transform="translate(0 0)"/><path class="cls-15" d="M54.8,74.19a4.05,4.05,0,0,0-.64,3.46C54.72,79.6,69.64,131.58,71,136.2s2.8,4.39,5,3.75l42.12-12.09c3.91-1.12,4.9-1.19,5.75-.88a2.17,2.17,0,0,0,2.24-.58,8.86,8.86,0,0,1,3.11-1.31l34.83-10,10.13-2.91c1.33-.38,2.45-1.47,1.79-3.8s-16.84-58.63-17.42-60.63-.75-2.94-2.5-2.44Z" transform="translate(0 0)"/><path class="cls-16" d="M56.66,71.82a3.89,3.89,0,0,0-2.18,4.72c1,3.38,16.1,56.09,17.05,59.37.83,2.91,1.37,4.58,3.75,3.89l42.15-12.1c3-.87,5.31-1.63,6.45-1.19s1.41.15,2.13-.52,4.9-1.61,8.27-2.57l35.91-10.32c4.09-1.17,6.28-1.58,5.27-5.1S161.14,58.14,160,54.18s-1.52-5.3-2.12-7.39-1.26-2.71-2.16-2.45S56.66,71.82,56.66,71.82Z" transform="translate(0 0)"/><path class="cls-16" d="M57,71.71a3.88,3.88,0,0,0-2.17,4.7l17,59.19c.83,2.89,1.36,4.56,3.73,3.87l41.84-12c3-.87,5.26-1.62,6.39-1.18s1.4.15,2.12-.51,4.87-1.6,8.21-2.56L169.8,113c4-1.17,6.22-1.58,5.22-5.08s-14.28-49.7-15.41-53.65S158.1,49,157.5,46.89s-1.26-2.7-2.15-2.45S57,71.71,57,71.71Z" transform="translate(0 0)"/><path class="cls-17" d="M98.21,59.41l4-1.13c1.86-.54,3.34-.21,3.64.84L125,126a4.4,4.4,0,0,0-3.15,0L85.52,136.44l-9.92,2.85c-.85.25-2.07,0-2.69-2.16s-10.36-36-11.84-41.21-4.31-15-5.17-18c0,0-.12-.39-.59-2s-.68-3.93,2.82-4.93Z" transform="translate(0 0)"/><path class="cls-17" d="M105.81,59.12a2,2,0,0,1,1.49-2.33L154,43.4a1.77,1.77,0,0,1,2.5,1.38c.45,1.58,8.79,30.6,9.9,34.49l8.21,28.59c.73,2.54-.3,3.56-2.77,4.27l-45.09,13c-.52.15-1.75.51-1.6,1Z" transform="translate(0 0)"/><g class="cls-13"><path class="cls-17" d="M102.17,58.28l-2,.59c1.55.55,4.18,1.47,4.92,4.06,2.19,7.62,12.19,42.44,14.76,51.4,2,6.83,1.7,10.5-2.43,13l4.5-1.29a4.4,4.4,0,0,1,3.15,0L105.81,59.12C105.51,58.07,104,57.74,102.17,58.28Z" transform="translate(0 0)"/></g><g class="cls-13"><path class="cls-17" d="M125.21,119.21c-.87-3-14.94-52-16.52-57.53a5.25,5.25,0,0,1,1.75-5.79l-3.14.9a2,2,0,0,0-1.49,2.33l19.29,67c-.15-.54,1.08-.9,1.6-1l4.38-1.26C128.14,123.92,125.85,121.43,125.21,119.21Z" transform="translate(0 0)"/></g><path class="cls-18" d="M105.38,58.76l19.42,66.8S107.56,61.87,105.38,58.76Z" transform="translate(0 0)"/><path class="cls-19" d="M55.34,73a.48.48,0,0,0,0,.08l0,.11,0,.14a3,3,0,0,0-.08.41c0,.17,0,.36,0,.57s0,.45.06.7.08.53.15.82.16.59.24.91.19.66.3,1c.41,1.41.9,3,1.42,4.81s1,3.64,1.6,5.52,1.07,3.76,1.57,5.52S61.4,97,61.8,98.38s.71,2.59.93,3.42.35,1.29.35,1.29l-.39-1.28c-.25-.82-.6-2-1-3.4s-.9-3-1.42-4.8-1-3.64-1.6-5.52-1.07-3.76-1.57-5.52-.95-3.42-1.35-4.83c-.09-.35-.19-.69-.28-1s-.15-.64-.22-.93-.08-.57-.12-.83,0-.5,0-.71a4.78,4.78,0,0,1,0-.57,2.57,2.57,0,0,1,.09-.41,1.31,1.31,0,0,1,0-.15.69.69,0,0,0,0-.1Z" transform="translate(0 0)"/><path class="cls-19" d="M156.47,45s.14.44.37,1.21.57,1.87,1,3.19L159.14,54l1.5,5.19c.51,1.77,1,3.54,1.48,5.19s.9,3.21,1.27,4.55.66,2.43.88,3.21.32,1.22.32,1.22-.13-.44-.37-1.21l-1-3.19c-.39-1.32-.84-2.87-1.33-4.52s-1-3.42-1.51-5.19-1-3.54-1.48-5.2l-1.26-4.54c-.37-1.33-.67-2.44-.88-3.21Z" transform="translate(0 0)"/><path class="cls-4" d="M161.58,64.31l-5.06-17.57a3.18,3.18,0,0,0-3.83-2.58L136.5,48.82l16.15-4.23a3.28,3.28,0,0,1,3.48,2.26Z" transform="translate(0 0)"/><path class="cls-4" d="M60.88,93.54,55.82,76a3.19,3.19,0,0,1,1.88-4.22l16.19-4.65L58,72.08a3.3,3.3,0,0,0-1.75,3.77Z" transform="translate(0 0)"/><path class="cls-20" d="M155.64,78.77,141.86,87.3a3.56,3.56,0,0,0-1.11,4.9l5.39,8.7a3.56,3.56,0,0,0,4.88,1.19l13.78-8.53a3.56,3.56,0,0,0,1.11-4.9L160.52,80A3.56,3.56,0,0,0,155.64,78.77Zm9.26,10a3.26,3.26,0,0,1-1.06,4.48l-12.71,7.87a3.25,3.25,0,0,1-4.47-1l-4.9-7.91a3.25,3.25,0,0,1,1.06-4.47l12.71-7.87a3.25,3.25,0,0,1,4.47,1Z" transform="translate(0 0)"/><path class="cls-20" d="M151.7,93.81a2.59,2.59,0,0,0-.51.27l-.66.41,1.54,2.5.41-.26-.58-.94.27-.17a1.5,1.5,0,0,0,.48-.4.69.69,0,0,0,.1-.42,1.12,1.12,0,0,0-.18-.51,1,1,0,0,0-.42-.41A.67.67,0,0,0,151.7,93.81ZM152,94.9s-.06.07-.25.19l-.09,0-.27-.43.07,0a1.09,1.09,0,0,1,.3-.16.12.12,0,0,1,.1,0,.25.25,0,0,1,.12.11.37.37,0,0,1,.05.16A.17.17,0,0,1,152,94.9Z" transform="translate(0 0)"/><polygon class="cls-20" points="149.27 86.89 148.55 87.33 151.26 91.7 151.98 91.25 149.27 86.89"/><path class="cls-20" d="M154.78,94.07a1.21,1.21,0,0,0-.35-.07.73.73,0,0,0,.26-.47.87.87,0,0,0-.15-.56.92.92,0,0,0-.34-.34.6.6,0,0,0-.38-.09,1.4,1.4,0,0,0-.52.23l-.87.54L154,95.8l.41-.25-.64-1,.08-.05a.58.58,0,0,1,.23-.11.42.42,0,0,1,.18,0,4.84,4.84,0,0,1,.45.23l.64.36.49-.3-.55-.34A3.55,3.55,0,0,0,154.78,94.07Zm-.75-.5a1.74,1.74,0,0,1-.31.21l-.17.1-.22-.35.19-.12.29-.17h.09a.24.24,0,0,1,.1.1.39.39,0,0,1,.05.14A.13.13,0,0,1,154,93.57Z" transform="translate(0 0)"/><path class="cls-20" d="M149.79,95a2,2,0,0,0-.51.26l-.66.41,1.55,2.5.4-.26L150,97l.27-.17a1.7,1.7,0,0,0,.49-.4.68.68,0,0,0,.09-.41,1,1,0,0,0-.18-.52,1,1,0,0,0-.42-.41A.6.6,0,0,0,149.79,95Zm.34,1.08a1.11,1.11,0,0,1-.25.19l-.09,0-.27-.43.06,0a.92.92,0,0,1,.31-.16.14.14,0,0,1,.1,0,.39.39,0,0,1,.17.27A.15.15,0,0,1,150.13,96.08Z" transform="translate(0 0)"/><polygon class="cls-20" points="149.63 92.71 148.21 87.55 147.44 88.02 148.56 91.8 145.66 89.13 144.87 89.61 148.86 93.19 149.63 92.71"/><path class="cls-20" d="M155.38,91.43a1,1,0,0,0-.43.46,1.19,1.19,0,0,0-.08.64,1.93,1.93,0,0,0,.33.81,1.7,1.7,0,0,0,.89.79A1,1,0,0,0,157,94a1,1,0,0,0,.5-.74,1.75,1.75,0,0,0-.31-1.16,1.68,1.68,0,0,0-.87-.78A1,1,0,0,0,155.38,91.43Zm1.45,1.67a.42.42,0,0,1-.6.36,1.09,1.09,0,0,1-.48-.48,1.11,1.11,0,0,1-.22-.65.42.42,0,0,1,.2-.34.41.41,0,0,1,.4,0,1.13,1.13,0,0,1,.47.48A1.22,1.22,0,0,1,156.83,93.1Z" transform="translate(0 0)"/><path class="cls-20" d="M147.14,96.58l.75,3,.44-.28-.18-.67.82-.51.53.46.45-.28-2.37-2Zm1,1.3-.1-.37.29.25Z" transform="translate(0 0)"/><path class="cls-20" d="M154.33,83.75,155.64,89l.77-.47-.32-1.17,1.44-.89.93.79.78-.48-4.14-3.48ZM156,86.21l-.32-1.2.93.82Z" transform="translate(0 0)"/><polygon class="cls-20" points="159.91 90.61 160.94 89.98 160.68 89.55 159.65 90.19 159.31 89.64 160.41 88.95 160.15 88.53 158.63 89.47 160.18 91.97 161.73 91 161.47 90.58 160.33 91.29 159.91 90.61"/><polygon class="cls-20" points="158.63 92.03 156.97 90.5 156.52 90.78 158.79 92.82 159.23 92.55 158.42 89.6 157.98 89.87 158.63 92.03"/><path class="cls-20" d="M162.16,87.67a.82.82,0,0,0-.4,0,1.31,1.31,0,0,0-.47.21l-.75.46,1.54,2.5.78-.48a1.45,1.45,0,0,0,.36-.32.77.77,0,0,0,.14-.38,1.3,1.3,0,0,0-.05-.5,2.43,2.43,0,0,0-.27-.61,3,3,0,0,0-.44-.55A1.29,1.29,0,0,0,162.16,87.67Zm.52,1.58a.81.81,0,0,1,0,.23.21.21,0,0,1-.05.13.6.6,0,0,1-.21.17l-.18.11-.85-1.38,0,0a2.32,2.32,0,0,1,.31-.17.28.28,0,0,1,.18,0,.59.59,0,0,1,.21.14,2,2,0,0,1,.28.38A2.16,2.16,0,0,1,162.68,89.25Z" transform="translate(0 0)"/><path class="cls-20" d="M153.42,87.06a3,3,0,0,0-1,.15,2.14,2.14,0,0,1-.83.14.42.42,0,0,1-.32-.21.43.43,0,0,1,0-.4.85.85,0,0,1,.38-.4.76.76,0,0,1,.54-.14.94.94,0,0,1,.51.37l.69-.49a1.56,1.56,0,0,0-1-.75,1.62,1.62,0,0,0-1.2.27,1.8,1.8,0,0,0-.61.58,1.26,1.26,0,0,0-.18.71,1.55,1.55,0,0,0,.71,1.24,1.33,1.33,0,0,0,.61.22,2.61,2.61,0,0,0,.87-.12,7.46,7.46,0,0,1,.78-.17.62.62,0,0,1,.31,0,.58.58,0,0,1,.22.22.65.65,0,0,1,.08.54.9.9,0,0,1-.41.49c-.44.27-.88.15-1.3-.36l-.66.53a1.66,1.66,0,0,0,2.4.59,1.69,1.69,0,0,0,.86-1.07,1.61,1.61,0,0,0-.25-1.17,1.83,1.83,0,0,0-.54-.59A1.26,1.26,0,0,0,153.42,87.06Z" transform="translate(0 0)"/><path class="cls-21" d="M110.46,109.34l.46-.38h0s-.39-.28-.46-.26-1.66.55-2.42.81l0,0-.79-.74-.07-.07-.42-.38a.46.46,0,0,0-.07-.07l-.41-.37,0,0h0l-1.62-1.46.63-.5h0l0,0h0l.08,0h0s0,0,0,0h0l0,0h0l0,0h0l.62-.47h0l.08,0h0a.05.05,0,0,0,0,0h0v0l0-.05h0l.48-.38.13-.1h0l.07,0h0s0,0,0,0h0s0,0,0,0l0,0h0l.61-.48h0l.07,0h0a.08.08,0,0,0,0,0h0v0l0,0h0l0,0h0l.63-.49h0s-.07-.13-.16-.15h-.17l-.22.06h0l-.13,0h-.06l-2.56.68a2.67,2.67,0,0,0-.23-.18h0l-.22-.13h0l0,0h0l0,0a1.14,1.14,0,0,0-.23.25h0a.16.16,0,0,0,0,.06h0s0,0,0,0h0a.43.43,0,0,0,0,.12l0,0-.64.18-.08,0h0l-.36.09-.33-.29h0l-.62-.54-.06,0-.07-.07,0,0-.06,0,0,0a.46.46,0,0,1-.07-.07c-.85-.69-1.75-1-2-.7s.23,1.14,1.08,1.84l.08.06,0,0,0,0,.07,0,0,0c.08.06.18.13.28.22l.13.1,0,0,.3.22h0l.36.28c0,.1,0,.22,0,.35h0c0,.22,0,.47,0,.74l0,0-.1.07h0l0,0h0a.87.87,0,0,0-.18.26l0,.05h0v0h0a1.56,1.56,0,0,0,.16.2h0l.23.19c0,.49-.07,1-.09,1.47a.13.13,0,0,0,0,.06c0,.07,0,.13,0,.19a.81.81,0,0,0,0,.16v.06a.76.76,0,0,0,0,.15.09.09,0,0,0,0,0,1.09,1.09,0,0,1,0,.18h0a2.85,2.85,0,0,1,0,.31h0v.06a.71.71,0,0,1,0,.14h0a1.55,1.55,0,0,1,0,.23h0v.12h0v0a.32.32,0,0,0,.16.13h0l.36-.72h0l0,0h0l.05,0h0l0,0h0v0l-.06-.06h0l0,0,.35-.7,0,0h0s0,0,.06,0h0a.08.08,0,0,0,0,0h0v0l0-.06h0s0,0,0,0l.23-.47.11-.22h0l0,0h0s0,0,0,0h0v0l-.05-.07h0l0,0,.35-.69h0l0,0h0l0,0s0,0,0,0h0s0,0,0,0h0l0-.07h0l0,0,.36-.71,1.8,1.33h0l.06,0c.13.11.27.2.4.3l.08.06.42.3.13.1.42.29,0,0,.39.27,0,0q0,.1,0,.24s0,0,0,0h0l-.2,1.59s0,0,0,.06a.53.53,0,0,0,0,.13.07.07,0,0,0,0,0l0,.23h0a.31.31,0,0,0,0,.09h0s0,0,0,.06h0v0s.16.22.26.32h0l.09.08.28-.52h0l.87-1.61v0s0,0,0,0l.07.05.15.09a1.14,1.14,0,0,0,.11-.11.57.57,0,0,0,.08-.13l-.07-.08h0l0,0h0l0,0h0s0,0,0,0l1.41-1.18Z" transform="translate(0 0)"/><path class="cls-21" d="M107.24,115.55a8.93,8.93,0,1,1,6.11-11A8.94,8.94,0,0,1,107.24,115.55Zm-4.85-16.87a8.62,8.62,0,1,0,10.67,5.9A8.63,8.63,0,0,0,102.39,98.68Z" transform="translate(0 0)"/><path class="cls-21" d="M106.88,114.28a7.61,7.61,0,1,1,5.21-9.42A7.6,7.6,0,0,1,106.88,114.28ZM102.71,99.8a7.46,7.46,0,1,0,9.23,5.11A7.47,7.47,0,0,0,102.71,99.8Z" transform="translate(0 0)"/><path class="cls-21" d="M139.46,81.12a10.77,10.77,0,1,1,7.37-13.33A10.78,10.78,0,0,1,139.46,81.12Zm-5.85-20.34a10.4,10.4,0,1,0,12.87,7.12A10.41,10.41,0,0,0,133.61,60.78Z" transform="translate(0 0)"/><path class="cls-21" d="M143.52,69.52l.07-.69h0A2.92,2.92,0,0,0,143,69c0,.05-.93,1.85-1.34,2.69h-.06l-1.27,0h-.12l-.67,0h-.11l-.65,0s0,0-.05,0h0l-2.57.13.12-.94h.05l.1,0v0h0a0,0,0,0,0,0-.06h0v0h-.12l.11-.91h.05l.09,0a0,0,0,0,0,0,0h0s0,0,0-.06h-.12l.09-.71,0-.2h0l.1,0a0,0,0,0,1,0,0h0a.06.06,0,0,0,0-.06h0s0,0,0,0h-.1l.11-.91h0l.09,0a0,0,0,0,0,0,0h0s0,0,0-.06h0s0,0,0,0h-.11l.12-.93h0a.38.38,0,0,0-.26,0l0,0h0l0,0s0,0,0,0a.15.15,0,0,0,0,.06h0l-.14.23,0,0s0,.08-.07.13h0l0,0h0c-.38.64-1,1.7-1.57,2.7a2.5,2.5,0,0,0-.35,0h0l-.29.07v0h0v0a0,0,0,0,1,0,0h0v0a1.31,1.31,0,0,0,0,.39h0a.25.25,0,0,0,0,.07v0h0v0a1.39,1.39,0,0,0,.06.13h0l-.39.68,0,.08h0l-.21.37-.53,0h0c-.38,0-.7,0-1,.07h-.54c-1.29.12-2.3.61-2.25,1.08s1.13.75,2.42.63H132l.41-.05.19,0h0l.43-.05h0l.54-.07a3.29,3.29,0,0,0,.26.31h0l.58.66h0l0,.14v0h0a0,0,0,0,1,0,0v.07h0a1.19,1.19,0,0,0,.06.37l0,.06h0v0s0,0,0,0h0a0,0,0,0,1,0,0,1.37,1.37,0,0,0,.29,0h0a1.83,1.83,0,0,0,.35,0l1.14,1.3,0,.06.15.17.12.14s0,0,.05,0l.11.13s0,0,.05,0l.14.16h0l.24.28h0s0,0,0,0h0a1.31,1.31,0,0,0,.11.12,0,0,0,0,0,0,0l.18.21h0l.06.06h0l0,0h0s0,0,0,0a.3.3,0,0,0,.23,0l0,0-.3-.89h0l.07,0v0h0a.13.13,0,0,0,0-.06h0a0,0,0,0,0,0,0h-.14l-.29-.87h0l.07,0v0h0a.09.09,0,0,0,0-.07h-.15l-.19-.59-.1-.28h0l.07,0v0h0a.09.09,0,0,0,0-.07h0a0,0,0,0,0,0,0h-.14l-.29-.87h0l.07,0h0a.07.07,0,0,0,0-.06h0s0,0,0,0h-.15l-.29-.88,2.61-.38h0l.09,0,.58-.08.1,0,.61-.1.19,0,.59-.1h.07l.55-.09h.05l.17.22,0,0h0l1.15,1.5,0,0a.47.47,0,0,1,.09.12l0,0,.17.21a0,0,0,0,0,0,0,.21.21,0,0,1,.06.08h0l0,0h0l0,0a1.92,1.92,0,0,0,.49,0h.14l-.2-.67h0l-.61-2.06v0h.07l.09,0,.2,0a.6.6,0,0,0,0-.19.47.47,0,0,0,0-.17h-.38l.21-2.16Z" transform="translate(0 0)"/><path class="cls-21" d="M129.75,68.61h-.39l-.43,1.12.29.27a1.49,1.49,0,0,1,.23.24.26.26,0,0,1,0,.21.29.29,0,0,1-.15.16.28.28,0,0,1-.2,0,.34.34,0,0,1-.11-.07l-.14-.12L127.36,69l-.15-.14-.15-.16a.49.49,0,0,1-.06-.17.39.39,0,0,1,0-.21.41.41,0,0,1,.12-.18.51.51,0,0,1,.16-.09l.18,0h.24l2,0a1.17,1.17,0,0,1,.32,0,.23.23,0,0,1,.14.15.28.28,0,0,1,0,.22.29.29,0,0,1-.06.11.31.31,0,0,1-.1,0l-.14,0Zm-1.18.82.32-.83-1.28,0Z" transform="translate(0 0)"/><path class="cls-21" d="M130.05,66.51l-.14.15.69.64a.34.34,0,0,1,.14.24.28.28,0,0,1-.08.22.28.28,0,0,1-.22.1.39.39,0,0,1-.25-.12l-1.65-1.52a.38.38,0,0,1-.14-.25.42.42,0,0,1,.13-.27l.66-.72.25-.24a.9.9,0,0,1,.22-.14.59.59,0,0,1,.29-.07.63.63,0,0,1,.3,0,.82.82,0,0,1,.25.16.69.69,0,0,1,.26.49,1.13,1.13,0,0,1-.18.61.8.8,0,0,1,.39-.06,2.09,2.09,0,0,1,.43,0,2.28,2.28,0,0,1,.36.1.54.54,0,0,1,.2.09.23.23,0,0,1,0,.1.19.19,0,0,1,0,.13.29.29,0,0,1-.08.14.24.24,0,0,1-.14.09.5.5,0,0,1-.17,0l-.25,0-.45-.09a1.84,1.84,0,0,0-.4-.06.67.67,0,0,0-.26,0A.92.92,0,0,0,130.05,66.51Zm-.66-1.08-.38.4.59.54L130,66a1.7,1.7,0,0,0,.23-.29.65.65,0,0,0,.06-.25.39.39,0,0,0-.33-.32.34.34,0,0,0-.22,0A1.31,1.31,0,0,0,129.39,65.43Z" transform="translate(0 0)"/><path class="cls-21" d="M132.58,64.55l-.2.09.37.85a.43.43,0,0,1,0,.28.29.29,0,0,1-.17.17.29.29,0,0,1-.24,0,.46.46,0,0,1-.18-.22l-.89-2.06a.36.36,0,0,1,0-.28.38.38,0,0,1,.23-.19l.89-.39a2.8,2.8,0,0,1,.33-.12.82.82,0,0,1,.26,0,.76.76,0,0,1,.3.05,1,1,0,0,1,.25.16,1.17,1.17,0,0,1,.17.26.76.76,0,0,1,0,.55,1.06,1.06,0,0,1-.41.48,1.13,1.13,0,0,1,.38.1,2.77,2.77,0,0,1,.37.22,2.89,2.89,0,0,1,.3.23.74.74,0,0,1,.14.17.2.2,0,0,1,0,.11.23.23,0,0,1-.06.12.4.4,0,0,1-.12.1.37.37,0,0,1-.18,0,.47.47,0,0,1-.15-.06l-.21-.14-.38-.27-.34-.21a.65.65,0,0,0-.25-.06A1,1,0,0,0,132.58,64.55Zm-.17-1.26-.51.22.32.74.49-.22a1.07,1.07,0,0,0,.32-.18.49.49,0,0,0,.16-.2.41.41,0,0,0,0-.26.39.39,0,0,0-.14-.17.32.32,0,0,0-.22,0A1.27,1.27,0,0,0,132.41,63.29Z" transform="translate(0 0)"/><path class="cls-21" d="M135,64.72l-.42-2.25a.36.36,0,0,1,0-.28.3.3,0,0,1,.43-.08.37.37,0,0,1,.13.25l.42,2.25a.41.41,0,0,1,0,.28.31.31,0,0,1-.2.13.31.31,0,0,1-.23,0A.4.4,0,0,1,135,64.72Z" transform="translate(0 0)"/><path class="cls-21" d="M136.74,62.24l.51,2,.83-1.9a1,1,0,0,1,.1-.21.26.26,0,0,1,.26-.14.34.34,0,0,1,.14,0,.31.31,0,0,1,.09.11.31.31,0,0,1,0,.13.29.29,0,0,1,0,.09.3.3,0,0,1,0,.1l0,.09-.87,1.84-.09.2a.71.71,0,0,1-.11.17.31.31,0,0,1-.14.11.36.36,0,0,1-.21,0,.43.43,0,0,1-.2-.06.41.41,0,0,1-.12-.14.89.89,0,0,1-.08-.17l-.06-.22-.55-1.94,0-.1a.36.36,0,0,1,0-.11.38.38,0,0,1,0-.1.28.28,0,0,1,.1-.17.26.26,0,0,1,.21-.07.27.27,0,0,1,.21.11A1.38,1.38,0,0,1,136.74,62.24Z" transform="translate(0 0)"/><path class="cls-21" d="M140.34,65.55l0-.39-1.08-.54-.29.27a1.28,1.28,0,0,1-.26.2.2.2,0,0,1-.21,0,.25.25,0,0,1-.14-.16.23.23,0,0,1,0-.2.39.39,0,0,1,.08-.1.94.94,0,0,1,.14-.13l1.52-1.36.15-.14.17-.12a.41.41,0,0,1,.18,0,.43.43,0,0,1,.21,0A.47.47,0,0,1,141,63a.44.44,0,0,1,.06.16,1.09,1.09,0,0,1,0,.18c0,.06,0,.15,0,.25l-.14,2a.89.89,0,0,1-.06.32.24.24,0,0,1-.16.13.24.24,0,0,1-.22,0,.2.2,0,0,1-.1-.07.24.24,0,0,1,0-.1.66.66,0,0,1,0-.15A1.09,1.09,0,0,0,140.34,65.55Zm-.7-1.26.79.4.14-1.27Z" transform="translate(0 0)"/><path class="cls-21" d="M143.17,64.93l-1.51,1.49.85.87a.31.31,0,0,1,.11.21.26.26,0,0,1-.07.18.23.23,0,0,1-.18.06.27.27,0,0,1-.2-.11l-1-1a.4.4,0,0,1-.14-.26.36.36,0,0,1,.14-.25l1.6-1.58a.37.37,0,0,1,.25-.12.23.23,0,0,1,.21.09.24.24,0,0,1,.09.22A.32.32,0,0,1,143.17,64.93Z" transform="translate(0 0)"/><path class="cls-22" d="M103.23,79.83,87.33,84.4,91.78,70ZM87.73,84l15-4.3L91.92,70.43Z" transform="translate(0 0)"/><path class="cls-22" d="M106.54,80.68,85.05,86.86l6-19.47ZM85.46,86.47,106,80.56,91.22,67.86Z" transform="translate(0 0)"/><path class="cls-22" d="M89.52,82.93l-.4-1.4.15,0,.41,1.4Z" transform="translate(0 0)"/><path class="cls-22" d="M90.59,82.62l-.14,0-.66-1,.31,1.05-.15,0-.41-1.4.16,0,.78,1.13,0-1.37.16,0,.4,1.4-.15,0-.3-1.06Z" transform="translate(0 0)"/><path class="cls-22" d="M92,82.21l-.13,0-.67-1,.31,1.06-.15,0L91,81l.16,0,.78,1.13L92,80.71l.15,0,.4,1.4-.15,0-.3-1Z" transform="translate(0 0)"/><path class="cls-22" d="M92.79,82l-.41-1.4.16,0,.4,1.41Z" transform="translate(0 0)"/><path class="cls-22" d="M94.21,81.52l-.18.11a.88.88,0,0,1-.26.1.49.49,0,0,1-.48-.08,1,1,0,0,1-.31-.49.93.93,0,0,1,0-.55.5.5,0,0,1,.36-.34.56.56,0,0,1,.24,0,.74.74,0,0,1,.21.07l-.07.13a.52.52,0,0,0-.16-.06.44.44,0,0,0-.19,0,.36.36,0,0,0-.25.26.7.7,0,0,0,0,.43.76.76,0,0,0,.26.43.38.38,0,0,0,.35.08.47.47,0,0,0,.15-.06l.13-.07L93.88,81l.15,0Z" transform="translate(0 0)"/><path class="cls-22" d="M94.57,81.48l-.15,0-.4-1.4L94.4,80a.51.51,0,0,1,.37,0,.38.38,0,0,1,.19.26.34.34,0,0,1,0,.26.38.38,0,0,1-.16.19l.57.52-.18,0-.53-.49-.24.07Zm-.2-.72.14,0a.45.45,0,0,0,.26-.16.29.29,0,0,0,0-.24.3.3,0,0,0-.15-.19.47.47,0,0,0-.28,0l-.17,0Z" transform="translate(0 0)"/><path class="cls-22" d="M95.47,79.7l.15,0,.87,1.26-.17,0L96,80.54l-.48.13v.53l-.15,0Zm.09.86.41-.12-.38-.58Z" transform="translate(0 0)"/><path class="cls-22" d="M97.2,79.34l-.44.13.37,1.27-.15.05-.37-1.28-.43.13,0-.13,1-.29Z" transform="translate(0 0)"/><path class="cls-22" d="M97.73,80.57l-.41-1.4.16,0,.4,1.4Z" transform="translate(0 0)"/><path class="cls-22" d="M98.75,80.3a.57.57,0,0,1-.51-.08.88.88,0,0,1-.32-.49.72.72,0,0,1,0-.56.56.56,0,0,1,.39-.33.52.52,0,0,1,.5.07.85.85,0,0,1,.32.48.79.79,0,0,1,0,.57A.6.6,0,0,1,98.75,80.3Zm0-.13a.45.45,0,0,0,.26-.25.77.77,0,0,0,0-.52.75.75,0,0,0-.21-.35.39.39,0,0,0-.39-.09.41.41,0,0,0-.3.27.69.69,0,0,0,0,.45.73.73,0,0,0,.27.42A.43.43,0,0,0,98.73,80.17Z" transform="translate(0 0)"/><path class="cls-22" d="M99.44,78.83,99.77,80l-.15,0-.41-1.4.16,0,1,1-.34-1.16.16,0,.4,1.4-.15,0Z" transform="translate(0 0)"/><polygon class="cls-22" points="98.86 77.96 89.58 80.64 89.5 80.38 98.79 77.7 98.86 77.96"/><path class="cls-22" d="M86.91,85.3a.16.16,0,0,1-.12.21.16.16,0,0,1-.21-.11.18.18,0,0,1,.12-.22A.17.17,0,0,1,86.91,85.3Z" transform="translate(0 0)"/><path class="cls-22" d="M88.28,84.91a.17.17,0,0,1-.12.21A.16.16,0,0,1,88,85a.16.16,0,0,1,.11-.21A.19.19,0,0,1,88.28,84.91Z" transform="translate(0 0)"/><path class="cls-22" d="M89.64,84.52a.17.17,0,0,1-.12.21.17.17,0,0,1-.21-.12.16.16,0,0,1,.12-.21A.16.16,0,0,1,89.64,84.52Z" transform="translate(0 0)"/><path class="cls-22" d="M91,84.13a.16.16,0,0,1-.12.21.18.18,0,0,1-.21-.12.17.17,0,0,1,.12-.21A.16.16,0,0,1,91,84.13Z" transform="translate(0 0)"/><path class="cls-22" d="M92.37,83.73a.17.17,0,0,1-.12.21.17.17,0,1,1-.1-.32A.18.18,0,0,1,92.37,83.73Z" transform="translate(0 0)"/><path class="cls-22" d="M93.73,83.34a.17.17,0,0,1-.12.21.16.16,0,0,1-.21-.12.16.16,0,0,1,.12-.21A.18.18,0,0,1,93.73,83.34Z" transform="translate(0 0)"/><path class="cls-22" d="M95.09,83a.16.16,0,0,1-.12.21.17.17,0,0,1-.21-.12.18.18,0,0,1,.12-.21A.17.17,0,0,1,95.09,83Z" transform="translate(0 0)"/><path class="cls-22" d="M96.46,82.56a.18.18,0,0,1-.12.21.17.17,0,0,1-.21-.12.16.16,0,0,1,.11-.21A.18.18,0,0,1,96.46,82.56Z" transform="translate(0 0)"/><path class="cls-22" d="M97.82,82.16a.18.18,0,0,1-.12.22.18.18,0,0,1-.21-.12.18.18,0,0,1,.12-.22A.18.18,0,0,1,97.82,82.16Z" transform="translate(0 0)"/><path class="cls-22" d="M99.18,81.77a.16.16,0,0,1-.11.21.17.17,0,0,1-.22-.11.19.19,0,0,1,.12-.22A.17.17,0,0,1,99.18,81.77Z" transform="translate(0 0)"/><path class="cls-22" d="M100.55,81.38a.17.17,0,0,1-.12.21.16.16,0,0,1-.21-.12.16.16,0,0,1,.11-.21A.19.19,0,0,1,100.55,81.38Z" transform="translate(0 0)"/><path class="cls-22" d="M101.91,81a.17.17,0,1,1-.21-.12A.17.17,0,0,1,101.91,81Z" transform="translate(0 0)"/><path class="cls-22" d="M103.27,80.59a.17.17,0,0,1-.12.22.18.18,0,0,1-.21-.12.17.17,0,0,1,.12-.21A.16.16,0,0,1,103.27,80.59Z" transform="translate(0 0)"/><path class="cls-22" d="M104.64,80.22a.17.17,0,1,1-.21-.12A.17.17,0,0,1,104.64,80.22Z" transform="translate(0 0)"/><path class="cls-22" d="M91.7,69.21a.17.17,0,0,1-.24,0,.18.18,0,0,1,0-.25.17.17,0,0,1,.24,0A.16.16,0,0,1,91.7,69.21Z" transform="translate(0 0)"/><path class="cls-22" d="M93,70.07a.16.16,0,0,1-.24,0,.17.17,0,0,1,0-.24.19.19,0,0,1,.25,0A.17.17,0,0,1,93,70.07Z" transform="translate(0 0)"/><path class="cls-22" d="M94.1,71a.16.16,0,0,1-.24,0,.17.17,0,0,1,0-.24.17.17,0,1,1,.26.23Z" transform="translate(0 0)"/><path class="cls-22" d="M95.16,72a.16.16,0,0,1-.24,0,.17.17,0,0,1,0-.24.18.18,0,0,1,.25,0A.17.17,0,0,1,95.16,72Z" transform="translate(0 0)"/><path class="cls-22" d="M96.22,72.9a.17.17,0,0,1-.24,0,.17.17,0,1,1,.23-.26A.16.16,0,0,1,96.22,72.9Z" transform="translate(0 0)"/><path class="cls-22" d="M97.28,73.84a.17.17,0,1,1-.25-.22.17.17,0,0,1,.24,0A.16.16,0,0,1,97.28,73.84Z" transform="translate(0 0)"/><path class="cls-22" d="M98.34,74.79a.17.17,0,0,1-.24,0,.16.16,0,0,1,0-.24.17.17,0,0,1,.24,0A.18.18,0,0,1,98.34,74.79Z" transform="translate(0 0)"/><path class="cls-22" d="M99.4,75.73a.17.17,0,1,1,0-.24A.16.16,0,0,1,99.4,75.73Z" transform="translate(0 0)"/><path class="cls-22" d="M100.46,76.67a.17.17,0,0,1-.24,0,.18.18,0,0,1,0-.25.17.17,0,0,1,.25.23Z" transform="translate(0 0)"/><path class="cls-22" d="M101.53,77.61a.17.17,0,1,1-.26-.23.17.17,0,0,1,.26.23Z" transform="translate(0 0)"/><path class="cls-22" d="M102.59,78.55a.17.17,0,1,1-.26-.23.18.18,0,0,1,.24,0A.17.17,0,0,1,102.59,78.55Z" transform="translate(0 0)"/><path class="cls-22" d="M103.63,79.51a.16.16,0,0,1-.24,0,.17.17,0,0,1,0-.24.17.17,0,1,1,.25.23Z" transform="translate(0 0)"/><path class="cls-22" d="M90.92,70.68a.17.17,0,0,0,.22-.11.18.18,0,0,0-.12-.22.17.17,0,0,0-.21.12A.16.16,0,0,0,90.92,70.68Z" transform="translate(0 0)"/><path class="cls-22" d="M90.53,72a.17.17,0,1,0-.12-.21A.16.16,0,0,0,90.53,72Z" transform="translate(0 0)"/><path class="cls-22" d="M90.13,73.41a.17.17,0,0,0,.21-.12.16.16,0,0,0-.11-.21.17.17,0,0,0-.22.11A.19.19,0,0,0,90.13,73.41Z" transform="translate(0 0)"/><path class="cls-22" d="M89.73,74.77a.19.19,0,0,0,.22-.12.18.18,0,0,0-.12-.21.16.16,0,0,0-.21.12A.16.16,0,0,0,89.73,74.77Z" transform="translate(0 0)"/><path class="cls-22" d="M89.33,76.13a.17.17,0,0,0,.22-.12.18.18,0,0,0-.12-.21.17.17,0,0,0-.21.12A.16.16,0,0,0,89.33,76.13Z" transform="translate(0 0)"/><path class="cls-22" d="M88.94,77.49a.16.16,0,0,0,.21-.11.18.18,0,0,0-.12-.22.18.18,0,0,0-.21.12A.17.17,0,0,0,88.94,77.49Z" transform="translate(0 0)"/><path class="cls-22" d="M88.54,78.85a.16.16,0,0,0,.21-.11.18.18,0,0,0-.12-.22.18.18,0,0,0-.21.12A.17.17,0,0,0,88.54,78.85Z" transform="translate(0 0)"/><path class="cls-22" d="M88.14,80.22a.17.17,0,0,0,.21-.12.16.16,0,0,0-.11-.21A.17.17,0,0,0,88,80,.19.19,0,0,0,88.14,80.22Z" transform="translate(0 0)"/><path class="cls-22" d="M87.74,81.58a.19.19,0,0,0,.22-.12.18.18,0,0,0-.12-.21.17.17,0,0,0-.21.11A.17.17,0,0,0,87.74,81.58Z" transform="translate(0 0)"/><path class="cls-22" d="M87.34,82.94a.18.18,0,0,0,.22-.12.18.18,0,0,0-.12-.21.17.17,0,0,0-.1.33Z" transform="translate(0 0)"/><path class="cls-22" d="M87,84.31a.18.18,0,1,0,.1-.34.18.18,0,0,0-.1.34Z" transform="translate(0 0)"/><path class="cls-22" d="M96,76.79l.19-.15h0s-.17-.12-.2-.11l-1,.33h0l-.33-.31,0,0-.17-.16,0,0-.17-.15a0,0,0,0,0,0,0h0l-.68-.61.27-.2h0s0,0,0,0h0l0,0h0l.25-.19h0l0,0h0l0,0h0l0,0h0l.19-.15.06-.05h0l0,0h0v0h0a0,0,0,0,1,0,0h0l.25-.19h0s0,0,0,0h0l0,0h0l.26-.2h0a.14.14,0,0,0-.07-.06h-.07l-.09,0h-.09l-1.06.28-.1-.07h0l-.09-.05h0a.31.31,0,0,0-.1.1h0v0h0a.17.17,0,0,0,0,0h0l-.27.08h0l-.15,0-.13-.13h0c-.11-.08-.19-.16-.26-.22s0,0,0,0l0,0,0,0,0,0s0,0,0,0l0,0c-.35-.29-.72-.42-.83-.29s.1.47.45.76l0,0,0,0h0l0,0h0l.11.09.06,0h0l.12.09h0l.15.12a.61.61,0,0,0,0,.14h0c0,.09,0,.2,0,.31h0l0,0h0l0,0h0a.59.59,0,0,0-.08.11v0h0a.27.27,0,0,0,.07.08h0a.76.76,0,0,1,.09.09c0,.2,0,.41,0,.6v.11a.13.13,0,0,1,0,.06v.11s0,0,0,.08h0a.53.53,0,0,1,0,.13h0v0h0v.06h0v.09h0v0h0v0h0a.1.1,0,0,0,.07,0h0l.15-.3h0a0,0,0,0,0,0,0h0s0,0,0,0h0l0,0h0a0,0,0,0,0,0,0L92.7,77h0l0,0h0l0,0h0l.1-.19,0-.1h0l0,0h0l0,0h0l.14-.29h0a0,0,0,0,1,0,0h0s0,0,0,0h0s0,0,0,0h0l.15-.29.75.55h0l0,0,.17.12,0,0,.18.13.05,0,.17.12,0,0,.16.11h0s0,.06,0,.1h0c0,.2-.06.47-.08.66a0,0,0,0,1,0,0V78a.22.22,0,0,1,0,.09h0v0h0v0h0s.07.08.11.13h0l0,0,.12-.21h0l.36-.67h0l0,0,.06,0,0,0,0-.05,0,0h0l0,0,.59-.49Z" transform="translate(0 0)"/><path class="cls-23" d="M146.25,109.19l-15.9,4.58,4.45-14.45Zm-15.5,4.19,15-4.31-10.77-9.28Z" transform="translate(0 0)"/><path class="cls-23" d="M149.56,110l-21.48,6.18,6-19.46Zm-21.08,5.79L149,109.92l-14.77-12.7Z" transform="translate(0 0)"/><path class="cls-23" d="M132.55,112.29l-.41-1.4.15,0,.41,1.4Z" transform="translate(0 0)"/><path class="cls-23" d="M133.62,112l-.15,0-.65-1,.3,1.06-.15,0-.4-1.4.15,0,.78,1.13.06-1.37.15,0,.41,1.4-.16,0-.3-1.06Z" transform="translate(0 0)"/><path class="cls-23" d="M135,111.58l-.14,0-.66-1,.3,1.06-.15,0-.41-1.4.16,0,.78,1.13.06-1.37.15,0,.41,1.4-.16,0-.3-1.06Z" transform="translate(0 0)"/><path class="cls-23" d="M135.81,111.35l-.41-1.4.16,0,.4,1.4Z" transform="translate(0 0)"/><path class="cls-23" d="M137.23,110.88l-.17.11a1.69,1.69,0,0,1-.27.11.51.51,0,0,1-.48-.09.9.9,0,0,1-.3-.48.89.89,0,0,1,0-.56.53.53,0,0,1,.36-.34.56.56,0,0,1,.24,0,.79.79,0,0,1,.22.07l-.07.13a.41.41,0,0,0-.17,0,.42.42,0,0,0-.19,0,.37.37,0,0,0-.24.26.73.73,0,0,0,0,.44.79.79,0,0,0,.26.43.38.38,0,0,0,.35.07.47.47,0,0,0,.15-.06l.13-.06-.15-.53.15,0Z" transform="translate(0 0)"/><path class="cls-23" d="M137.6,110.84l-.16,0-.4-1.4.38-.11a.51.51,0,0,1,.37,0,.45.45,0,0,1,.2.26.46.46,0,0,1,0,.26.48.48,0,0,1-.17.2l.58.51-.19.06-.53-.5-.24.07Zm-.21-.71.15,0a.43.43,0,0,0,.25-.17.3.3,0,0,0-.1-.42.42.42,0,0,0-.29,0l-.17,0Z" transform="translate(0 0)"/><path class="cls-23" d="M138.5,109.06l.15,0,.86,1.27-.17,0-.28-.44-.48.14v.52l-.15,0Zm.09.86.41-.12-.39-.58Z" transform="translate(0 0)"/><path class="cls-23" d="M140.22,108.71l-.44.12.37,1.27-.15.05-.37-1.27-.43.12,0-.13,1-.29Z" transform="translate(0 0)"/><path class="cls-23" d="M140.75,109.93l-.4-1.4.15,0,.4,1.4Z" transform="translate(0 0)"/><path class="cls-23" d="M141.78,109.66a.59.59,0,0,1-.52-.07,1,1,0,0,1-.32-.5.76.76,0,0,1,0-.56.59.59,0,0,1,.39-.33.57.57,0,0,1,.51.07.87.87,0,0,1,.31.49.8.8,0,0,1,0,.57A.57.57,0,0,1,141.78,109.66Zm0-.13a.42.42,0,0,0,.26-.25.7.7,0,0,0,0-.52.87.87,0,0,0-.22-.35.37.37,0,0,0-.39-.08.42.42,0,0,0-.3.26.76.76,0,0,0,0,.45.73.73,0,0,0,.27.42A.41.41,0,0,0,141.75,109.53Z" transform="translate(0 0)"/><path class="cls-23" d="M142.46,108.19l.33,1.15-.15,0-.4-1.4.15,0,1,1-.33-1.16.15,0,.4,1.4-.14,0Z" transform="translate(0 0)"/><polygon class="cls-23" points="141.89 107.33 132.6 110 132.53 109.74 141.81 107.07 141.89 107.33"/><path class="cls-23" d="M129.93,114.66a.18.18,0,0,1-.11.22.17.17,0,0,1-.21-.12.17.17,0,1,1,.32-.1Z" transform="translate(0 0)"/><path class="cls-23" d="M131.3,114.27a.19.19,0,0,1-.12.22.18.18,0,0,1-.1-.34A.19.19,0,0,1,131.3,114.27Z" transform="translate(0 0)"/><path class="cls-23" d="M132.66,113.88a.16.16,0,0,1-.12.21.16.16,0,0,1-.21-.11.18.18,0,0,1,.12-.22A.17.17,0,0,1,132.66,113.88Z" transform="translate(0 0)"/><path class="cls-23" d="M134,113.49a.18.18,0,0,1-.12.21.18.18,0,0,1-.22-.12.18.18,0,0,1,.12-.21A.18.18,0,0,1,134,113.49Z" transform="translate(0 0)"/><path class="cls-23" d="M135.39,113.09a.19.19,0,0,1-.12.22.17.17,0,0,1-.21-.12.16.16,0,0,1,.11-.21A.17.17,0,0,1,135.39,113.09Z" transform="translate(0 0)"/><path class="cls-23" d="M136.75,112.7a.17.17,0,1,1-.21-.11A.17.17,0,0,1,136.75,112.7Z" transform="translate(0 0)"/><path class="cls-23" d="M138.12,112.31a.17.17,0,0,1-.12.21.16.16,0,0,1-.21-.11.17.17,0,0,1,.11-.22A.19.19,0,0,1,138.12,112.31Z" transform="translate(0 0)"/><path class="cls-23" d="M139.48,111.92a.18.18,0,0,1-.12.21.17.17,0,0,1-.21-.12.16.16,0,0,1,.12-.21A.17.17,0,0,1,139.48,111.92Z" transform="translate(0 0)"/><path class="cls-23" d="M140.84,111.53a.16.16,0,0,1-.12.21.17.17,0,0,1-.21-.12.17.17,0,0,1,.12-.21A.16.16,0,0,1,140.84,111.53Z" transform="translate(0 0)"/><path class="cls-23" d="M142.21,111.13a.19.19,0,0,1-.12.22.17.17,0,0,1-.21-.12A.16.16,0,0,1,142,111,.18.18,0,0,1,142.21,111.13Z" transform="translate(0 0)"/><path class="cls-23" d="M143.57,110.74a.19.19,0,0,1-.12.22.18.18,0,0,1-.09-.34A.18.18,0,0,1,143.57,110.74Z" transform="translate(0 0)"/><path class="cls-23" d="M144.93,110.35a.16.16,0,0,1-.12.21.16.16,0,0,1-.21-.11.19.19,0,0,1,.12-.22A.17.17,0,0,1,144.93,110.35Z" transform="translate(0 0)"/><path class="cls-23" d="M146.29,110a.17.17,0,1,1-.21-.12A.16.16,0,0,1,146.29,110Z" transform="translate(0 0)"/><path class="cls-23" d="M147.66,109.58a.16.16,0,0,1-.12.21.17.17,0,0,1-.21-.12.17.17,0,1,1,.33-.09Z" transform="translate(0 0)"/><path class="cls-23" d="M134.72,98.58a.18.18,0,0,1-.24,0,.17.17,0,0,1,.23-.26A.18.18,0,0,1,134.72,98.58Z" transform="translate(0 0)"/><path class="cls-23" d="M136.06,99.44a.17.17,0,0,1-.26-.23.19.19,0,0,1,.25,0A.18.18,0,0,1,136.06,99.44Z" transform="translate(0 0)"/><path class="cls-23" d="M137.12,100.38a.17.17,0,1,1,0-.24A.16.16,0,0,1,137.12,100.38Z" transform="translate(0 0)"/><path class="cls-23" d="M138.18,101.32a.17.17,0,0,1-.24,0,.18.18,0,0,1,0-.25.17.17,0,0,1,.24,0A.16.16,0,0,1,138.18,101.32Z" transform="translate(0 0)"/><path class="cls-23" d="M139.24,102.26a.17.17,0,0,1-.24,0,.16.16,0,0,1,0-.24.17.17,0,0,1,.24,0A.16.16,0,0,1,139.24,102.26Z" transform="translate(0 0)"/><path class="cls-23" d="M140.31,103.21a.18.18,0,0,1-.25,0,.17.17,0,0,1,.23-.26A.19.19,0,0,1,140.31,103.21Z" transform="translate(0 0)"/><path class="cls-23" d="M141.37,104.15a.18.18,0,0,1-.25,0,.17.17,0,0,1,0-.24.16.16,0,0,1,.24,0A.17.17,0,0,1,141.37,104.15Z" transform="translate(0 0)"/><path class="cls-23" d="M142.43,105.09a.17.17,0,1,1-.26-.23.16.16,0,0,1,.24,0A.17.17,0,0,1,142.43,105.09Z" transform="translate(0 0)"/><path class="cls-23" d="M143.49,106a.18.18,0,0,1-.25,0,.18.18,0,0,1,0-.25.18.18,0,0,1,.24,0A.17.17,0,0,1,143.49,106Z" transform="translate(0 0)"/><path class="cls-23" d="M144.55,107a.17.17,0,0,1-.25,0,.17.17,0,0,1,0-.24.16.16,0,0,1,.24,0A.17.17,0,0,1,144.55,107Z" transform="translate(0 0)"/><path class="cls-23" d="M145.61,107.92a.17.17,0,0,1-.26-.23.17.17,0,0,1,.24,0A.18.18,0,0,1,145.61,107.92Z" transform="translate(0 0)"/><path class="cls-23" d="M146.66,108.87a.17.17,0,0,1-.24,0,.19.19,0,0,1,0-.25.17.17,0,0,1,.26.23Z" transform="translate(0 0)"/><path class="cls-23" d="M134,100.05a.18.18,0,0,0,.21-.12.17.17,0,0,0-.33-.1A.18.18,0,0,0,134,100.05Z" transform="translate(0 0)"/><path class="cls-23" d="M133.55,101.41a.17.17,0,0,0,.21-.12.16.16,0,0,0-.11-.21.17.17,0,1,0-.1.33Z" transform="translate(0 0)"/><path class="cls-23" d="M133.15,102.77a.19.19,0,0,0,.22-.12.18.18,0,0,0-.12-.21.18.18,0,0,0-.22.12A.18.18,0,0,0,133.15,102.77Z" transform="translate(0 0)"/><path class="cls-23" d="M132.75,104.13A.17.17,0,0,0,133,104a.19.19,0,0,0-.12-.22.17.17,0,0,0-.21.12A.16.16,0,0,0,132.75,104.13Z" transform="translate(0 0)"/><path class="cls-23" d="M132.36,105.49a.16.16,0,0,0,.21-.11.18.18,0,0,0-.12-.22.17.17,0,0,0-.21.12A.16.16,0,0,0,132.36,105.49Z" transform="translate(0 0)"/><path class="cls-23" d="M132,106.86a.18.18,0,0,0,.21-.12.17.17,0,0,0-.12-.22.18.18,0,0,0-.21.12A.18.18,0,0,0,132,106.86Z" transform="translate(0 0)"/><path class="cls-23" d="M131.56,108.22a.17.17,0,0,0,.21-.12.16.16,0,0,0-.11-.21.18.18,0,0,0-.22.11A.19.19,0,0,0,131.56,108.22Z" transform="translate(0 0)"/><path class="cls-23" d="M131.16,109.58a.19.19,0,0,0,.22-.12.17.17,0,0,0-.12-.21.16.16,0,0,0-.21.12A.16.16,0,0,0,131.16,109.58Z" transform="translate(0 0)"/><path class="cls-23" d="M130.76,110.94a.18.18,0,0,0,.22-.12.18.18,0,0,0-.12-.21.17.17,0,0,0-.1.33Z" transform="translate(0 0)"/><path class="cls-23" d="M130.37,112.3a.16.16,0,0,0,.21-.11.18.18,0,0,0-.12-.22.17.17,0,1,0-.09.33Z" transform="translate(0 0)"/><path class="cls-23" d="M130,113.67a.19.19,0,0,0,.22-.12.17.17,0,0,0-.12-.21.16.16,0,0,0-.21.11A.18.18,0,0,0,130,113.67Z" transform="translate(0 0)"/><path class="cls-23" d="M139,106.16l.19-.16h0s-.16-.12-.19-.11l-1,.33h0l-.33-.31,0,0-.17-.16,0,0a1.29,1.29,0,0,0-.17-.16h0l-.67-.61.26-.2h0a0,0,0,0,0,0,0h0a0,0,0,0,0,0,0h0l.26-.2h0a0,0,0,0,0,0,0h0a0,0,0,0,0,0,0h0l.2-.15,0,0h0l0,0h0l0,0h0a0,0,0,0,1,0,0h0l.26-.2h0l0,0h0s0,0,0,0h0l0,0h0l.26-.21h0a.14.14,0,0,0-.07-.06h-.07l-.09,0h-.09l-1.06.28-.1-.07h0a.31.31,0,0,0-.1,0h0l-.1.1h0v0h0s0,0,0,.05h0l-.26.07h0l-.14,0-.14-.12h0l-.26-.23h0l0,0,0,0,0,0h0l0,0c-.36-.29-.73-.42-.83-.29s.09.47.44.76l0,0,0,0a0,0,0,0,1,0,0l0,0h0l.12.09a.1.1,0,0,0,.05,0,0,0,0,0,0,0,0l.12.1h0l.15.11s0,.09,0,.14h0c0,.1,0,.2,0,.31h0l0,0h0a.59.59,0,0,0-.08.11s0,0,0,0h0a.46.46,0,0,0,.07.07h0a.41.41,0,0,0,.1.09c0,.2,0,.41,0,.6v0a.22.22,0,0,0,0,.08v.06a0,0,0,0,0,0,0v.08a.22.22,0,0,1,0,.08h0v.13h0v0h0a.13.13,0,0,0,0,.06h0v.1h0v0h0s0,0,.06,0h0l.15-.3h0a0,0,0,0,0,0,0h0s0,0,0,0h0s0,0,0,0h0l.15-.29h.05l0,0h0l.1-.19,0-.1h0a0,0,0,0,0,0,0h0s0,0,0,0h0l.14-.29h0s0,0,0,0h0l0,0h0l.15-.29.75.55h0s0,0,0,0l.17.12,0,0,.18.12a.1.1,0,0,0,0,0l.17.12,0,0,.16.11h0s0,.06,0,.1a0,0,0,0,0,0,0h0c0,.19-.06.46-.08.66v0a.11.11,0,0,0,0,.05v0a.38.38,0,0,0,0,.1h0v0h0v0h0a.37.37,0,0,0,.11.13h0l0,0,.12-.22h0l.36-.66h0l0,0,.06,0,.05,0,0-.05s0,0,0,0h0v0h0s0,0,0,0l.58-.48Z" transform="translate(0 0)"/><path class="cls-24" d="M87.72,100.52h0l-14.56,7.62a2,2,0,0,1-2.75-.85l-4-7.66a2,2,0,0,1,.85-2.74l14.58-7.63a2,2,0,0,1,1.55-.13,2,2,0,0,1,1.19,1l4,7.66A2,2,0,0,1,87.72,100.52Zm-20.34-3.4a1.78,1.78,0,0,0-.75,2.39l4,7.65a1.76,1.76,0,0,0,1,.87,1.74,1.74,0,0,0,1.36-.12l14.57-7.62.06.11-.06-.11a1.78,1.78,0,0,0,.75-2.39l-4-7.66A1.77,1.77,0,0,0,82,89.49Z" transform="translate(0 0)"/><path class="cls-24" d="M71.48,105l.48-.25a1.4,1.4,0,0,1,.33-.13.55.55,0,0,1,.31,0,1,1,0,0,1,.67.58,1.89,1.89,0,0,1,.13.31,1,1,0,0,1,0,.29.86.86,0,0,1,0,.27,1.14,1.14,0,0,1-.1.19.75.75,0,0,1-.16.15,1.91,1.91,0,0,1-.21.14l-.48.25a.29.29,0,0,1-.16.05.13.13,0,0,1-.11-.05.56.56,0,0,1-.1-.14l-.69-1.32a.2.2,0,0,1,0-.19A.25.25,0,0,1,71.48,105Zm.3.22.64,1.22.28-.15.14-.08.09-.08A.41.41,0,0,0,73,106a.74.74,0,0,0-.1-.62.94.94,0,0,0-.29-.36.4.4,0,0,0-.29-.06.85.85,0,0,0-.3.11Z" transform="translate(0 0)"/><path class="cls-24" d="M74.45,103.81l-.82.44.24.44.75-.4a.2.2,0,0,1,.14,0,.14.14,0,0,1,.1.08.17.17,0,0,1,0,.12s-.05.07-.1.1L74,105l.27.52.85-.46a.28.28,0,0,1,.15,0,.16.16,0,0,1,.1.08.15.15,0,0,1,0,.13s0,.07-.11.11l-1,.52a.26.26,0,0,1-.2,0,.31.31,0,0,1-.14-.14l-.71-1.36a.3.3,0,0,1,0-.14.2.2,0,0,1,0-.11l.12-.09,1-.51a.22.22,0,0,1,.15,0,.14.14,0,0,1,.1.08.15.15,0,0,1,0,.13A.22.22,0,0,1,74.45,103.81Z" transform="translate(0 0)"/><path class="cls-24" d="M76.07,104l-.33.18.27.51a.28.28,0,0,1,0,.19.22.22,0,0,1-.27.14.3.3,0,0,1-.13-.14l-.74-1.38a.28.28,0,0,1,0-.21.26.26,0,0,1,.15-.14l.46-.25a1.63,1.63,0,0,1,.34-.14.65.65,0,0,1,.24,0,.42.42,0,0,1,.22.11.58.58,0,0,1,.16.21.54.54,0,0,1,0,.5A.86.86,0,0,1,76.07,104Zm-.52-.78-.25.13.29.55.25-.13a.64.64,0,0,0,.2-.14.26.26,0,0,0,.09-.16.42.42,0,0,0,0-.18.35.35,0,0,0-.18-.16A.58.58,0,0,0,75.55,103.22Z" transform="translate(0 0)"/><path class="cls-24" d="M78.25,103.49l-.21-.18-.73.38,0,.28a2.3,2.3,0,0,1,0,.23.17.17,0,0,1-.1.11.17.17,0,0,1-.14,0,.14.14,0,0,1-.12-.09l0-.08s0-.07,0-.13l-.16-1.41s0-.09,0-.15v-.14a.28.28,0,0,1,0-.13.35.35,0,0,1,.11-.09.27.27,0,0,1,.14,0,.28.28,0,0,1,.13,0l.1.07.13.11,1.08.92a.47.47,0,0,1,.16.16.17.17,0,0,1,0,.14.18.18,0,0,1-.1.12l-.08,0-.08,0-.08-.06A.35.35,0,0,1,78.25,103.49Zm-1-.12.54-.28-.67-.6Z" transform="translate(0 0)"/><path class="cls-24" d="M79.09,102.32l-.12.06.3.58a.31.31,0,0,1,0,.2.23.23,0,0,1-.1.12.21.21,0,0,1-.3-.13l-.74-1.38a.25.25,0,0,1,0-.2.24.24,0,0,1,.14-.14l.59-.31a2.24,2.24,0,0,1,.22-.11l.18,0a.69.69,0,0,1,.2,0,.4.4,0,0,1,.18.1.55.55,0,0,1,.13.17.52.52,0,0,1,.06.38.72.72,0,0,1-.25.35.85.85,0,0,1,.26,0,1.69,1.69,0,0,1,.27.13l.22.15a.41.41,0,0,1,.1.11.11.11,0,0,1,0,.08.16.16,0,0,1,0,.09.27.27,0,0,1-.08.07.18.18,0,0,1-.12,0,.2.2,0,0,1-.11,0l-.15-.09-.28-.17a1.1,1.1,0,0,0-.25-.12.27.27,0,0,0-.17,0A.38.38,0,0,0,79.09,102.32Zm-.19-.87-.33.18.26.49.32-.17a1,1,0,0,0,.21-.14.33.33,0,0,0,.1-.15.31.31,0,0,0,0-.18.57.57,0,0,0-.11-.11.4.4,0,0,0-.15,0A1.05,1.05,0,0,0,78.9,101.45Z" transform="translate(0 0)"/><path class="cls-24" d="M81.07,100.34l-.4.21.69,1.31a.24.24,0,0,1,0,.19.17.17,0,0,1-.1.12.18.18,0,0,1-.16,0,.27.27,0,0,1-.14-.14l-.69-1.31-.4.21a.2.2,0,0,1-.16,0,.16.16,0,0,1-.1-.08.18.18,0,0,1,0-.14.26.26,0,0,1,.12-.11l1.16-.61a.27.27,0,0,1,.16,0,.17.17,0,0,1,.12.22A.28.28,0,0,1,81.07,100.34Z" transform="translate(0 0)"/><path class="cls-24" d="M81.87,100.88l-.45-.87a.23.23,0,0,1,0-.19.17.17,0,0,1,.1-.12.19.19,0,0,1,.16,0,.27.27,0,0,1,.14.14l.47.88a.92.92,0,0,0,.17.24.25.25,0,0,0,.2.09.42.42,0,0,0,.27-.07.39.39,0,0,0,.24-.27.61.61,0,0,0-.09-.39l-.48-.89a.3.3,0,0,1,0-.2.17.17,0,0,1,.1-.12.18.18,0,0,1,.16,0,.31.31,0,0,1,.14.14l.46.87a1.44,1.44,0,0,1,.14.37.62.62,0,0,1,0,.33.87.87,0,0,1-.16.26,1.69,1.69,0,0,1-.28.2,1.49,1.49,0,0,1-.38.14.57.57,0,0,1-.32,0,.69.69,0,0,1-.27-.16A1.88,1.88,0,0,1,81.87,100.88Z" transform="translate(0 0)"/><path class="cls-24" d="M84.26,99.58l-.13.07.31.58a.25.25,0,0,1,0,.2.17.17,0,0,1-.1.12.23.23,0,0,1-.16,0,.3.3,0,0,1-.14-.15L83.34,99a.32.32,0,0,1,0-.2.31.31,0,0,1,.14-.14l.6-.32.21-.1.18,0a.44.44,0,0,1,.2,0,.5.5,0,0,1,.19.1.7.7,0,0,1,.13.16.5.5,0,0,1,0,.39.7.7,0,0,1-.25.35,1,1,0,0,1,.27,0l.27.14a1.27,1.27,0,0,1,.21.14c.06.05.1.08.11.11a.11.11,0,0,1,0,.08.16.16,0,0,1,0,.09.27.27,0,0,1-.08.07.17.17,0,0,1-.12,0,.23.23,0,0,1-.11,0l-.15-.09-.27-.17-.25-.13a.4.4,0,0,0-.18,0A.41.41,0,0,0,84.26,99.58Zm-.19-.86-.34.18.26.49.33-.17a1.27,1.27,0,0,0,.21-.14.3.3,0,0,0,.09-.15.31.31,0,0,0,0-.18.29.29,0,0,0-.11-.11.33.33,0,0,0-.15,0A.9.9,0,0,0,84.07,98.72Z" transform="translate(0 0)"/><path class="cls-24" d="M86.37,97.51l-.83.44.24.44.75-.4a.22.22,0,0,1,.15,0,.14.14,0,0,1,.09.08.17.17,0,0,1,0,.12.22.22,0,0,1-.11.1l-.76.4.27.52.85-.45a.22.22,0,0,1,.15,0,.14.14,0,0,1,.1.08.12.12,0,0,1,0,.13.21.21,0,0,1-.1.11l-1,.52a.32.32,0,0,1-.2,0,.26.26,0,0,1-.14-.15l-.72-1.35a.48.48,0,0,1-.05-.14.21.21,0,0,1,0-.11.35.35,0,0,1,.11-.09l1-.51a.22.22,0,0,1,.15,0,.14.14,0,0,1,.09.08.12.12,0,0,1,0,.13S86.42,97.48,86.37,97.51Z" transform="translate(0 0)"/><path class="cls-24" d="M83.69,92.13l-15.13,8a.19.19,0,1,1-.18-.34l15.13-8a.2.2,0,0,1,.26.08A.21.21,0,0,1,83.69,92.13Z" transform="translate(0 0)"/><path class="cls-24" d="M85.9,96.31l-15.13,8a.2.2,0,0,1-.26-.08.2.2,0,0,1,.08-.27l15.13-8a.19.19,0,0,1,.26.09A.2.2,0,0,1,85.9,96.31Z" transform="translate(0 0)"/><path class="cls-24" d="M84.09,93.93l0-.2h0a.79.79,0,0,0-.16.08s-.15.58-.22.84h0l-.36.09h0l-.19,0h0l-.19,0h0l-.72.19,0-.28h0s0,0,0,0h0l0-.26h0l0,0h0v-.27h0l0,0h0v0h0l0-.26h0l0-.27h0s0,0-.07,0h0v0h0s0,0,0,0h0l0,.07h0s0,0,0,0h0v0h0c-.07.2-.18.54-.29.85l-.09,0h0l-.08,0h0a.61.61,0,0,0,0,.11h0a0,0,0,0,0,0,0h0l0,0h0c0,.07,0,.15-.07.21v0h0a.36.36,0,0,1,0,.11l-.14.05h0l-.27.07h-.15c-.36.12-.61.31-.57.44s.36.15.72,0h.11l.12,0,0,0h0l.12,0h0l.15,0,.09.07h0l.2.15h0v0h0a0,0,0,0,0,0,0h0a.29.29,0,0,0,0,.1,0,0,0,0,1,0,0H82l.1,0,.4.3,0,0,0,0,0,0s0,0,0,0l0,0h0a.1.1,0,0,1,0,0h0l.09.06h0l0,0h0l.06,0h0s0,0,.06,0h0l-.14-.23h0l0,0h0v0h0l-.13-.22h0s0,0,0,0h0L82.62,96l0-.08h0v0h0l-.13-.23h0v0h0l-.14-.24.72-.25h0l.16-.06h0l.17-.07,0,0,.16-.06h0l.15-.06h0l.06,0h0l.42.36h0l0,0h0l.06.06h0l0,0h0a.45.45,0,0,0,.14,0h0l-.1-.18h0l-.3-.55h0l.05,0v0l0,0h-.1l-.07-.62Z" transform="translate(0 0)"/><path class="cls-24" d="M68.9,98.06a.37.37,0,0,1-.16.49.36.36,0,1,1,.16-.49Z" transform="translate(0 0)"/><path class="cls-24" d="M72.72,96.1a.36.36,0,0,1-.16.48.37.37,0,0,1-.49-.15.36.36,0,0,1,.16-.49A.35.35,0,0,1,72.72,96.1Z" transform="translate(0 0)"/><path class="cls-24" d="M70.81,97.07a.36.36,0,0,1-.16.49.35.35,0,0,1-.49-.15.36.36,0,0,1,.16-.49A.37.37,0,0,1,70.81,97.07Z" transform="translate(0 0)"/><path class="cls-24" d="M74.63,95.11a.36.36,0,0,1-.16.49.36.36,0,0,1-.48-.16.34.34,0,0,1,.15-.48A.36.36,0,0,1,74.63,95.11Z" transform="translate(0 0)"/><path class="cls-24" d="M76.54,94.13a.35.35,0,0,1-.15.49.36.36,0,0,1-.49-.16.36.36,0,0,1,.15-.48A.35.35,0,0,1,76.54,94.13Z" transform="translate(0 0)"/><path class="cls-24" d="M80.37,92.17a.36.36,0,1,1-.49-.16A.36.36,0,0,1,80.37,92.17Z" transform="translate(0 0)"/><path class="cls-24" d="M78.46,93.15A.36.36,0,1,1,78,93,.36.36,0,0,1,78.46,93.15Z" transform="translate(0 0)"/><path class="cls-24" d="M82.28,91.19a.36.36,0,1,1-.49-.16A.36.36,0,0,1,82.28,91.19Z" transform="translate(0 0)"/><path class="cls-25" d="M94.82,127.61l-19.89,2.51a.16.16,0,0,1-.18-.14L73.38,119.1a.15.15,0,0,1,.14-.18L93.4,116.4a.17.17,0,0,1,.19.15L95,127.43A.16.16,0,0,1,94.82,127.61Zm-19.77,2.16,19.57-2.47-1.34-10.55-19.56,2.47Z" transform="translate(0 0)"/><path class="cls-25" d="M81.23,119.33l.47-.06L81,122l-.48.06-1.33-2.49.53-.06,1,1.89Z" transform="translate(0 0)"/><path class="cls-25" d="M82.72,121.8l-.49.06-.34-2.61.5-.07Z" transform="translate(0 0)"/><path class="cls-25" d="M82.91,121.16l.5-.06v0a.78.78,0,0,0,0,.18.28.28,0,0,0,.1.09l.17,0a1.47,1.47,0,0,0,.21,0,.52.52,0,0,0,.16-.06.36.36,0,0,0,.14-.11h0a.41.41,0,0,0,.08-.34.35.35,0,0,0-.14-.26l-.18-.09-.21-.07h0l-.14,0-.28-.09a.78.78,0,0,1-.18-.08.87.87,0,0,1-.26-.23.64.64,0,0,1-.11-.3.65.65,0,0,1,.16-.52,1,1,0,0,1,.68-.3,1.75,1.75,0,0,1,.39,0,.61.61,0,0,1,.26.08.8.8,0,0,1,.16.16.48.48,0,0,1,.08.18v0l-.5.06v0s0,0,0-.06l0-.06-.06,0-.06,0h-.21a.44.44,0,0,0-.29.16.4.4,0,0,0-.07.29.5.5,0,0,0,.08.2.57.57,0,0,0,.14.13l.16.06.19.06.16.05a2,2,0,0,1,.37.13.69.69,0,0,1,.22.15.66.66,0,0,1,.19.38.61.61,0,0,1,0,.19.83.83,0,0,1-.06.21.82.82,0,0,1-.11.17.9.9,0,0,1-.18.15.82.82,0,0,1-.21.1,1.33,1.33,0,0,1-.3.06,1.62,1.62,0,0,1-.54,0,.79.79,0,0,1-.35-.19l-.1-.17a.37.37,0,0,1,0-.17Z" transform="translate(0 0)"/><path class="cls-25" d="M85.39,121.46l-.46.06.74-2.75.48-.06,1.32,2.49-.51.07-.36-.68-1,.12Zm.29-1,.77-.1a2.6,2.6,0,0,0-.13-.24l-.12-.24-.12-.23a2.6,2.6,0,0,1-.13-.24Z" transform="translate(0 0)"/><path class="cls-25" d="M76,126.81l-.32,0,.74-2.72.34,0,1.3,2.47-.36,0-.36-.67-1.14.14Zm.27-1,.94-.12-.61-1.14Z" transform="translate(0 0)"/><path class="cls-25" d="M78.65,126.47l-.34,0L78,123.92l.72-.09a1.41,1.41,0,0,1,.6,0,.56.56,0,0,1,.28.22.82.82,0,0,1,.14.36.84.84,0,0,1-.17.64,1,1,0,0,1-.71.35l-.32,0Zm-.16-1.28.22,0c.3,0,.49-.12.57-.25a.63.63,0,0,0,.09-.43.49.49,0,0,0-.16-.32.56.56,0,0,0-.46-.07l-.4,0Z" transform="translate(0 0)"/><path class="cls-25" d="M80.64,126.22l-.34,0L80,123.67l.72-.09a1.37,1.37,0,0,1,.59,0,.56.56,0,0,1,.29.21.91.91,0,0,1,.13.37.85.85,0,0,1-.17.64,1,1,0,0,1-.71.34l-.32,0Zm-.16-1.28.23,0a.78.78,0,0,0,.57-.25.76.76,0,0,0,.09-.43.52.52,0,0,0-.16-.32.6.6,0,0,0-.47-.07l-.39,0Z" transform="translate(0 0)"/><path class="cls-25" d="M82.64,126l-.34.05L82,123.42l.8-.1a1,1,0,0,1,.46,0,.71.71,0,0,1,.27.22.83.83,0,0,1,.13.34.77.77,0,0,1,0,.3.68.68,0,0,1-.13.27.76.76,0,0,1-.3.24.36.36,0,0,1,.13.08.45.45,0,0,1,.12.12l.13.16.51.72-.39,0-.44-.64a1.45,1.45,0,0,0-.39-.39l-.34,0Zm-.18-1.36.33,0a.6.6,0,0,0,.31-.1.41.41,0,0,0,.15-.21.63.63,0,0,0,0-.27.49.49,0,0,0-.08-.21.39.39,0,0,0-.17-.14.54.54,0,0,0-.33,0l-.36,0Z" transform="translate(0 0)"/><path class="cls-25" d="M85.39,125.7a1,1,0,0,1-.84-.26,1.88,1.88,0,0,1-.26-2A1,1,0,0,1,85,123a1,1,0,0,1,.84.26,1.52,1.52,0,0,1,.44,1,1.56,1.56,0,0,1-.18,1A1,1,0,0,1,85.39,125.7Zm0-.26a.64.64,0,0,0,.51-.38,1.46,1.46,0,0,0,.1-.83,1.51,1.51,0,0,0-.3-.78.63.63,0,0,0-.59-.24.64.64,0,0,0-.52.38,1.44,1.44,0,0,0-.09.83,1.46,1.46,0,0,0,.3.78A.61.61,0,0,0,85.36,125.44Z" transform="translate(0 0)"/><path class="cls-25" d="M88.43,122.6l.31,0L88,125.29l-.34,0-1.31-2.47.37,0,1.09,2.06Z" transform="translate(0 0)"/><path class="cls-25" d="M89.37,125.12,89,122.53l1.46-.19,0,.28-1.13.15.11.82,1-.13,0,.26-1,.12.12,1,1.21-.15,0,.28Z" transform="translate(0 0)"/><path class="cls-25" d="M91.33,124.87,91,122.28l.71-.09a1.61,1.61,0,0,1,.79,0,.94.94,0,0,1,.43.39,1.65,1.65,0,0,1,.22.69,1.73,1.73,0,0,1,0,.69,1,1,0,0,1-.32.51,1.34,1.34,0,0,1-.71.26Zm.31-.33.39-.05a1.22,1.22,0,0,0,.53-.17.68.68,0,0,0,.23-.36,1.35,1.35,0,0,0,0-.58,2,2,0,0,0-.16-.56.69.69,0,0,0-.32-.33,1,1,0,0,0-.57,0l-.39,0Z" transform="translate(0 0)"/><path class="cls-25" d="M76.24,128.42a.2.2,0,1,1-.22-.17A.19.19,0,0,1,76.24,128.42Z" transform="translate(0 0)"/><path class="cls-25" d="M78.9,128.08a.19.19,0,0,1-.17.22.19.19,0,0,1-.22-.17.19.19,0,0,1,.17-.22A.2.2,0,0,1,78.9,128.08Z" transform="translate(0 0)"/><path class="cls-25" d="M77.57,128.25a.2.2,0,1,1-.22-.17A.19.19,0,0,1,77.57,128.25Z" transform="translate(0 0)"/><path class="cls-25" d="M80.23,127.92a.21.21,0,0,1-.17.22.2.2,0,0,1-.22-.18.2.2,0,0,1,.17-.22A.21.21,0,0,1,80.23,127.92Z" transform="translate(0 0)"/><path class="cls-25" d="M81.56,127.75a.21.21,0,0,1-.17.22.2.2,0,0,1-.22-.17.19.19,0,0,1,.17-.22A.19.19,0,0,1,81.56,127.75Z" transform="translate(0 0)"/><path class="cls-25" d="M84.21,127.41a.19.19,0,0,1-.17.22.21.21,0,0,1-.22-.17.2.2,0,0,1,.18-.22A.19.19,0,0,1,84.21,127.41Z" transform="translate(0 0)"/><path class="cls-25" d="M82.89,127.58a.21.21,0,0,1-.17.22.19.19,0,0,1-.22-.17.19.19,0,0,1,.17-.22A.2.2,0,0,1,82.89,127.58Z" transform="translate(0 0)"/><path class="cls-25" d="M85.54,127.24a.19.19,0,0,1-.17.22.2.2,0,0,1-.22-.17.21.21,0,0,1,.17-.22A.2.2,0,0,1,85.54,127.24Z" transform="translate(0 0)"/><path class="cls-25" d="M86.88,127.08a.21.21,0,0,1-.17.22.2.2,0,1,1-.06-.4A.22.22,0,0,1,86.88,127.08Z" transform="translate(0 0)"/><path class="cls-25" d="M89.53,126.74a.19.19,0,0,1-.17.22.2.2,0,1,1,0-.39A.19.19,0,0,1,89.53,126.74Z" transform="translate(0 0)"/><path class="cls-25" d="M88.21,126.91a.21.21,0,0,1-.18.22.2.2,0,1,1,0-.39A.2.2,0,0,1,88.21,126.91Z" transform="translate(0 0)"/><path class="cls-25" d="M90.86,126.57a.19.19,0,0,1-.17.22.19.19,0,0,1-.22-.17.2.2,0,0,1,.17-.22A.19.19,0,0,1,90.86,126.57Z" transform="translate(0 0)"/><path class="cls-25" d="M92.19,126.4a.2.2,0,0,1-.39,0,.2.2,0,1,1,.39,0Z" transform="translate(0 0)"/><path class="cls-25" d="M93.52,126.23a.21.21,0,0,1-.17.23.2.2,0,0,1-.22-.17.21.21,0,0,1,.17-.23A.2.2,0,0,1,93.52,126.23Z" transform="translate(0 0)"/><path class="cls-21" d="M213.77,81.52c-.22.88-.63,1.4-1.25,1.55-1.59.39-4.35.9-8.3,1.54q-.74,9.15-.73,15.24c0,1.54,0,3.06.07,4.56a3.24,3.24,0,0,1-.07,1.06.67.67,0,0,1-.74.55,2.26,2.26,0,0,1-1.76-.9,3.41,3.41,0,0,1-.77-1.93c-.05-.9-.07-1.86-.07-2.86q0-2.43.33-7.68c.22-3.35.31-5.91.29-7.68a14.27,14.27,0,0,0-2.75.19,22.2,22.2,0,0,1-2.79.29,4.41,4.41,0,0,1-2.94-1,10.77,10.77,0,0,1-.44-1,.85.85,0,0,1,.25-.55,24.75,24.75,0,0,1,4.81-.75A13.32,13.32,0,0,0,201.69,81a9.18,9.18,0,0,0,2.94.44,12.17,12.17,0,0,0,3.16-.41,17.58,17.58,0,0,0,2.24-.51,6.25,6.25,0,0,1,2.2-.22c.44,0,.63.19.55.55Q213.77,80.86,213.77,81.52Z" transform="translate(0 0)"/><path class="cls-21" d="M223.84,104.66a.57.57,0,0,1,.11.33c0,.57-.59,1-1.76,1.29a43.49,43.49,0,0,1-4.85-4.63c-2.16-2.33-3.76-3.94-4.81-4.85-.08.64-.21,2.31-.41,5a25.43,25.43,0,0,1-.66,4.85,2,2,0,0,0-.46.18.94.94,0,0,1-.64.11,2,2,0,0,1-1.62-2.24,9.55,9.55,0,0,1,.15-1.47q.15-1.07.18-1.32c.1-1.42.16-3.11.19-5.07v-4a53.86,53.86,0,0,1,.55-8.42c.24-1.51,1.68-2.21,4.3-2.09a4.51,4.51,0,0,1,3.45,2,6.19,6.19,0,0,1,1.36,3.83,5.74,5.74,0,0,1-1.29,3.45A8,8,0,0,1,214.91,94q-.66.38-.66.81c0,.32.26.7.77,1.14l1.18,1s1.37,1.25,4,3.68A18.44,18.44,0,0,1,223.84,104.66Zm-7.75-16.49a4.87,4.87,0,0,0,.07-1.17,2.72,2.72,0,0,0-.64-1.4,2.13,2.13,0,0,0-1.71-.63c-.59,0-.95.19-1.1.56a10.92,10.92,0,0,0-.18,2.09c0,.32,0,1.14.11,2.46q.06,1.52,0,2.46Q215.69,90.28,216.09,88.17Z" transform="translate(0 0)"/><path class="cls-21" d="M235.19,102.64a3.18,3.18,0,0,1,.22,1,1.68,1.68,0,0,1-.63,1.29c-.41.36-.7.53-.84.51-1.2-.22-2-1.19-2.28-2.9a28.65,28.65,0,0,0-1.21-4.67l-2.5.23a4.12,4.12,0,0,0-2.24.88c-.27.76-.62,2.1-1.07,4a26.42,26.42,0,0,1-1.21,4.07c-.19.44-.61.57-1.25.37-.8-.27-1.23-.64-1.28-1.1a9,9,0,0,1,.81-3.75,15.93,15.93,0,0,0,1.21-3.82c0-.22-.14-.46-.48-.73s-.51-.48-.51-.63a.59.59,0,0,1,.16-.38,1.42,1.42,0,0,1,.77-.33c.41-.09.63-.22.68-.39q.66-1.83,2.1-6.83a62.55,62.55,0,0,1,2.16-6.65.9.9,0,0,1,.92-.51,1.42,1.42,0,0,1,.92.33A4.22,4.22,0,0,1,231,85.34c.15,1,.28,2,.41,3A114.2,114.2,0,0,0,235.19,102.64Zm-5.37-7a23.54,23.54,0,0,0-.47-3c-.25-1-.48-2-.7-2.94-.74,2-1.37,4.07-1.91,6.1A22.9,22.9,0,0,1,229.82,95.63Z" transform="translate(0 0)"/><path class="cls-21" d="M252.78,83.32a90.25,90.25,0,0,0-4.08,10,64.63,64.63,0,0,0-1.83,7.16,50.72,50.72,0,0,1-2,7.24,1,1,0,0,1-.77.37,2.59,2.59,0,0,1-1.32-.56,83,83,0,0,1-3.34-11.24A64.76,64.76,0,0,0,235.85,85c.32-.61.59-.91.81-.91a1.11,1.11,0,0,1,.58-.19A4.61,4.61,0,0,1,239.3,85a55.93,55.93,0,0,1,2.54,7.39q.94,3.78,1.94,7.53c.91-3,1.81-6,2.72-9a79.2,79.2,0,0,1,3.3-8.74,1.56,1.56,0,0,1,1.92-.63.94.94,0,0,1,.36.28.82.82,0,0,0,.55.26c.22,0,.33.19.33.53A1.61,1.61,0,0,1,252.78,83.32Z" transform="translate(0 0)"/><path class="cls-21" d="M266.11,86a38.43,38.43,0,0,1-4,1.29,38.88,38.88,0,0,0-4,1.28,18.77,18.77,0,0,0-.48,4.26,3.77,3.77,0,0,0,1.36.22,12.74,12.74,0,0,0,1.72-.18,12.85,12.85,0,0,1,1.73-.18,3.29,3.29,0,0,1,1.76.44,2.47,2.47,0,0,1,.52,1,.47.47,0,0,1-.26.41A3.45,3.45,0,0,0,264,95a.84.84,0,0,1-.74.29,14.5,14.5,0,0,1-2.83.22,8.23,8.23,0,0,0-2.75.45,18.14,18.14,0,0,0-.7,4.29,4.11,4.11,0,0,0,.29,1.69c1.16.81,3.15,1.15,6,1a1,1,0,0,0,.63-.28.93.93,0,0,1,.55-.27c.68-.15,1.13.37,1.36,1.54a1.49,1.49,0,0,1-.21,1.09,1.09,1.09,0,0,1-.9.53,27.45,27.45,0,0,1-7.71-.7,3.83,3.83,0,0,1-1.87-1.14,3.25,3.25,0,0,1-1-2,24.87,24.87,0,0,1,0-5.73c-.68-.46-1-.92-.92-1.36,0-.22.22-.42.57-.61s.56-.37.61-.57.14-1.35.29-3.48c-1.37-.27-2-.79-2-1.55a2,2,0,0,1,1.29-1.69l2.35-1a16.42,16.42,0,0,1,3.42-1.25c1.19-.32,2.39-.63,3.59-.92a2.76,2.76,0,0,1,.44,0,4.79,4.79,0,0,1,2.32.77c0,.1.09.29.18.55a2.06,2.06,0,0,1,.15.59A.56.56,0,0,1,266.11,86Z" transform="translate(0 0)"/><path class="cls-21" d="M277.54,100.15c-.05,0-1.49,1-4.3,3.07a25.83,25.83,0,0,1-4.37,2.62,1.06,1.06,0,0,1-.44.11,1.21,1.21,0,0,1-1-.66c-.44-.59-.67-.9-.7-.92,0-2.16.09-5.16.41-9,.37-4.09.55-7,.55-8.86,0-1.25-.05-2.43-.15-3.53a1.64,1.64,0,0,1,1.21-.48c.93,0,1.47.34,1.62,1,.07,2,0,5-.26,9s-.34,7-.29,9a18.15,18.15,0,0,0,2.68-1.54,25.22,25.22,0,0,1,2.61-1.65,4.85,4.85,0,0,0,.64-.08,4.53,4.53,0,0,1,.68-.07,1.14,1.14,0,0,1,1.07.59A1.16,1.16,0,0,1,277.54,100.15Z" transform="translate(0 0)"/><path class="cls-21" d="M225.74,48.77a1.61,1.61,0,0,1-1.09,1.35c-1.39.34-3.81.8-7.26,1.35q-.64,8-.64,13.33,0,2,.06,4a3.12,3.12,0,0,1-.06.93.59.59,0,0,1-.64.48,2,2,0,0,1-1.55-.79,3,3,0,0,1-.67-1.68c0-.8-.07-1.63-.07-2.51q0-2.11.29-6.71c.2-2.94.28-5.18.26-6.72A12,12,0,0,0,212,52a18.74,18.74,0,0,1-2.44.26,3.84,3.84,0,0,1-2.57-.84c-.26-.56-.39-.85-.39-.88a.76.76,0,0,1,.23-.48,21.14,21.14,0,0,1,4.21-.65,11.51,11.51,0,0,0,4.17-1,7.84,7.84,0,0,0,2.57.39,10.89,10.89,0,0,0,2.77-.35,16.4,16.4,0,0,0,2-.45,5.41,5.41,0,0,1,1.93-.2c.39,0,.55.16.49.49C225.45,48.2,225.74,48.39,225.74,48.77Z" transform="translate(0 0)"/><path class="cls-21" d="M225.1,52.53c0,.62.06,1.27.06,1.93q0,2.19-.45,6.58t-.45,6.65c0,.56,0,1.11,0,1.64a1.16,1.16,0,0,1-1.26.87c-.92,0-1.42-.44-1.51-1.19a22.42,22.42,0,0,1-.12-2.38,57.29,57.29,0,0,1,.53-6.52,58.93,58.93,0,0,0,.52-6.49c0-.55,0-1.1-.06-1.63a1.12,1.12,0,0,1,1.09-.61,2.34,2.34,0,0,1,1.22.35.36.36,0,0,1,.2-.1c.06,0,.09.11.09.32a1.47,1.47,0,0,0,0,.45A.2.2,0,0,0,225.1,52.53Z" transform="translate(0 0)"/><path class="cls-21" d="M242.74,69.33c.08.43-.23.67-.94.71a2.07,2.07,0,0,1-1.44-.61,3.74,3.74,0,0,1-1-1.77,13.88,13.88,0,0,1-.38-3.18,23.17,23.17,0,0,0-.23-3.18c-.28,1-.73,2.4-1.38,4.31-.38,1-.62,1.64-.7,1.79q-.52,1-1.29.9A3.61,3.61,0,0,1,233,66.57a10.89,10.89,0,0,1-1-2.86,18.44,18.44,0,0,0-.87-2.89,46.43,46.43,0,0,1-3,10q-.23.48-1.35-.06a1.4,1.4,0,0,1-.93-1.29,11.6,11.6,0,0,1,.68-2q.28-.78,2.25-7.42a60.57,60.57,0,0,0,1.41-8.13,4,4,0,0,0,.32-.68.59.59,0,0,1,.58-.44,2.12,2.12,0,0,1,1.51.41,24,24,0,0,0,.3,3,22.48,22.48,0,0,1,.31,3.13q.28,1.8.54,3.63a8.25,8.25,0,0,0,1.29,3.37A84.05,84.05,0,0,0,239,50.77c.08-.35.41-.52,1-.52.79,0,1.24.26,1.35.77a14.05,14.05,0,0,1,.23,2.67c0,.32,0,1-.07,2.12,0,.88,0,1.59,0,2.15A71.25,71.25,0,0,0,242.74,69.33Z" transform="translate(0 0)"/><path class="cls-21" d="M255.36,52.72a32.59,32.59,0,0,1-3.5,1.13,35.53,35.53,0,0,0-3.5,1.12,16,16,0,0,0-.42,3.73,3.34,3.34,0,0,0,1.19.19,10.55,10.55,0,0,0,1.51-.16,12.09,12.09,0,0,1,1.51-.16,2.91,2.91,0,0,1,1.54.39,2.16,2.16,0,0,1,.45.83.39.39,0,0,1-.23.35s-.19.18-.45.45a.71.71,0,0,1-.64.26,13.22,13.22,0,0,1-2.47.19,7.24,7.24,0,0,0-2.41.39,15.91,15.91,0,0,0-.61,3.76,3.59,3.59,0,0,0,.25,1.48q1.51,1,5.24.9a.93.93,0,0,0,.55-.25.82.82,0,0,1,.48-.24c.6-.12,1,.32,1.19,1.35a1.31,1.31,0,0,1-.18.95,1,1,0,0,1-.79.47,24.27,24.27,0,0,1-6.74-.61,3.44,3.44,0,0,1-1.64-1,2.85,2.85,0,0,1-.83-1.74,20.92,20.92,0,0,1,0-5c-.61-.4-.87-.8-.81-1.18,0-.2.19-.37.5-.53s.49-.33.53-.5.13-1.19.26-3.05q-1.8-.36-1.77-1.35a1.73,1.73,0,0,1,1.12-1.48l2.06-.84a15.59,15.59,0,0,1,3-1.09c1-.28,2.1-.54,3.14-.8a2.21,2.21,0,0,1,.39,0,4.13,4.13,0,0,1,2,.67c0,.09.08.25.17.48a1.88,1.88,0,0,1,.12.52A.47.47,0,0,1,255.36,52.72Z" transform="translate(0 0)"/><path class="cls-21" d="M245.39,71.39c-.11.42-.3.66-.59.73-.76.19-2.08.43-4,.74q-.34,4.35-.35,7.24c0,.74,0,1.46,0,2.17a1.49,1.49,0,0,1,0,.51.32.32,0,0,1-.35.26,1.09,1.09,0,0,1-.84-.43,1.58,1.58,0,0,1-.36-.92c0-.43,0-.88,0-1.36,0-.77.05-2,.16-3.65s.15-2.81.14-3.65a6.78,6.78,0,0,0-1.31.09,11.65,11.65,0,0,1-1.33.14,2.09,2.09,0,0,1-1.4-.46c-.14-.3-.21-.46-.21-.47a.45.45,0,0,1,.13-.27,12.07,12.07,0,0,1,2.28-.35,6.42,6.42,0,0,0,2.27-.56,4.34,4.34,0,0,0,1.4.21,5.6,5.6,0,0,0,1.5-.2,8.55,8.55,0,0,0,1.07-.24,3,3,0,0,1,1-.11c.21,0,.29.09.26.27C245.23,71.08,245.39,71.18,245.39,71.39Z" transform="translate(0 0)"/><path class="cls-21" d="M249,78.5a4.32,4.32,0,0,1-2.92,2.75,1.74,1.74,0,0,1-.45.06,2.82,2.82,0,0,1-2-1.08,2.68,2.68,0,0,1-.68-1.91,6,6,0,0,1,.77-2.77,4.21,4.21,0,0,1,.8-1.09,1.51,1.51,0,0,1,1-.54.79.79,0,0,1,.52.21,4.69,4.69,0,0,0,1.31.56,2,2,0,0,1,1.19.94,4.51,4.51,0,0,1,.61,2A2.16,2.16,0,0,1,249,78.5Zm-1.4-1.09c-.08-.85-.31-1.35-.68-1.51a.34.34,0,0,0-.16,0c-.14,0-.31.12-.52.35a1.71,1.71,0,0,1-.54.47c-.09,0-.2,0-.35-.1a.77.77,0,0,0-.3-.16.11.11,0,0,0-.09,0,2,2,0,0,0-.61,1.62,2.26,2.26,0,0,0,.35,1.27c.33.48.6.72.82.72a2,2,0,0,0,1.49-1A2.43,2.43,0,0,0,247.59,77.41Z" transform="translate(0 0)"/><path class="cls-26" d="M167.86,34l.14.3a23.48,23.48,0,0,0,6.66,0c2.47-.56-5.86-5.71-6.43-5.07S167.86,34,167.86,34Z" transform="translate(0 0)"/><path class="cls-27" d="M167.32,31.76c-.06,1.38.24,2.53.68,2.55s.84-1.09.91-2.48-.24-2.53-.68-2.55S167.39,30.37,167.32,31.76Z" transform="translate(0 0)"/><path class="cls-28" d="M167.61,31.77c-.05,1.14.2,2.07.55,2.09s.7-.89.75-2-.2-2.08-.56-2.09S167.66,30.63,167.61,31.77Z" transform="translate(0 0)"/><path class="cls-29" d="M170,32.51a9.15,9.15,0,0,1-2.11-3c.11-.16.23-.25.36-.24.57-.64,8.9,4.51,6.43,5.07a12.49,12.49,0,0,1-2.68.24C171.31,33.9,170.62,33.23,170,32.51Z" transform="translate(0 0)"/><path class="cls-30" d="M167.37,16.23s11.3-2.93,14-2-3.19,5.83-3.76,6.27S167.37,16.23,167.37,16.23Z" transform="translate(0 0)"/><path class="cls-31" d="M170.22,15.54c1.45.37,2.93.63,4.39,1s2.71.64,4,1q.85.24,1.68.54a29.26,29.26,0,0,1-2.7,2.48c-.58.43-10.26-4.31-10.26-4.31S168.54,15.92,170.22,15.54Z" transform="translate(0 0)"/><path class="cls-30" d="M144.93,21.33s-1.07-3.41,2.79-3.85,4.08-.7,4.08-.7A10,10,0,0,1,160,13.73c5,.59,32.53,8.55,32.53,8.55S204.3,25,204.12,26.16s-3.5,3.61-6.07,3.34-26.62-.25-36.4-1.85S145.64,23.32,144.93,21.33Z" transform="translate(0 0)"/><path class="cls-31" d="M152.34,16.49l-.46.2a9.45,9.45,0,0,1,1.19-1A1.69,1.69,0,0,1,152.34,16.49Z" transform="translate(0 0)"/><path class="cls-31" d="M147.72,17.48c1.75-.19,2.75-.36,3.32-.48l-.41.14a10.59,10.59,0,0,0-3.54,1.59,1.47,1.47,0,0,0-.61,1.52,3,3,0,0,0,1.24,1.45,14,14,0,0,0,2.1,1.18,38.7,38.7,0,0,0,6.73,2.38A81.3,81.3,0,0,0,165.73,27q5,.72,10,1.19c3.49.31,7,.47,10.47.57,1.71,0,3.43.07,5.14.22a18.93,18.93,0,0,0,4.51.14.11.11,0,0,0,.06-.18,3.3,3.3,0,0,1-.31-.51c1.94-.28,7.75-.39,7.94-2.86.38.21.58.39.56.55-.18,1.13-3.5,3.61-6.07,3.34s-26.62-.25-36.4-1.85-16-4.33-16.72-6.32C144.93,21.33,143.86,17.92,147.72,17.48Z" transform="translate(0 0)"/><path class="cls-32" d="M203,25.93c-.29.59-1.35.3-1.84.23A48.61,48.61,0,0,1,193.6,24,5.7,5.7,0,0,1,191.79,23c-.24-.28,0-.58.24-.82l.48.14a89.61,89.61,0,0,1,10.47,3A.76.76,0,0,1,203,25.93Z" transform="translate(0 0)"/><path class="cls-32" d="M196.18,26.44a9.74,9.74,0,0,1,1.79-.05,11.49,11.49,0,0,1,1.66,0,3.71,3.71,0,0,1,2.29,2,6.6,6.6,0,0,1-3.87,1.11c-.38,0-1.26-.07-2.49-.1C195.2,28.1,195,26.63,196.18,26.44Z" transform="translate(0 0)"/><path class="cls-32" d="M167,26a4.58,4.58,0,0,1,2.26-.67,13.89,13.89,0,0,1,2.58-.06c.86.06,1.7.2,2.55.33a7.63,7.63,0,0,1,1.9.38c1.14.48,1.63,1.74,2,2.92-4.36-.17-8.75-.41-12.37-.76A3.15,3.15,0,0,1,167,26Z" transform="translate(0 0)"/><path class="cls-30" d="M172,24.93s5.1,0,5.34,2.09,1.49,10-.79,9.78-8.44-6.22-9.25-9.08S169.83,24.75,172,24.93Z" transform="translate(0 0)"/><path class="cls-31" d="M167.25,27.72c.81,2.86,7,8.91,9.25,9.08s1-7.68.79-9.78S172,24.93,172,24.93C169.83,24.75,166.43,24.87,167.25,27.72Zm3-2.09a6.58,6.58,0,0,1,2.72-.37,6.83,6.83,0,0,1,3,.6,5,5,0,0,1,.7,1.46,24.45,24.45,0,0,1,.75,4.58c.05.81.23,2-.44,2.65-.4.36-1,.12-1.39-.11a12.59,12.59,0,0,1-3.48-3.64A22.59,22.59,0,0,1,170.36,28C170,27.34,169.29,26.1,170.26,25.63Z" transform="translate(0 0)"/><path class="cls-30" d="M192.61,23.36s-1.47-.47-.68-1,7.72-7.58,7.72-7.58a1.26,1.26,0,0,1,1.32-.23c.9.26,3.37.94,2.71,2.66s-2.54,6-2.14,6.7,1.46,1.6.56,2S194.37,24.39,192.61,23.36Z" transform="translate(0 0)"/><path class="cls-33" d="M197.14,20.27c-.64-.31-1.31-.63-2-.91,1.21-1.21,2.51-2.51,3.4-3.42A13.36,13.36,0,0,1,201,19.67c.31.73.62,1.51.89,2.32a5.87,5.87,0,0,0-.37,1.66A13,13,0,0,0,197.14,20.27Z" transform="translate(0 0)"/><path class="cls-31" d="M191.93,22.38c.8-.52,7.72-7.58,7.72-7.58a1.26,1.26,0,0,1,1.32-.23c.27.08.69.2,1.12.37a2,2,0,0,0-1.32.42,10.49,10.49,0,0,0-2.42,3.18c-.34.63-.65,1.27-1,1.89a7.49,7.49,0,0,0-.72,1.41c-.31,1.06.36,1.71,1.21,2.25a6.69,6.69,0,0,0,3,1.12c.27,0,.58,0,.73-.24a.54.54,0,0,0-.14-.61l-.31-.25c-.35-.31-.16-.62-.06-.93a5.56,5.56,0,0,1,.35-.88,11.5,11.5,0,0,1,.83-1.34c-.5,1.38-.87,2.62-.67,3,.41.69,1.46,1.6.56,2s-7.73-1.51-9.49-2.54C192.61,23.36,191.14,22.89,191.93,22.38Z" transform="translate(0 0)"/><path class="cls-30" d="M195.81,27.25s-.9-1.13,2.79-1c0,0,1.14-.33,2.18,1.12s3.51,4.89,2,5.27S197.08,29.58,195.81,27.25Z" transform="translate(0 0)"/><path class="cls-31" d="M195.81,27.25c1.27,2.33,5.38,5.76,6.93,5.38s-.92-3.82-2-5.27-2.18-1.12-2.18-1.12C194.91,26.12,195.81,27.25,195.81,27.25Zm2-.29a1.45,1.45,0,0,1,1.53-.39h0a1.59,1.59,0,0,1,.51.23l0,0a4.28,4.28,0,0,1,1.27,1.37,28.73,28.73,0,0,1,1.7,2.94.11.11,0,0,1-.08.15c-.54.15-1.2-.49-1.57-.79-.74-.59-1.52-1.13-2.21-1.77C198.72,28.51,197.4,27.47,197.78,27Z" transform="translate(0 0)"/><path class="cls-34" d="M158.45,16.15c2.71,1.11,4.9,1.82,4.26,3.77S161.63,23,159,22.37s-7.39-3.58-7.4-5.51c.18-.05.2-.08.2-.08a10.28,10.28,0,0,1,4.09-2.61C156.09,14.64,156.69,15.43,158.45,16.15Z" transform="translate(0 0)"/><path class="cls-28" d="M158.24,16.24c2.58,1.05,4.66,1.73,4,3.59s-1,2.93-3.53,2.33-7-3.41-7-5.25c.17-.05.19-.08.19-.08a9.74,9.74,0,0,1,3.89-2.48A4.22,4.22,0,0,0,158.24,16.24Z" transform="translate(0 0)"/><g class="cls-13"><path class="cls-28" d="M154,19.81c-1.32-1-2.33-2-2.33-2.9.17-.05.19-.08.19-.08a9.74,9.74,0,0,1,3.89-2.48,3.33,3.33,0,0,0,1.53,1.45C156.24,17.14,155.16,18.49,154,19.81Z" transform="translate(0 0)"/></g><path class="cls-34" d="M164.82,21.53a1.22,1.22,0,1,0,1-1.41A1.21,1.21,0,0,0,164.82,21.53Z" transform="translate(0 0)"/><path class="cls-35" d="M165.07,21.49a1,1,0,1,0,.79-1.11A1,1,0,0,0,165.07,21.49Z" transform="translate(0 0)"/><path class="cls-34" d="M174.1,22.91a1.22,1.22,0,0,0,1.41,1,1.22,1.22,0,1,0-1.41-1Z" transform="translate(0 0)"/><path class="cls-35" d="M174.36,22.87a1,1,0,0,0,1.11.79,1,1,0,0,0-.33-1.9A1,1,0,0,0,174.36,22.87Z" transform="translate(0 0)"/><path class="cls-34" d="M178.75,23.66a1.22,1.22,0,1,0,1-1.41A1.22,1.22,0,0,0,178.75,23.66Z" transform="translate(0 0)"/><path class="cls-35" d="M179,23.63a1,1,0,0,0,1.9-.33,1,1,0,0,0-1.12-.78A1,1,0,0,0,179,23.63Z" transform="translate(0 0)"/><path class="cls-34" d="M183.42,24.53a1.22,1.22,0,1,0,1-1.41A1.23,1.23,0,0,0,183.42,24.53Z" transform="translate(0 0)"/><path class="cls-35" d="M183.68,24.5a1,1,0,1,0,.79-1.12A1,1,0,0,0,183.68,24.5Z" transform="translate(0 0)"/><path class="cls-34" d="M188.66,25.25a1.11,1.11,0,0,0,2.19-.38,1.11,1.11,0,1,0-2.19.38Z" transform="translate(0 0)"/><path class="cls-35" d="M188.89,25.22a.88.88,0,0,0,1.73-.3.88.88,0,1,0-1.73.3Z" transform="translate(0 0)"/><path class="cls-34" d="M169.46,22.23a1.22,1.22,0,1,0,1-1.41A1.22,1.22,0,0,0,169.46,22.23Z" transform="translate(0 0)"/><path class="cls-35" d="M169.72,22.2a1,1,0,1,0,.78-1.11A1,1,0,0,0,169.72,22.2Z" transform="translate(0 0)"/><path class="cls-36" d="M202.72,15.51s1.16.6.37,2.14-2.57,5.75-2.57,5.75-.34.62-.37.06,2.53-5.78,2.55-6.36a2.8,2.8,0,0,0-.41-1.52C202.17,15.56,202.44,15.29,202.72,15.51Z" transform="translate(0 0)"/><path class="cls-36" d="M156.39,14.24a12.94,12.94,0,0,1,5.16-.05C164,14.77,190.63,22,190.63,22s.91.23.06.33S164,15.52,164,15.52s-4.86-1-6.22,0A3.52,3.52,0,0,1,156.39,14.24Z" transform="translate(0 0)"/><path class="cls-37" d="M160,17a6.64,6.64,0,0,1,.71.33c-.6,1.64-1.34,3.24-2.08,4.83a9.48,9.48,0,0,1-1.25-.44C158.19,20.09,159.1,18.53,160,17Z" transform="translate(0 0)"/><path class="cls-21" d="M269.81,45.7c-3-4.05-7.74-7.32-11.65-9.57-6.29-3.62-13.74-5.23-20.75-6.79A93.87,93.87,0,0,0,225,27.47c-3.7-.33-7.77.7-11.49.87-.19,0-.49.46-.21.46,4.25,0,8.61-.72,12.85-.29a97.57,97.57,0,0,1,14,2.7c9,2.25,17.43,5.27,24.39,11.55a24.57,24.57,0,0,1,2.56,2.74c-2.89,0-5.07.93-5.68,4.08-.86,4.43,5,6.18,8.43,6.12,2.93-.06,2.84-3.69,2.24-5.56a14.26,14.26,0,0,0-1-2.38c4.75,1.52,6.58,7.41,7.59,11.77,1.46,6.28.3,11.56-2,17.45-.47,1.2,1,.52,1.31-.1C283.09,67.26,283,47.88,269.81,45.7ZM268.4,54A8.42,8.42,0,0,1,263.14,51q.09-4.19,3-3.81a19.8,19.8,0,0,1,2.43.14l0,.06C269,47.79,274.09,55.12,268.4,54Z" transform="translate(0 0)"/></g></g></svg>