<svg id="Layer_1" data-name="Layer 1" xmlns="http://www.w3.org/2000/svg" xmlns:xlink="http://www.w3.org/1999/xlink" viewBox="0 0 2600 1565.2"><defs><style>.cls-1,.cls-3,.cls-44,.cls-6,.cls-7,.cls-75{opacity:0.42;}.cls-1{fill:url(#linear-gradient);}.cls-2{opacity:0.21;fill:url(#linear-gradient-2);}.cls-3{fill:url(#linear-gradient-3);}.cls-4{fill:url(#linear-gradient-4);}.cls-5{fill:url(#linear-gradient-5);}.cls-6{fill:url(#linear-gradient-6);}.cls-7{fill:url(#linear-gradient-7);}.cls-8{fill:url(#linear-gradient-8);}.cls-9{fill:url(#linear-gradient-9);}.cls-10{fill:url(#linear-gradient-10);}.cls-11{fill:#f88e00;}.cls-12{fill:url(#linear-gradient-11);}.cls-13{fill:url(#linear-gradient-12);}.cls-14{fill:url(#linear-gradient-13);}.cls-15{fill:#47b0aa;}.cls-16,.cls-78,.cls-79{fill:#fff;}.cls-16{opacity:0.4;}.cls-17{fill:url(#linear-gradient-14);}.cls-18{fill:url(#linear-gradient-15);}.cls-19,.cls-20{opacity:0.3;}.cls-19{fill:url(#linear-gradient-16);}.cls-20{fill:url(#linear-gradient-17);}.cls-21{fill:url(#linear-gradient-18);}.cls-22,.cls-23,.cls-24{fill:#ebf5ff;}.cls-23{opacity:0.25;}.cls-24{opacity:0.13;}.cls-25{fill:url(#linear-gradient-19);}.cls-26{fill:url(#linear-gradient-20);}.cls-27{fill:url(#linear-gradient-21);}.cls-28{fill:url(#linear-gradient-22);}.cls-29{fill:url(#linear-gradient-23);}.cls-30{fill:url(#linear-gradient-24);}.cls-31{fill:url(#linear-gradient-25);}.cls-32{fill:url(#linear-gradient-26);}.cls-33{fill:url(#linear-gradient-27);}.cls-34{fill:#38b3ef;}.cls-35{fill:url(#linear-gradient-28);}.cls-36{fill:url(#linear-gradient-29);}.cls-37{fill:url(#linear-gradient-30);}.cls-38{fill:url(#linear-gradient-31);}.cls-39{fill:url(#linear-gradient-32);}.cls-40{fill:url(#linear-gradient-33);}.cls-41{fill:url(#linear-gradient-34);}.cls-42{fill:url(#linear-gradient-35);}.cls-43{fill:url(#linear-gradient-36);}.cls-45{fill:url(#linear-gradient-37);}.cls-46{fill:url(#linear-gradient-38);}.cls-47{fill:url(#linear-gradient-39);}.cls-48{fill:url(#linear-gradient-40);}.cls-49{fill:url(#linear-gradient-41);}.cls-50{fill:url(#linear-gradient-42);}.cls-51{fill:url(#linear-gradient-43);}.cls-52{fill:url(#linear-gradient-44);}.cls-53{fill:url(#linear-gradient-45);}.cls-54{fill:url(#linear-gradient-46);}.cls-55{fill:url(#linear-gradient-47);}.cls-56{fill:url(#linear-gradient-48);}.cls-57{fill:url(#linear-gradient-49);}.cls-58{fill:url(#linear-gradient-50);}.cls-59{fill:url(#linear-gradient-51);}.cls-60{fill:url(#linear-gradient-52);}.cls-61{fill:url(#linear-gradient-53);}.cls-62{fill:url(#linear-gradient-54);}.cls-63{fill:url(#linear-gradient-55);}.cls-64{fill:url(#linear-gradient-56);}.cls-65{opacity:0.6;fill:url(#linear-gradient-57);}.cls-66{fill:url(#linear-gradient-58);}.cls-67{fill:#c7d9e9;}.cls-67,.cls-74{opacity:0.93;}.cls-68{fill:url(#linear-gradient-59);}.cls-69{fill:url(#linear-gradient-60);}.cls-70{fill:url(#linear-gradient-61);}.cls-71{fill:url(#linear-gradient-62);}.cls-72{fill:url(#linear-gradient-63);}.cls-73{fill:url(#linear-gradient-64);}.cls-74{fill:#aac3d6;}.cls-75{fill:url(#linear-gradient-65);}.cls-76{fill:url(#linear-gradient-66);}.cls-77{fill:#0c1368;}.cls-78{fill-rule:evenodd;}.cls-80{fill:url(#linear-gradient-67);}</style><linearGradient id="linear-gradient" y1="1303.21" x2="545.29" y2="1303.21" gradientUnits="userSpaceOnUse"><stop offset="0" stop-color="#5ca2ff"/><stop offset="1" stop-color="#84c2ff"/></linearGradient><linearGradient id="linear-gradient-2" x1="66.51" y1="159.34" x2="287.2" y2="159.34" xlink:href="#linear-gradient"/><linearGradient id="linear-gradient-3" x1="2353.42" y1="122.43" x2="2597.19" y2="122.43" xlink:href="#linear-gradient"/><linearGradient id="linear-gradient-4" x1="1356.58" y1="101.83" x2="2319.13" y2="1991.18" gradientUnits="userSpaceOnUse"><stop offset="0" stop-color="#fff"/><stop offset="1" stop-color="#d6e6ff"/></linearGradient><linearGradient id="linear-gradient-5" x1="2216.14" y1="1764.65" x2="2107.17" y2="1430.38" xlink:href="#linear-gradient-4"/><linearGradient id="linear-gradient-6" x1="1062.1" y1="1010.49" x2="1236.86" y2="1010.49" xlink:href="#linear-gradient"/><linearGradient id="linear-gradient-7" x1="1151.85" y1="1351.83" x2="1263.04" y2="1351.83" xlink:href="#linear-gradient"/><linearGradient id="linear-gradient-8" x1="1481.75" y1="1246.1" x2="1515.79" y2="1246.1" gradientTransform="matrix(0.97, 0.24, -0.24, 0.97, 249.61, -341.53)" gradientUnits="userSpaceOnUse"><stop offset="0" stop-color="#04287f"/><stop offset="1" stop-color="#02194f"/></linearGradient><linearGradient id="linear-gradient-9" x1="1307.74" y1="1285.08" x2="1430.31" y2="1515.02" gradientUnits="userSpaceOnUse"><stop offset="0.06" stop-color="#7028e4"/><stop offset="1" stop-color="#fa71cd"/></linearGradient><linearGradient id="linear-gradient-10" x1="1362.68" y1="1410.17" x2="1455.02" y2="1410.17" gradientTransform="matrix(1, 0, 0, 1, 0, 0)" xlink:href="#linear-gradient-8"/><linearGradient id="linear-gradient-11" x1="1442.17" y1="1188.36" x2="1502.48" y2="1188.36" xlink:href="#linear-gradient-8"/><linearGradient id="linear-gradient-12" x1="2229.64" y1="1126.73" x2="2328.74" y2="1126.73" gradientUnits="userSpaceOnUse"><stop offset="0" stop-color="#f15a29"/><stop offset="1" stop-color="#f7941d"/></linearGradient><linearGradient id="linear-gradient-13" x1="2297.74" y1="1229.53" x2="2374.92" y2="1229.53" gradientUnits="userSpaceOnUse"><stop offset="0" stop-color="#00c6fb"/><stop offset="1" stop-color="#2575fc"/></linearGradient><linearGradient id="linear-gradient-14" x1="2196.49" y1="1237.88" x2="2271.06" y2="1237.88" xlink:href="#linear-gradient-13"/><linearGradient id="linear-gradient-15" x1="2239.83" y1="1414.15" x2="2326.51" y2="1414.15" gradientTransform="matrix(1, 0, 0, 1, 0, 0)" xlink:href="#linear-gradient-8"/><linearGradient id="linear-gradient-16" x1="2256.79" y1="1374.99" x2="2325.72" y2="1374.99" gradientUnits="userSpaceOnUse"><stop offset="0" stop-color="#56d5ff"/><stop offset="1" stop-color="#37a4de"/></linearGradient><linearGradient id="linear-gradient-17" x1="2245.82" y1="1469.91" x2="2298.25" y2="1469.91" xlink:href="#linear-gradient-16"/><linearGradient id="linear-gradient-18" x1="1363.69" y1="778.25" x2="1766.57" y2="778.25" gradientTransform="translate(824.2)" gradientUnits="userSpaceOnUse"><stop offset="0" stop-color="#dcebf9"/><stop offset="1" stop-color="#a8bbde"/></linearGradient><linearGradient id="linear-gradient-19" x1="1440.83" y1="775.71" x2="1463.75" y2="775.71" gradientTransform="translate(824.2)" xlink:href="#linear-gradient-8"/><linearGradient id="linear-gradient-20" x1="13445.92" y1="1002.99" x2="13652.94" y2="1002.99" gradientTransform="matrix(-1, 0, 0, 1, 15562.22, 0)" xlink:href="#linear-gradient-8"/><linearGradient id="linear-gradient-21" x1="13428.29" y1="838.52" x2="13604.61" y2="838.52" gradientTransform="matrix(1, 0, 0, -1, -11470.68, 1677.05)" xlink:href="#linear-gradient-8"/><linearGradient id="linear-gradient-22" x1="13441.41" y1="970.39" x2="13482.25" y2="1483.69" gradientTransform="matrix(-1, 0, 0, 1, 15562.22, 0)" gradientUnits="userSpaceOnUse"><stop offset="0" stop-color="#6a85b6"/><stop offset="1" stop-color="#bac8e0"/></linearGradient><linearGradient id="linear-gradient-23" x1="13615.89" y1="1136.16" x2="13540.82" y2="1434.24" xlink:href="#linear-gradient-22"/><linearGradient id="linear-gradient-24" x1="13498.73" y1="861.96" x2="13492.72" y2="1051.66" gradientTransform="matrix(-1, 0, 0, 1, 15562.22, 0)" xlink:href="#linear-gradient-16"/><linearGradient id="linear-gradient-25" x1="13483.66" y1="829.04" x2="13505.74" y2="829.04" gradientTransform="matrix(-1, -0.01, -0.01, 1, 15567.37, 88.65)" gradientUnits="userSpaceOnUse"><stop offset="0" stop-color="#e9b6bc"/><stop offset="1" stop-color="#f8e6ea"/></linearGradient><linearGradient id="linear-gradient-26" x1="13438.08" y1="790.55" x2="13520.09" y2="790.55" gradientTransform="matrix(-1, 0, 0, 1, 15562.22, 0)" xlink:href="#linear-gradient-25"/><linearGradient id="linear-gradient-27" x1="13422.5" y1="756" x2="13529.25" y2="756" gradientTransform="matrix(-1, 0, 0, 1, 15562.22, 0)" gradientUnits="userSpaceOnUse"><stop offset="0" stop-color="#651a17"/><stop offset="1" stop-color="#400d0a"/></linearGradient><linearGradient id="linear-gradient-28" x1="13308.93" y1="815.35" x2="13348.93" y2="815.35" gradientTransform="matrix(-1, 0, 0, 1, 15562.22, 0)" xlink:href="#linear-gradient-25"/><linearGradient id="linear-gradient-29" x1="13523.23" y1="1076.76" x2="13562.47" y2="1076.76" gradientTransform="matrix(-1, 0, 0, 1, 15562.22, 0)" xlink:href="#linear-gradient-25"/><linearGradient id="linear-gradient-30" x1="13516.45" y1="1086.47" x2="13549" y2="1086.47" gradientTransform="matrix(-1, 0, 0, 1, 15562.22, 0)" xlink:href="#linear-gradient-8"/><linearGradient id="linear-gradient-31" x1="13512.28" y1="996.75" x2="13572.61" y2="875.5" gradientTransform="matrix(-1, 0, 0, 1, 15562.22, 0)" xlink:href="#linear-gradient-8"/><linearGradient id="linear-gradient-32" x1="13409.99" y1="990.74" x2="13473.6" y2="862.92" gradientTransform="matrix(-1, 0, 0, 1, 15562.22, 0)" xlink:href="#linear-gradient-8"/><linearGradient id="linear-gradient-33" x1="-7077.11" y1="4818.08" x2="-7055.67" y2="4818.08" gradientTransform="matrix(0.85, 0.29, -0.33, 0.94, 9680.59, -934.58)" xlink:href="#linear-gradient-8"/><linearGradient id="linear-gradient-34" x1="-7106.78" y1="4844.64" x2="-7013.41" y2="4844.64" gradientTransform="matrix(0.85, 0.29, -0.33, 0.94, 9680.59, -934.58)" xlink:href="#linear-gradient-8"/><linearGradient id="linear-gradient-35" x1="-7245.35" y1="4868.62" x2="-7223.91" y2="4868.62" gradientTransform="matrix(0.85, 0.29, -0.33, 0.94, 9680.59, -934.58)" xlink:href="#linear-gradient-8"/><linearGradient id="linear-gradient-36" x1="-7275.02" y1="4895.19" x2="-7181.65" y2="4895.19" gradientTransform="matrix(0.85, 0.29, -0.33, 0.94, 9680.59, -934.58)" xlink:href="#linear-gradient-8"/><linearGradient id="linear-gradient-37" x1="1324.86" y1="897.44" x2="1354.08" y2="897.44" xlink:href="#linear-gradient"/><linearGradient id="linear-gradient-38" x1="1314.36" y1="873.52" x2="1363.88" y2="873.52" xlink:href="#linear-gradient"/><linearGradient id="linear-gradient-39" x1="1304.6" y1="857.73" x2="1373.64" y2="857.73" xlink:href="#linear-gradient"/><linearGradient id="linear-gradient-40" x1="1296.91" y1="842.38" x2="1381.33" y2="842.38" xlink:href="#linear-gradient"/><linearGradient id="linear-gradient-41" x1="1545.27" y1="746.62" x2="1578.54" y2="959.84" xlink:href="#linear-gradient-9"/><linearGradient id="linear-gradient-42" x1="1769.44" y1="1456.12" x2="1816.31" y2="1456.12" gradientTransform="matrix(1, 0, 0, 1, 0, 0)" xlink:href="#linear-gradient-25"/><linearGradient id="linear-gradient-43" x1="1786.84" y1="1502.16" x2="1887.81" y2="1502.16" xlink:href="#linear-gradient-9"/><linearGradient id="linear-gradient-44" x1="1825.53" y1="1486.94" x2="1846.83" y2="1486.94" gradientTransform="matrix(1, 0, 0, 1, 0, 0)" xlink:href="#linear-gradient-8"/><linearGradient id="linear-gradient-45" x1="1795.71" y1="1512.07" x2="1887.81" y2="1512.07" gradientTransform="matrix(1, 0, 0, 1, 0, 0)" xlink:href="#linear-gradient-8"/><linearGradient id="linear-gradient-46" x1="1544.28" y1="1506.16" x2="1568.08" y2="1506.16" gradientTransform="matrix(1, 0, 0, 1, 0, 0)" xlink:href="#linear-gradient-25"/><linearGradient id="linear-gradient-47" x1="1479.65" y1="1539.4" x2="1569.68" y2="1539.4" xlink:href="#linear-gradient-9"/><linearGradient id="linear-gradient-48" x1="1511.3" y1="1532.62" x2="1534.01" y2="1532.62" gradientTransform="matrix(1, 0, 0, 1, 0, 0)" xlink:href="#linear-gradient-8"/><linearGradient id="linear-gradient-49" x1="1477.76" y1="1559.34" x2="1569.19" y2="1559.34" gradientTransform="matrix(1, 0, 0, 1, 0, 0)" xlink:href="#linear-gradient-8"/><linearGradient id="linear-gradient-50" x1="1538.1" y1="801.45" x2="1499.4" y2="951.49" gradientUnits="userSpaceOnUse"><stop offset="0" stop-color="#7028e4"/><stop offset="1" stop-color="#fa71cd"/></linearGradient><linearGradient id="linear-gradient-51" x1="1547.66" y1="932.16" x2="1587.71" y2="932.16" gradientTransform="matrix(1, 0, 0, 1, 0, 0)" xlink:href="#linear-gradient-25"/><linearGradient id="linear-gradient-52" x1="1579.39" y1="795.71" x2="1647.93" y2="930.07" xlink:href="#linear-gradient-50"/><linearGradient id="linear-gradient-53" x1="1581.41" y1="929.94" x2="1614.73" y2="929.94" gradientTransform="matrix(1, 0, 0, 1, 0, 0)" xlink:href="#linear-gradient-25"/><linearGradient id="linear-gradient-54" x1="1571.04" y1="925.61" x2="1604.96" y2="925.61" gradientTransform="matrix(1, 0, 0, 1, 0, 0)" xlink:href="#linear-gradient-8"/><linearGradient id="linear-gradient-55" x1="1812.27" y1="987.12" x2="1629.83" y2="1291.69" gradientTransform="matrix(1, 0, 0, 1, 0, 0)" xlink:href="#linear-gradient-8"/><linearGradient id="linear-gradient-56" x1="1623.81" y1="475.13" x2="1780.22" y2="475.13" gradientUnits="userSpaceOnUse"><stop offset="0" stop-color="#cfe3f2"/><stop offset="1" stop-color="#eff4f8"/></linearGradient><linearGradient id="linear-gradient-57" x1="1610.01" y1="943.18" x2="1584.82" y2="598.9" xlink:href="#linear-gradient-56"/><linearGradient id="linear-gradient-58" x1="1499.06" y1="499.78" x2="1443.26" y2="799.71" xlink:href="#linear-gradient-4"/><linearGradient id="linear-gradient-59" x1="1734.48" y1="472.22" x2="1882.27" y2="791.88" xlink:href="#linear-gradient-4"/><linearGradient id="linear-gradient-60" x1="1484.36" y1="740.88" x2="1623.81" y2="740.88" gradientTransform="matrix(1, 0, 0, 1, 0, 0)" xlink:href="#linear-gradient-27"/><linearGradient id="linear-gradient-61" x1="1551.26" y1="803.53" x2="1571.99" y2="803.53" gradientTransform="matrix(1, 0, 0, 1, 0, 0)" xlink:href="#linear-gradient-25"/><linearGradient id="linear-gradient-62" x1="1521.8" y1="750.92" x2="1536.7" y2="761.05" gradientTransform="matrix(1, 0, 0, 1, 0, 0)" xlink:href="#linear-gradient-25"/><linearGradient id="linear-gradient-63" x1="1546.38" y1="794.99" x2="1571.1" y2="743.11" gradientTransform="matrix(1, 0, 0, 1, 0, 0)" xlink:href="#linear-gradient-25"/><linearGradient id="linear-gradient-64" x1="1525.82" y1="731.59" x2="1599.45" y2="731.59" gradientTransform="matrix(1, 0, 0, 1, 0, 0)" xlink:href="#linear-gradient-27"/><linearGradient id="linear-gradient-65" x1="1673.71" y1="765.27" x2="1745.92" y2="765.27" xlink:href="#linear-gradient"/><linearGradient id="linear-gradient-66" x1="1694.47" y1="762.19" x2="1722.2" y2="762.19" gradientTransform="matrix(1, 0, 0, 1, 0, 0)" xlink:href="#linear-gradient-8"/><linearGradient id="linear-gradient-67" x1="2099.33" y1="424.68" x2="2180.56" y2="500.76" gradientTransform="matrix(1, 0, 0, 1, 0, 0)" xlink:href="#linear-gradient-18"/></defs><path class="cls-1" d="M0,1041.23H180a365.32,365.32,0,0,1,365.32,365.32V1565.2a0,0,0,0,1,0,0H0a0,0,0,0,1,0,0v-524A0,0,0,0,1,0,1041.23Z"/><ellipse class="cls-2" cx="176.86" cy="159.34" rx="110.35" ry="110.84"/><rect class="cls-3" x="2353.42" width="243.78" height="244.85"/><path class="cls-4" d="M2554.15,542.19l-933.74-180.6c-101.34-23-195,53.64-228.9,133.7l-347.2,819.77c-40,94.34,11.34,191.65,106.54,237.55a108.28,108.28,0,0,0,47,10.78H2581.21a18.83,18.83,0,0,0,18.79-18.87V598A56.72,56.72,0,0,0,2554.15,542.19Z"/><path class="cls-5" d="M1532.1,1526.19q0,18.72,1.06,37.2h264q-1-13.73-1-27.72c0-212.23,171.27-384.25,382.56-384.25s382.57,172,382.57,384.25q0,14-1,27.72h20.88a18.83,18.83,0,0,0,18.79-18.87V1048.31c-113.37-102.51-263.41-164.89-428-164.89C1818.62,883.42,1532.1,1171.21,1532.1,1526.19Z"/><path class="cls-6" d="M1149.48,922.72c-48.26,0-87.38,39.3-87.38,87.77s39.12,87.76,87.38,87.76,87.38-39.29,87.38-87.76S1197.74,922.72,1149.48,922.72Zm.92,141.53a52.47,52.47,0,1,1,52.24-52.47A52.36,52.36,0,0,1,1150.4,1064.25Z"/><path class="cls-7" d="M1207.45,1296a55.84,55.84,0,1,0,55.59,55.84A55.72,55.72,0,0,0,1207.45,1296Zm.58,90a33.39,33.39,0,1,1,33.24-33.39A33.31,33.31,0,0,1,1208,1386Z"/><path class="cls-8" d="M1408.81,1286.3a4.75,4.75,0,0,1-3.6-4.72l2.93-116.17a4.71,4.71,0,1,1,9.42.24l-2.93,116.17a4.71,4.71,0,0,1-4.83,4.61A4.63,4.63,0,0,1,1408.81,1286.3Z"/><rect class="cls-9" x="1339.12" y="1307.02" width="71.61" height="208.21" rx="18.17"/><rect class="cls-10" x="1362.68" y="1272" width="92.34" height="276.35" rx="9.75"/><ellipse class="cls-11" cx="1423.92" cy="1549.29" rx="14.13" ry="14.2"/><path class="cls-12" d="M1372.4,1164.41a4.74,4.74,0,0,1,0-9.21c.73-.16,18-4,31.61,1.42a32.55,32.55,0,0,0,19.71,1.56,4.73,4.73,0,0,1,2.8,9,41.57,41.57,0,0,1-26-1.82c-10.82-4.34-25.86-1-26-1A4.59,4.59,0,0,1,1372.4,1164.41Z"/><path class="cls-13" d="M2327,1166.32c-7.3,64.43-104.23,53.35-96.93-11.07s34.91-114.18,61.67-111.12S2334.26,1101.9,2327,1166.32Z"/><path class="cls-14" d="M2345.48,1260.53c-24.94,30.87-64.78-1.59-39.84-32.47s54.07-48.64,65.07-39.67S2370.42,1229.65,2345.48,1260.53Z"/><path class="cls-15" d="M2340.78,1291.55c-21.05,16.27-42-11.14-21-27.4s42.81-23.31,48.61-15.75S2361.84,1275.29,2340.78,1291.55Z"/><path class="cls-16" d="M2292.66,1331.41a1,1,0,0,1-1-.76c-.32-1.25-31.59-125.66-9.67-203.5a1,1,0,1,1,1.92.54c-21.77,77.33,9.37,201.22,9.69,202.46a1,1,0,0,1-.72,1.22A.77.77,0,0,1,2292.66,1331.41Z"/><path class="cls-16" d="M2287.93,1315.87l-.27,0a1,1,0,0,1-.69-1.24c5.61-20,24.39-56.89,58.81-94.9a1,1,0,0,1,1.41-.07,1,1,0,0,1,.07,1.42c-34.19,37.75-52.81,74.28-58.37,94.09A1,1,0,0,1,2287.93,1315.87Z"/><path class="cls-16" d="M2302,1313.89a1,1,0,0,1-.33-.06,1,1,0,0,1-.62-1.27c4.95-14.52,33.46-37.13,34.68-38.08a1,1,0,0,1,1.4.17,1,1,0,0,1-.17,1.41c-.29.23-29.26,23.19-34,37.15A1,1,0,0,1,2302,1313.89Z"/><path class="cls-17" d="M2224.93,1270.79c24.1,32.77,62.59-1.69,38.5-34.46s-52.25-51.64-62.88-42.12S2200.84,1238,2224.93,1270.79Z"/><path class="cls-15" d="M2216.28,1298.05c20.34,17.26,40.61-11.83,20.27-29.09s-41.36-24.75-47-16.72S2195.94,1280.78,2216.28,1298.05Z"/><path class="cls-16" d="M2279.4,1317a1,1,0,0,1-1-.74c-5.13-18.49-22.68-52.49-55.24-87.44a1,1,0,0,1,.05-1.42,1,1,0,0,1,1.41,0c32.8,35.22,50.51,69.56,55.7,88.27a1,1,0,0,1-.69,1.24A1.26,1.26,0,0,1,2279.4,1317Z"/><path class="cls-16" d="M2262.62,1323.35a1,1,0,0,1-1-.71c-4-13.33-28.34-35.24-28.58-35.46a1,1,0,0,1,1.33-1.49c1,.91,25,22.5,29.17,36.37a1,1,0,0,1-1,1.29Z"/><polygon class="cls-11" points="2275.63 1515.41 2275.2 1519.2 2270.55 1559.14 2270.04 1563.49 2266.17 1563.21 2266.12 1562.79 2261.69 1524.99 2261.01 1519.2 2260.56 1515.41 2275.63 1515.41"/><polygon class="cls-11" points="2305.79 1515.41 2305.35 1519.2 2300.19 1563.49 2296.32 1563.21 2292.24 1528.42 2291.16 1519.2 2290.71 1515.41 2305.79 1515.41"/><polygon class="cls-18" points="2326.51 1309.1 2320.22 1409.45 2318.24 1440.87 2313.32 1519.2 2251.14 1519.2 2247.57 1453.16 2245.82 1420.62 2239.83 1309.1 2326.51 1309.1"/><path class="cls-19" d="M2286.94,1360.2a53,53,0,0,1,38.78-51.1h-50.46a82.48,82.48,0,0,0,43,131.77l2-31.42A53,53,0,0,1,2286.94,1360.2Z"/><path class="cls-20" d="M2245.82,1420.62l1.75,32.54a53,53,0,0,1,22.41,43.32,52.43,52.43,0,0,1-3.49,18.93c-.47,1.29-1,2.56-1.6,3.79h30.46c.33-1.25.66-2.52.94-3.79a83.24,83.24,0,0,0,2-18A82.37,82.37,0,0,0,2245.82,1420.62Z"/><rect class="cls-21" x="2187.89" y="683.41" width="402.88" height="189.69" rx="10.52"/><rect class="cls-22" x="2223.76" y="715.7" width="107.92" height="126.66" rx="11.97"/><path class="cls-22" d="M2465.21,732.49h-88.87a5.58,5.58,0,0,1,0-11.16h88.87a5.58,5.58,0,0,1,0,11.16Z"/><path class="cls-22" d="M2439.82,762.77h-61.89a5.58,5.58,0,0,1,0-11.15h61.89a5.58,5.58,0,0,1,0,11.15Z"/><path class="cls-22" d="M2419.19,791.47H2381.1a5.58,5.58,0,0,1,0-11.16h38.09a5.58,5.58,0,0,1,0,11.16Z"/><rect class="cls-22" x="2353.9" y="812.53" width="28.57" height="28.69" rx="9"/><rect class="cls-23" x="2391.99" y="812.53" width="28.57" height="28.69" rx="9"/><rect class="cls-24" x="2431.67" y="812.53" width="28.57" height="28.69" rx="9"/><rect class="cls-22" x="2446.81" y="771.56" width="28.57" height="28.69" rx="9"/><rect class="cls-23" x="2490.56" y="769.29" width="28.57" height="28.69" rx="9"/><rect class="cls-24" x="2530.24" y="769.29" width="28.57" height="28.69" rx="9"/><ellipse class="cls-11" cx="2277.72" cy="778.25" rx="29.84" ry="29.97"/><path class="cls-25" d="M2276,786.52l-9.88-6.35a2.34,2.34,0,0,1,2.52-3.95l6,3.83,9.06-14.07a2.34,2.34,0,1,1,3.93,2.54Z"/><path class="cls-11" d="M1918,975.44l-18-.68s-20.49,115.62,18.3,114.44Z"/><path class="cls-26" d="M1979.31,878.71c-33.91.69-55.61,41.56-63.75,113.76s-24.42,133.51,74.6,134.87,126.14,0,126.14,0V878Z"/><rect class="cls-27" x="1957.6" y="799.02" width="176.33" height="79.02" rx="17.52" transform="translate(4091.54 1677.05) rotate(180)"/><ellipse class="cls-11" cx="1973.88" cy="838.52" rx="25.77" ry="39.51"/><polygon class="cls-28" points="2129.86 1022.44 2150.21 1259.49 2134.93 1513.46 2057.34 1517.26 2076.97 1259.49 2059.33 1108.27 2059.33 1022.44 2129.86 1022.44"/><polygon class="cls-29" points="2060.69 1022.44 2002.37 1022.44 1953.54 1259.49 1898.35 1513.46 1972.16 1521.06 2029.49 1259.49 2060.33 1116.85 2060.69 1022.44"/><path class="cls-30" d="M2056.81,851.93l-54.45,16.57v153.94s62.4,21.8,127.5,0V867.13l-51.54-15h-21.7"/><rect class="cls-31" x="2056.67" y="794.67" width="21.71" height="68.74" rx="5.73" transform="translate(-5.4 13.6) rotate(-0.38)"/><path class="cls-32" d="M2047.21,792.12a11.39,11.39,0,0,1,6.78-1.94l-.62-9.24a34.63,34.63,0,1,1,69.1-4.64l1.59,23.85a34.73,34.73,0,0,1-32.23,37h0a34.62,34.62,0,0,1-35.33-24.31,11.45,11.45,0,0,1-12.41-4.73A11.58,11.58,0,0,1,2047.21,792.12Z"/><path class="cls-33" d="M2034.93,779.94a46.5,46.5,0,0,0,8.78,16,23,23,0,0,1,7.95-1.08c7.57,0,8.1,9.58,8.1,9.58l0,0h.94s0-24.53,2.73-31.33,36.6,0,40.67,0,31.21-1.37,35.28-31.35-28.48-38.14-32.55-32.68c-8.69,11.61-22.09,19.31-36,22.66-1.66.4-3.4.78-5.17,1.16-10.39,2.32-21.91,5.06-27.48,14.75A40.59,40.59,0,0,0,2034.93,779.94Z"/><path class="cls-34" d="M2002.36,868.5l-56.27,71.4a49.87,49.87,0,0,0-3.86,56l50.64,86.46,46.12-30-57-81.74,33.91-39.51S2032.2,883.48,2002.36,868.5Z"/><path class="cls-34" d="M2129.86,868.5l42,42.23,31.2-85.83L2247.87,859S2208.53,962.5,2189.54,972s-59.68-36.11-59.68-36.11Z"/><path class="cls-35" d="M2213.29,832.94c4.76-19.21,40-63.9,40-53s-12.21,24.53-12.21,24.53,6.79,0,9.5,9.53c4.07,17.71-9.5,30-9.5,30l-2.17,8.47Z"/><path class="cls-36" d="M2029.05,1058.87s4.51,3.08,9.94,18.07c0,0-16.28,9.53-23.06,17.71,0,0-12-7.58-16.18-16.73Z"/><path class="cls-37" d="M2045.77,1074.21a79.54,79.54,0,0,0-32.55,24.52Z"/><path class="cls-38" d="M2013.8,863.3s44.51,84.29-9.92,142l-1.43,17.74s71.92-43.72,37.85-167.29Z"/><path class="cls-39" d="M2099,857.6s.58,102.79,29.63,146.45l2.55-.07V985s-13.25-104.56-11.36-121.67Z"/><path class="cls-11" d="M2151.55,1563.49l-78-.47a4,4,0,0,1-3.71-4.15c0-1.82-.08-4.14-.08-6.8,0-5.78.1-13.13.64-20.06.91-11.6,3-22,7.54-22h1.36l18.7.11a3.62,3.62,0,0,1,.94.15c.22.06.51.17.87.27a25.25,25.25,0,0,1,10.37,6.77,18.71,18.71,0,0,1,3.33,5.28,3.88,3.88,0,0,0,3.15,2.5,60.81,60.81,0,0,1,10.39,1.8,56.43,56.43,0,0,1,5.59,1.81c9.27,3.61,19.2,10.68,22.28,24.51a38.84,38.84,0,0,1,.8,5.08C2156,1561,2154,1563.5,2151.55,1563.49Z"/><path class="cls-40" d="M2107.59,1538.43l6,2.75a4.67,4.67,0,0,0,5.89-2.12l7.6-12.19a60.81,60.81,0,0,0-10.39-1.8,3.84,3.84,0,0,1-3.14-2.51,18.9,18.9,0,0,0-3.34-5.27l-5.06,14.13C2104.12,1534.24,2105.21,1537.34,2107.59,1538.43Z"/><path class="cls-41" d="M2151.55,1563.49l-78-.47a4,4,0,0,1-3.71-4.15c0-1.82-.08-4.14-.08-6.8l85.16,1.12a38.84,38.84,0,0,1,.8,5.08C2156,1561,2154,1563.5,2151.55,1563.49Z"/><path class="cls-11" d="M1992.56,1561.59l-78-.47a4,4,0,0,1-3.7-4.15c0-1.82-.09-4.14-.09-6.8,0-5.78.1-13.13.65-20.06.91-11.6,3-22,7.54-22h1.36l18.7.11a3.69,3.69,0,0,1,.94.15l.86.27a25.2,25.2,0,0,1,10.38,6.77,18.94,18.94,0,0,1,3.33,5.28,3.85,3.85,0,0,0,3.14,2.5,59.75,59.75,0,0,1,10.4,1.8,55.44,55.44,0,0,1,5.58,1.81c9.27,3.61,19.2,10.68,22.28,24.51a37.2,37.2,0,0,1,.81,5.08C1997,1559.11,1995,1561.6,1992.56,1561.59Z"/><path class="cls-42" d="M1948.6,1536.53l6,2.75a4.67,4.67,0,0,0,5.89-2.12l7.61-12.19a60.89,60.89,0,0,0-10.4-1.8,3.85,3.85,0,0,1-3.14-2.51,19.11,19.11,0,0,0-3.33-5.27l-5.06,14.12C1945.14,1532.33,1946.22,1535.44,1948.6,1536.53Z"/><path class="cls-43" d="M1992.56,1561.59l-78-.47a4,4,0,0,1-3.7-4.15c0-1.82-.09-4.14-.09-6.8l85.16,1.12a37.2,37.2,0,0,1,.81,5.08C1997,1559.11,1995,1561.6,1992.56,1561.59Z"/><g class="cls-44"><ellipse class="cls-45" cx="1339.47" cy="897.44" rx="14.61" ry="14.95"/><path class="cls-46" d="M1315.38,875.51a3.61,3.61,0,0,0,0,5,3.42,3.42,0,0,0,4.92,0,26.22,26.22,0,0,1,37.64,0,3.43,3.43,0,0,0,4.92,0,3.61,3.61,0,0,0,0-5A33.06,33.06,0,0,0,1315.38,875.51Z"/><path class="cls-47" d="M1339.12,847.59a46.53,46.53,0,0,0-33.5,14.2,3.61,3.61,0,0,0,0,5,3.42,3.42,0,0,0,4.92,0,39.78,39.78,0,0,1,57.16,0,3.41,3.41,0,0,0,4.92,0,3.61,3.61,0,0,0,0-5A46.51,46.51,0,0,0,1339.12,847.59Z"/><path class="cls-48" d="M1380.31,848.07a57.32,57.32,0,0,0-82.38,0,3.61,3.61,0,0,0,0,5,3.42,3.42,0,0,0,4.92,0,50.48,50.48,0,0,1,72.54,0,3.41,3.41,0,0,0,4.92,0A3.61,3.61,0,0,0,1380.31,848.07Z"/></g><path class="cls-49" d="M1571,807.31l54.65,7.58,18.85,164.67s-56.54,36-130,17l-15.08-168.46,50.88-18.93Z"/><path class="cls-50" d="M1810.17,1491.54h0c-5.68,2.48-12.29-.14-16.56-5.3l-24.17-56c1.42-1.42,1.82-2.42,2.68-2.8l17.46-7.61c.86-.37,1.86,0,.44,1.44l24.17,56C1818.46,1482.43,1815.85,1489.06,1810.17,1491.54Z"/><path class="cls-51" d="M1884.77,1504.37l-81.39,25.55a4.31,4.31,0,0,1-5.27-2.48c-.65-1.62-1.49-3.68-2.4-6-2-5.17-4.35-11.79-6.14-18.17-3-10.68-4.39-20.7.38-22.2l1.42-.46,19.51-6.13a5.17,5.17,0,0,1,1-.18l1,0a30.25,30.25,0,0,1,13.11,2.6,19.29,19.29,0,0,1,5.26,3.61,4.45,4.45,0,0,0,4.12,1.19,76.7,76.7,0,0,1,11.44-1.85c2-.17,4.2-.26,6.43-.24,10.88.15,23.62,3.16,31.53,14.51a34.14,34.14,0,0,1,2.57,4.28A4.35,4.35,0,0,1,1884.77,1504.37Z"/><path class="cls-52" d="M1830.47,1496.59l7.16.47a5.27,5.27,0,0,0,5.42-3.86l3.78-13.44a76.7,76.7,0,0,0-11.44,1.85,4.44,4.44,0,0,1-4.12-1.19,19.14,19.14,0,0,0-5.26-3.61l-.48,14.32A5.29,5.29,0,0,0,1830.47,1496.59Z"/><path class="cls-53" d="M1884.77,1504.37l-81.39,25.55a4.31,4.31,0,0,1-5.27-2.48c-.65-1.62-1.49-3.68-2.4-6l89.08-27.36a34.14,34.14,0,0,1,2.57,4.28A4.35,4.35,0,0,1,1884.77,1504.37Z"/><path class="cls-54" d="M1551.25,1535.84h0c4.9.56,9.33-3,11.39-7.91l5.44-48.28c-1.42-.75-1.95-1.42-2.7-1.51l-15.06-1.71c-.75-.08-1.42.45,0,1.2l-5.44,48.28C1542.82,1530.84,1546.35,1535.28,1551.25,1535.84Z"/><path class="cls-55" d="M1483.72,1563l80.78.5a4.08,4.08,0,0,0,4.09-3.71c.14-1.65.34-3.75.5-6.15.38-5.24.7-11.89.55-18.17-.23-10.5-1.73-20-6.46-20l-1.41,0-19.37-.12a4.53,4.53,0,0,0-1,.12c-.23.06-.53.15-.91.24a28.91,28.91,0,0,0-11.16,6,18.26,18.26,0,0,0-3.76,4.74,4.25,4.25,0,0,1-3.41,2.22,73.83,73.83,0,0,0-10.88,1.51c-1.89.41-3.87.93-5.89,1.58-9.82,3.15-20.53,9.43-24.56,21.91a31.11,31.11,0,0,0-1.14,4.59A4.11,4.11,0,0,0,1483.72,1563Z"/><path class="cls-56" d="M1530.77,1540.83l-6.36,2.42a5,5,0,0,1-6-2l-7.14-11.13a72.19,72.19,0,0,1,10.88-1.5,4.21,4.21,0,0,0,3.4-2.24,18.63,18.63,0,0,1,3.77-4.73l4.39,12.84A5,5,0,0,1,1530.77,1540.83Z"/><path class="cls-57" d="M1481.93,1563.07l82.57.42c2.15,0,4-1.34,4.17-3.12.15-1.39.35-3.15.52-5.17H1479a22.84,22.84,0,0,0-1.17,3.86C1477.38,1561.14,1479.37,1563.05,1481.93,1563.07Z"/><path class="cls-58" d="M1553.14,957.79l-98.43,26.26a13.08,13.08,0,0,1-15.58-12.88,5.56,5.56,0,0,1,.41-2.06l59.89-141,7.54,75.71-7.54,26.5L1547.49,918l.17,1.25,4.24,29.76Z"/><path class="cls-59" d="M1584.24,926.56c-5.55,1.86-12.88.08-13.18,0,.27.62,6.35,14.84-19.16,22.47l-4.24-29.76c5.14-2.42,16.15-6.34,27.15-2.19C1589.89,922.78,1589.89,924.67,1584.24,926.56Z"/><path class="cls-60" d="M1625.69,814.89s79.15,90.85,74.6,139h0a19.25,19.25,0,0,1-10.49,15.2h0a32,32,0,0,1-19.87,2.93L1604,946.44l14.14-31.24,35.8,13.25L1635.55,901Z"/><path class="cls-61" d="M1593.66,922.78s8.23-10.56,21.07-1.49L1603,942.23s-18.71,1.37-21.54-13.78h12.25Z"/><rect class="cls-62" x="1571.04" y="922.78" width="33.92" height="5.68"/><path class="cls-63" d="M1637.06,983.66,1516.39,996.6v512.95l70.67-6.63-.94-245.12,6.77-158.13L1605,1095l60.31,138.18,98.93,241.33,65-31.23C1791.53,1288.09,1637.06,983.66,1637.06,983.66Z"/><polygon class="cls-64" points="1780.22 449.57 1667.15 449.57 1623.81 464.72 1659.61 500.68 1780.22 449.57"/><path class="cls-65" d="M1766,824a437.42,437.42,0,0,1-87.55,24c-79.15,13.25-79.15,75.71-79.15,75.71H1576.7s-30-26.78,11.3-81.39a135.14,135.14,0,0,0,23.79-53.21c9-44.91-8.39-91.55-89.74-85-105.46,8.53-184.47,30.21-235.32-40.13C1268.59,639,1254,602.17,1243.14,549l661.46-47.32a420.77,420.77,0,0,1,15,64.9C1941.93,720.38,1848.34,791.32,1766,824Z"/><path class="cls-66" d="M1611.79,789.12c9-44.91-8.39-91.55-89.74-85-105.46,8.53-184.47,30.21-235.32-40.13,15.76-4.69,34.39-12.08,56.29-23.28,99.88-51.11,112.81-79.76,210-38.94C1635,636.28,1662.42,738.64,1611.79,789.12Z"/><path class="cls-67" d="M2005.42,452.41,1739.7,556.52,1597.43,682.39h-49l80-104L1478.7,621.82,1373.17,565l60.31-13.25,58.42,11.35S1874.44,389,1917.79,392.79c11.83,1,21.41,7.84,29.07,17.21a96.11,96.11,0,0,1,11.61,18.38C1970.06,451.75,2005.42,452.41,2005.42,452.41Z"/><path class="cls-68" d="M1760.36,823c15.55-36.9,2.49-81.69-29.14-119.81-37.69-45.43,5.66-104.1,67.85-98.43,42.32,3.87,92.5-5.41,114.89-39.2C1936.27,719.43,1842.69,790.37,1760.36,823Z"/><path class="cls-69" d="M1581.41,696.59c-32-26.5-74.44-4.74-78.21,23.66s-3.77,60.57-18.84,73.82c0,0,45.23,13.24,66-15.15,20.73,5.68,43.35,13.25,73.5-3.78,0,0-17-15.15-18.85-45.43S1600.25,692.8,1581.41,696.59Z"/><rect class="cls-70" x="1551.26" y="779.87" width="20.73" height="47.32" rx="5.5"/><ellipse class="cls-71" cx="1529.59" cy="756.21" rx="10.36" ry="10.41"/><path class="cls-72" d="M1560.38,799.8l-7.43-1.28A26.45,26.45,0,0,1,1531.4,768l4.77-28.06a26.39,26.39,0,0,1,30.46-21.63l7.43,1.27a26.45,26.45,0,0,1,21.56,30.53l-4.78,28.07A26.4,26.4,0,0,1,1560.38,799.8Z"/><path class="cls-73" d="M1525.82,743s44.28,2.84,53.7-19.88c0,0,4.72,25.56,19.79,29.34,0,0,3.77-34.07-28.27-41.64C1571,710.78,1535.24,708.89,1525.82,743Z"/><path class="cls-74" d="M1873.5,456.22,1831,471.74l-3.11-8.6-1-2.82a12.52,12.52,0,0,1,7.42-16l5.17-1.88,14.46-5.28a12,12,0,0,1,15.3,7.17Z"/><path class="cls-74" d="M1803.77,482.72l-42.5,15.51-3.11-8.59-1-2.82a12.52,12.52,0,0,1,7.42-16l5.16-1.88,14.47-5.28a11.94,11.94,0,0,1,15.29,7.17Z"/><path class="cls-74" d="M1732.16,511.11l-42.5,15.52-3.11-8.6-1-2.82a12.52,12.52,0,0,1,7.42-16l5.16-1.88,14.47-5.28a12,12,0,0,1,15.29,7.17Z"/><path class="cls-74" d="M1666.21,535.72l-42.51,15.51-3.11-8.59-1-2.82a12.52,12.52,0,0,1,7.42-16l5.17-1.89,14.46-5.28a12,12,0,0,1,15.3,7.18Z"/><ellipse class="cls-75" cx="1709.81" cy="765.27" rx="36.1" ry="36.26"/><path class="cls-76" d="M1707.72,775.27l-12-7.69a2.84,2.84,0,0,1,3-4.78l7.21,4.64,11-17a2.81,2.81,0,0,1,3.9-.84,2.84,2.84,0,0,1,.84,3.92Z"/><path class="cls-77" d="M1563.58,789.42a12.11,12.11,0,0,1-8-3.35,1,1,0,0,1,1.42-1.41h0c.18.18,4.41,4.34,10,2.06a1,1,0,0,1,.75,1.86A10.79,10.79,0,0,1,1563.58,789.42Z"/><path class="cls-78" d="M1837.9,625.43h20.39a55.4,55.4,0,0,1,4.64,20.23h-23.4A142.49,142.49,0,0,0,1837.9,625.43ZM1829,596.81a54,54,0,0,1,27.33,24.57h-19.07A86.12,86.12,0,0,0,1829,596.81Zm-17.08,24.57V593.16a53.25,53.25,0,0,1,12.19,2c3,5.1,6.78,13.61,9.2,26.24Zm-26,48.55a143.15,143.15,0,0,1-1.66-20.23H1808v20.23Zm0-44.5h22v20.23h-23.67A142.24,142.24,0,0,1,1785.91,625.43Zm9.89-30.38a52.48,52.48,0,0,1,12.15-1.88v28.21h-21.38C1789,608.68,1792.84,600.14,1795.8,595.05ZM1763,621.38a54.05,54.05,0,0,1,28-24.74,86.83,86.83,0,0,0-8.34,24.74Zm17.36,24.28h-23.9a55.34,55.34,0,0,1,4.56-20.23h21A142.49,142.49,0,0,0,1780.32,645.66Zm1.69,24.27h-20.88a55.09,55.09,0,0,1-4.74-20.23h23.94A140.15,140.15,0,0,0,1782,669.93Zm.63,4c2.21,11.56,5.59,19.65,8.42,24.79A53.74,53.74,0,0,1,1763,674Zm25.31,0v28.22a50.67,50.67,0,0,1-12-1.84c-3-5-6.86-13.57-9.29-26.38Zm25.26,0c-2.43,12.73-6.28,21.28-9.23,26.28a52.49,52.49,0,0,1-12.08,1.87V674ZM1811.9,649.7h23.66a143.28,143.28,0,0,1-1.66,20.23h-22Zm23.67-4H1811.9V625.43h22A142.24,142.24,0,0,1,1835.57,645.66Zm4,4h23.37a55.37,55.37,0,0,1-4.72,20.23h-20.31A143.28,143.28,0,0,0,1839.52,649.7ZM1856.27,674a53.54,53.54,0,0,1-27.4,24.62c2.83-5.14,6.15-13.17,8.34-24.62Z"/><path class="cls-74" d="M1958.47,428.38,1912.13,442l-22.61-15.14L1946.86,410A96.11,96.11,0,0,1,1958.47,428.38Z"/><path class="cls-79" d="M2382.9,948l0,0A12,12,0,0,1,2394.81,936h0a12,12,0,0,1-11.88-12l0,0A12,12,0,0,1,2371,936h0A12,12,0,0,1,2382.9,948Z"/><path class="cls-79" d="M2383.2,955.69l-.08.08a21,21,0,0,1-20.77,20.86l0,0a21,21,0,0,1,20.79,20.94l.08-.08A21,21,0,0,1,2404,976.65l0,0A21,21,0,0,1,2383.2,955.69Z"/><path class="cls-79" d="M2374.59,951.05a36.72,36.72,0,0,1-36.31-36.57l-.14.13a36.73,36.73,0,0,1-36.28,36.44l0,0a36.73,36.73,0,0,1,36.32,36.57l.13-.13a36.73,36.73,0,0,1,36.28-36.44Z"/><path class="cls-80" d="M2165.42,508.07h-11.64v-3h11.64Zm-23.28,0H2130.5v-3h11.64Zm-23.28,0H2114a19.12,19.12,0,0,1-7.18-1.39l1.12-2.79a16,16,0,0,0,6.06,1.17h4.85Zm49.42-.21-.44-3a16.14,16.14,0,0,0,9.28-4.84l2.17,2.09A19.28,19.28,0,0,1,2168.28,507.86Zm-70.83-9.32a19.25,19.25,0,0,1-2.64-9.75v-2.26h3v2.26A16.36,16.36,0,0,0,2100,497Zm87.06-7.7-3-.32a16.56,16.56,0,0,0,.09-1.73V479h3v9.8A20.11,20.11,0,0,1,2184.51,490.84Zm-86.7-16h-3V463.15h3Zm86.81-7.54h-3V455.61h3Zm-86.81-15.84h-3V439.77h3Zm86.81-7.54h-3v-6.77a16.25,16.25,0,0,0-.61-4.45l2.88-.82a19.1,19.1,0,0,1,.73,5.27Zm-84.75-14.72-2.62-1.47a19.36,19.36,0,0,1,9.22-8.32l1.18,2.77A16.29,16.29,0,0,0,2099.87,429.2Zm75.19-5.14a16.09,16.09,0,0,0-9.64-3.19h-.36v-3h.36a18.94,18.94,0,0,1,11.42,3.79Zm-21.64-3.19h-11.64v-3h11.64Zm-23.28,0H2118.5v-3h11.64Z"/></svg>