<svg id="Layer_1" data-name="Layer 1" xmlns="http://www.w3.org/2000/svg" viewBox="0 0 73.62 148.3"><defs><style>.cls-1{isolation:isolate;}.cls-2{fill:#fff;}.cls-3{fill:#14202e;}</style></defs><g class="cls-1"><path class="cls-2" d="M642.58,307.35l.27.15-.32-.18Z" transform="translate(-628.65 -161.58)"/><path class="cls-2" d="M642.75,307.45l-.22-.13-.16-.1Z" transform="translate(-628.65 -161.58)"/><path class="cls-2" d="M652.28,308.56l-1.15.18a21,21,0,0,0,5-1.36l-.51.23-.52.21c-.17.06-.34.13-.52.18l-.51.15C653.5,308.3,653.05,308.41,652.28,308.56Z" transform="translate(-628.65 -161.58)"/><path class="cls-2" d="M640.19,305.57c-.61-.56-.66-.64-.7-1.07.2.21.41.41.62.61l.65.56c.22.18.45.35.67.51s.45.31.68.45a1.07,1.07,0,0,0,.59.78l-.33-.19-1-.69C640.78,306.1,640.38,305.74,640.19,305.57Z" transform="translate(-628.65 -161.58)"/><path class="cls-2" d="M641.07,290.56c1.38-.86,2.31-1.45,3.53-2.32-1.14.85-2,1.41-3.49,2.43-.65.42-1.24.81-1.78,1.19a17.08,17.08,0,0,0-1.45,1.11,7.09,7.09,0,0,0-1.08,1.13,4.48,4.48,0,0,0-.69,1.27,4.45,4.45,0,0,1,1.48-2.37A24.85,24.85,0,0,1,641.07,290.56Z" transform="translate(-628.65 -161.58)"/><path class="cls-2" d="M641.11,290.67c.69-.46,1.56-1,2.34-1.59,0,0,1.56-1.11,2.5-1.84l-.07.05-.07.06-.07.06-.07,0,0,0,0,0,0,0,0,0L645,288l-.56.42-.55.4c-.19.12-.37.25-.54.37l-.07.05-.06,0-.06,0-.06,0-.46.32-.46.3-.44.3-.44.29,0,0,0,0,0,0,0,0h0Z" transform="translate(-628.65 -161.58)"/><path class="cls-2" d="M641.07,290.56a24.85,24.85,0,0,0-3.48,2.44,4.45,4.45,0,0,0-1.48,2.37c0,.12-.08.24-.11.36s-.06.25-.08.38,0,.27-.06.4,0,.28,0,.43v.31a.38.38,0,0,0,0,.1,7,7,0,0,1-.1-1.12,5.68,5.68,0,0,1,.19-1.08,5.12,5.12,0,0,1,1.21-2,19,19,0,0,1,4.17-3,51,51,0,0,0,4.94-3.27A38.84,38.84,0,0,1,641.07,290.56Z" transform="translate(-628.65 -161.58)"/><path class="cls-2" d="M643.56,307.8c-.95-.38-1.3-.56-1.45-1.17l.32.2.33.18.33.16.33.15a6.31,6.31,0,0,0,.68.26c.22.07.45.14.67.19s.45.08.67.11a5,5,0,0,0,.67.05h0a6.43,6.43,0,0,0,.76,0c.25,0,.5-.06.75-.11s.51-.11.76-.18.51-.16.77-.26h0c.26-.1.51-.21.77-.33s.52-.25.78-.4.52-.3.78-.46.54-.34.81-.52h0a14.12,14.12,0,0,1-4.68,2.36,6.18,6.18,0,0,1-.75.13,13.78,13.78,0,0,1-1.43.07A5.67,5.67,0,0,1,643.56,307.8Z" transform="translate(-628.65 -161.58)"/><path class="cls-2" d="M644.22,308a6.11,6.11,0,0,0,1.59.17h.12c.32,0,.64,0,1-.07a7.2,7.2,0,0,0,1.13-.23,15.45,15.45,0,0,0,4.3-2.26,13.58,13.58,0,0,1-5,2.46c-.21,0-.51.07-.72.09l-.71,0a5.6,5.6,0,0,1-1-.05,6.17,6.17,0,0,1-1-.23,7.89,7.89,0,0,1-1.17-.53A8,8,0,0,0,644.22,308Z" transform="translate(-628.65 -161.58)"/><path class="cls-2" d="M646.26,286.94c.3-.24.6-.47.9-.72s.74-.61.89-.75l-.25.23-.47.41-.46.39-.46.38-.46.36c-.45.35-.87.66-1.35,1,.28-.21.55-.41.82-.63Z" transform="translate(-628.65 -161.58)"/><path class="cls-2" d="M644.25,308.05a6.94,6.94,0,0,0,1.1.17h.48l.71,0a7.47,7.47,0,0,0,2.26-.54,25.32,25.32,0,0,0,5.22-3.25c-3.15,2.49-5.12,3.4-6.23,3.73a4.73,4.73,0,0,1-.75.17c-.28,0-.57,0-.85.08a4.72,4.72,0,0,1-.93,0,5.19,5.19,0,0,1-1-.19c-.14-.05-.77-.32-1.19-.54l-.35-.19A7.49,7.49,0,0,0,644.25,308.05Z" transform="translate(-628.65 -161.58)"/><path class="cls-2" d="M643.76,308l-.6-.28-.06,0c.42.22,1,.49,1.19.54a5.19,5.19,0,0,0,1,.19,4.72,4.72,0,0,0,.93,0c.28,0,.57,0,.85-.08a7.3,7.3,0,0,0,.75-.17,14.3,14.3,0,0,0,3-1.46,33.14,33.14,0,0,0,3.44-2.46,31.4,31.4,0,0,1-3.35,2.42,16.43,16.43,0,0,1-2.74,1.39,6.31,6.31,0,0,1-1.12.3,7.85,7.85,0,0,1-.93.08h-.51A3.86,3.86,0,0,1,643.76,308Z" transform="translate(-628.65 -161.58)"/><path class="cls-2" d="M654.44,304.05c-.32.26-.8.66-2.13,1.58h0l.15-.11.16-.1.16-.12.15-.11C653.48,304.79,653.89,304.48,654.44,304.05Z" transform="translate(-628.65 -161.58)"/><path class="cls-2" d="M654.73,303.83l-.71.56Z" transform="translate(-628.65 -161.58)"/><path class="cls-3" d="M655.06,167.09a3.58,3.58,0,0,0-.81.28h0l-.82.47c-.35.21-.61.39-.81.53a18.67,18.67,0,0,0-1.58,1.19,22,22,0,0,0-2.79,2.8,23.7,23.7,0,0,0-2.68,3.94,26.41,26.41,0,0,0-1.77,4.1c-.54,1.75-.54,1.75-.8,2.84-.13.51-.36,1.62-.49,2.5a31.64,31.64,0,0,0-.4,5.72,28.75,28.75,0,0,0,1.84,9.61,27.93,27.93,0,0,0,7.72,11,27.62,27.62,0,0,0,2.92,2.25,14.73,14.73,0,0,0,2.31,1.31,10.29,10.29,0,0,0,2.41.79,3.71,3.71,0,0,0,1.63-.07l-.23.05a24.77,24.77,0,0,1,7.28-.51,9,9,0,0,1,4.7,1.79,11.78,11.78,0,0,1,2.08,2.1,14,14,0,0,1,1.84,3.21,27.57,27.57,0,0,1,1.9,7.49c.09.63.25,1.81.43,3.83a58.9,58.9,0,0,1,.31,7.47,52.33,52.33,0,0,1-2.35,14c-.3,1-.76,2.42-1.6,4.57-.54,1.36-1.48,3.59-2.28,5.29a62.49,62.49,0,0,1-4.59,8A52.07,52.07,0,0,1,653,288.72c-.81.54-1.64,1.07-2.44,1.62-.19.14-.68.48-1,.78a3.6,3.6,0,0,0-1.14,1.52,5,5,0,0,0,0,3,11.06,11.06,0,0,0,1.64,3.43,14.23,14.23,0,0,0,3.14,3.24,10.72,10.72,0,0,0,1.69,1.05s1,.33,1.41.38a6.61,6.61,0,0,0-1.9.24l-.43.1-.43.07-.43,0h-.42a3.78,3.78,0,0,1-.56-.08l-.59-.14-.55-.16-.49-.12a9.88,9.88,0,0,1-2.32-1.45,13.65,13.65,0,0,1-2.06-2.1,11.33,11.33,0,0,1-1.45-2.38,5.27,5.27,0,0,1-.51-2.29,2.54,2.54,0,0,1,.27-1.16,3.85,3.85,0,0,1,.84-1.09,11.86,11.86,0,0,1,1.43-1.16c.57-.42,1.25-.87,2-1.38s1.41-.93,2.17-1.46,1.58-1.11,2.43-1.76,1.73-1.39,2.65-2.21,1.87-1.74,2.85-2.78,2.13-2.36,3.14-3.66,2-2.67,2.91-4.1,1.81-2.91,2.63-4.44,1.58-3.09,2.27-4.67c.51-1.19,1.17-2.71,1.85-4.52a59.53,59.53,0,0,0,2-6.35,54.19,54.19,0,0,0,1.39-8,52.18,52.18,0,0,0,.07-9.47c-.13-1.52-.26-3.16-.47-4.84a44.86,44.86,0,0,0-.9-5.09,23.32,23.32,0,0,0-1.73-4.83,14.55,14.55,0,0,0-2.94-4.06,10.22,10.22,0,0,0-1.45-1.16,7.25,7.25,0,0,0-2.82-1.12,9.12,9.12,0,0,0-1.37-.1c-.25,0-.49,0-.73,0s-.49,0-.73.06l-.72.1-.73.14-.78.13-.8.11-.82.08c-.27,0-.55,0-.83,0a9.43,9.43,0,0,1-1.29-.06,10.68,10.68,0,0,1-1.4-.26A11.71,11.71,0,0,1,653,216a15.51,15.51,0,0,1-1.68-.79c-.28-.19-.92-.57-1.77-1.17a28.33,28.33,0,0,1-3.06-2.48,27.69,27.69,0,0,1-3.49-3.88,25.56,25.56,0,0,1-3-5.41,26.25,26.25,0,0,1-1.12-3.41,28.21,28.21,0,0,1-.74-4.3,29.14,29.14,0,0,1,0-5.12,33.12,33.12,0,0,1,1-5.9A25.37,25.37,0,0,1,642,177a23.8,23.8,0,0,1,3.57-4.49,22.83,22.83,0,0,1,3.29-2.73c.93-.65,1.64-1,2-1.23a11.3,11.3,0,0,1,1.07-.48c.35-.15.71-.28,1.07-.4s.71-.22,1.06-.31A10.7,10.7,0,0,1,655.06,167.09Z" transform="translate(-628.65 -161.58)"/><path class="cls-2" d="M655.75,303c-.89.76-1.43,1.22-2.78,2.2l.67-.5.67-.52.69-.56.71-.59h0l0,0,0,0,0,0,0,0,.07,0,.06-.06.06-.05.06-.05Z" transform="translate(-628.65 -161.58)"/><path class="cls-2" d="M654.44,304.05c.62-.5,1.07-.89,1.69-1.42l.24-.21.24-.21.24-.21.24-.21C655.27,303.4,654.65,303.89,654.44,304.05Z" transform="translate(-628.65 -161.58)"/><path class="cls-2" d="M629.42,193.4a8,8,0,0,0,.37,2.8c.09.83.2,1.62.34,2.38s.29,1.49.47,2.17.37,1.34.58,1.95.42,1.18.63,1.71a29.31,29.31,0,0,0,3.24,5.82c.6.83,1.21,1.59,1.83,2.29s1.24,1.33,1.84,1.9a12.43,12.43,0,0,1-2.11-1.84,21.74,21.74,0,0,1-1.86-2.34l-.48-.7a26.82,26.82,0,0,1-1.39-2.35c-.45-.85-.45-.85-1.24-2.62l-.53-1.41c-.08-.23-.18-.54-.25-.77s-.18-.57-.25-.81c-.16-.56-.16-.56-.44-1.73-.14-.61-.14-.61-.36-1.88-.1-.66-.1-.66-.25-2-.07-.71-.07-.71-.13-2.16Z" transform="translate(-628.65 -161.58)"/><path class="cls-2" d="M641.05,290.38a15.73,15.73,0,0,0-4.29,3.24,4.66,4.66,0,0,0-.82,1.53,7.87,7.87,0,0,0-.19,1.08,7,7,0,0,0,.1,1.12,7.21,7.21,0,0,0,.33,1.86,11.57,11.57,0,0,0,.78,1.87,14.55,14.55,0,0,0,1.13,1.79,16.71,16.71,0,0,0,1.4,1.63.92.92,0,0,0,.35.74l-.72-.74a15,15,0,0,1-1-1.17,13.92,13.92,0,0,1-.85-1.25,11.71,11.71,0,0,1-.71-1.29,10.3,10.3,0,0,1-.53-1.32,10.58,10.58,0,0,1-.33-1.34,7.76,7.76,0,0,1-.1-1.33,7.17,7.17,0,0,1,.08-.91,6.31,6.31,0,0,1,.22-.86,5.07,5.07,0,0,1,.35-.82,5.28,5.28,0,0,1,.5-.81,7,7,0,0,1,.66-.81c.3-.31.33-.34.82-.79.33-.29.38-.33.94-.77.33-.26.37-.28,1-.73l1-.69,1-.64.8-.53.81-.54.82-.57.84-.61.87-.65.9-.72c.32-.26.63-.53.94-.8s.66-.58,1-.88.43-.4,1-1c.36-.36.36-.36,1.06-1.09.4-.42.4-.42,1.17-1.28l1.15-1.38c.39-.48.39-.48,1.13-1.45.38-.51.39-.53,1.11-1.53l1.06-1.59.44-.68c-1.14,1.81-2.82,4.23-4.28,6.15a48.83,48.83,0,0,1-3.42,4,37.08,37.08,0,0,1-3.31,3.1A56.69,56.69,0,0,1,641.05,290.38Z" transform="translate(-628.65 -161.58)"/><path class="cls-2" d="M657.27,273.69l.59-1c.25-.41.57-1,.81-1.38a69,69,0,0,1-6.22,9.46,42.6,42.6,0,0,1-3.26,3.59,26.16,26.16,0,0,1-2.93,2.55,43.85,43.85,0,0,0,5.26-5.27c.53-.64,1.41-1.7,2.5-3.21C654.92,277.2,656.22,275.36,657.27,273.69Z" transform="translate(-628.65 -161.58)"/><path class="cls-2" d="M659.08,220.78h0l-.41.07h.07Z" transform="translate(-628.65 -161.58)"/><path class="cls-2" d="M650.92,282.69c-.23.24-1.58,1.59-2.67,2.61h0l-.18.15c3.26-3,6.32-6.53,10.62-14.13l.18-.32c.32-.58.32-.58.93-1.74l.12-.23a76.62,76.62,0,0,1-4.52,7.9A47.74,47.74,0,0,1,650.92,282.69Z" transform="translate(-628.65 -161.58)"/><path class="cls-2" d="M657.24,162.74c.46-.05.75-.07,1.34-.11l1.2,0-.53,0-.55.05-.57.08-.59.1-.79,0-.78.06-.8.1-.79.14c.61-.12.68-.13,1.45-.25S656.89,162.78,657.24,162.74Z" transform="translate(-628.65 -161.58)"/><path class="cls-2" d="M653,163.41l1.36-.25.79-.14.8-.1.78-.06.79,0-1.36.25-.78,0c-.27,0-.53,0-.79.06l-.8.1Z" transform="translate(-628.65 -161.58)"/><path class="cls-2" d="M653,163.41l.79-.13.8-.1c.26,0,.52-.05.79-.06l.78,0-.14,0-.14,0-.13,0-.14,0c-.76.08-1.54.1-2.3.2a20.75,20.75,0,0,0-2.17.42l.31-.08C652.26,163.56,652.48,163.52,653,163.41Z" transform="translate(-628.65 -161.58)"/><path class="cls-2" d="M654.64,163.31c-.32,0-.65.05-1,.09s-.73.09-1.2.17a20.47,20.47,0,0,0-2.4.54,20.79,20.79,0,0,1,5.18-.87Z" transform="translate(-628.65 -161.58)"/><path class="cls-2" d="M655.49,163.23h-.24l.38,0h-.14Z" transform="translate(-628.65 -161.58)"/><path class="cls-2" d="M654.64,163.31a7.32,7.32,0,0,1,.85-.08h-.11l0,0h-.05Z" transform="translate(-628.65 -161.58)"/><path class="cls-3" d="M653.71,167.35l1.35-.26a10.7,10.7,0,0,0-1.06.24c-.35.09-.71.19-1.06.31s-.72.25-1.07.4a11.3,11.3,0,0,0-1.07.48c-.32.19-1,.58-2,1.23a22.83,22.83,0,0,0-3.29,2.73A23.8,23.8,0,0,0,642,177a25.37,25.37,0,0,0-2.8,6.53,33.12,33.12,0,0,0-1,5.9,29.14,29.14,0,0,0,0,5.12,28.21,28.21,0,0,0,.74,4.3,26.25,26.25,0,0,0,1.12,3.41,25.56,25.56,0,0,0,3,5.41,27.69,27.69,0,0,0,3.49,3.88,28.33,28.33,0,0,0,3.06,2.48c.85.6,1.49,1,1.77,1.17A15.51,15.51,0,0,0,653,216a11.71,11.71,0,0,0,1.53.49,10.68,10.68,0,0,0,1.4.26,9.43,9.43,0,0,0,1.29.06c.28,0,.56,0,.83,0l.82-.08.8-.11.78-.13.73-.14.72-.1c.24,0,.48-.05.73-.06s.48,0,.73,0a9.12,9.12,0,0,1,1.37.1,7.25,7.25,0,0,1,2.82,1.12,10.22,10.22,0,0,1,1.45,1.16,14.55,14.55,0,0,1,2.94,4.06,23.32,23.32,0,0,1,1.73,4.83,44.86,44.86,0,0,1,.9,5.09c.21,1.68.34,3.32.47,4.84a52.18,52.18,0,0,1-.07,9.47,54.19,54.19,0,0,1-1.39,8,59.53,59.53,0,0,1-2,6.35c-.68,1.81-1.34,3.33-1.85,4.52-.69,1.58-1.45,3.15-2.27,4.67s-1.7,3-2.63,4.44-1.9,2.8-2.91,4.1-2.06,2.52-3.14,3.66-1.94,2-2.85,2.78-1.81,1.55-2.65,2.21-1.66,1.23-2.43,1.76-1.49,1-2.17,1.46-1.46,1-2,1.38a11.86,11.86,0,0,0-1.43,1.16,3.85,3.85,0,0,0-.84,1.09,2.54,2.54,0,0,0-.27,1.16,5.27,5.27,0,0,0,.51,2.29,11.33,11.33,0,0,0,1.45,2.38,13.65,13.65,0,0,0,2.06,2.1,9.88,9.88,0,0,0,2.32,1.45l.49.12.55.16.59.14a3.78,3.78,0,0,0,.56.08h.42l.43,0,.43-.07.43-.1-1.34.35-.43.1-.43.07-.43,0h-.43a2.86,2.86,0,0,1-.56-.07l-.58-.15-.56-.16a3.58,3.58,0,0,0-.48-.11,9.94,9.94,0,0,1-2.32-1.46,13.2,13.2,0,0,1-2.06-2.1,11,11,0,0,1-1.46-2.38,5.58,5.58,0,0,1-.51-2.29,2.61,2.61,0,0,1,.27-1.17,4.44,4.44,0,0,1,.84-1.09,15.39,15.39,0,0,1,1.43-1.16c.58-.41,1.25-.87,2-1.38s1.4-.93,2.17-1.46,1.57-1.11,2.42-1.76,1.73-1.38,2.65-2.21,1.87-1.74,2.85-2.78,2.13-2.37,3.14-3.66,2-2.68,2.92-4.11,1.81-2.91,2.63-4.44,1.58-3.09,2.27-4.67c.51-1.19,1.17-2.71,1.85-4.53a58.93,58.93,0,0,0,2-6.35,52.86,52.86,0,0,0,1.4-8,52.29,52.29,0,0,0,.07-9.48c-.13-1.52-.27-3.16-.48-4.85a41.15,41.15,0,0,0-.9-5.09,23.32,23.32,0,0,0-1.73-4.83,14.4,14.4,0,0,0-2.94-4.07,10.37,10.37,0,0,0-1.45-1.16,7.74,7.74,0,0,0-1.43-.73,6.54,6.54,0,0,0-1.39-.38,7.08,7.08,0,0,0-1.37-.1l-.73,0-.73.07-.72.1-.73.13-.78.13-.8.11c-.27,0-.54.06-.82.08s-.55,0-.84,0a11.65,11.65,0,0,1-1.29-.07,10.76,10.76,0,0,1-1.39-.25,13.58,13.58,0,0,1-1.53-.5,14.67,14.67,0,0,1-1.68-.79c-.28-.18-.92-.57-1.78-1.17a29.34,29.34,0,0,1-3.06-2.48,27.66,27.66,0,0,1-3.48-3.88,25.83,25.83,0,0,1-3.06-5.41,26.86,26.86,0,0,1-1.85-7.72,28.27,28.27,0,0,1,0-5.13,33.28,33.28,0,0,1,1.05-5.9,25.37,25.37,0,0,1,2.8-6.53,23.89,23.89,0,0,1,3.57-4.5,23.51,23.51,0,0,1,3.29-2.73c.93-.65,1.64-1,2-1.23a11.3,11.3,0,0,1,1.07-.48c.36-.15.71-.28,1.07-.4s.71-.22,1.06-.32S653.35,167.41,653.71,167.35Z" transform="translate(-628.65 -161.58)"/><path class="cls-2" d="M654.64,163.31a29.45,29.45,0,0,0-7.64,2,11.8,11.8,0,0,0-2,1.11,2.18,2.18,0,0,0-.93,1.16l-.19.08-.18.08-.19.09-.18.09a19,19,0,0,0-2.19,1.29,24.71,24.71,0,0,0-3.5,2.93,25.65,25.65,0,0,0-3.76,4.84,27.44,27.44,0,0,0-3,7c-.31,1.15-.56,2.26-.74,3.34s-.32,2.14-.4,3.15-.11,2-.1,2.94.07,1.85.15,2.72a8,8,0,0,1-.37-2.8c0-.58,0-1.35,0-1.93,0-.81,0-.81.2-2.45.1-.85.1-.85.4-2.57.18-.9.18-.9.63-2.7a28.76,28.76,0,0,1,1.06-3.19,25.86,25.86,0,0,1,1.3-2.84,26.76,26.76,0,0,1,1.49-2.49c.55-.81.59-.86,1.61-2.17.59-.71.63-.76,1.67-1.86.62-.62.68-.68,1.69-1.57.62-.53.71-.6,1.63-1.3.6-.44.71-.5,1.52-1,.59-.37.68-.42,1.38-.8.35-.19.43-.23.89-.44s.48-.23,1.17-.54l1.24-.51c.53-.2.61-.23,1.31-.47s.7-.22,1.38-.42A23,23,0,0,1,654.64,163.31Z" transform="translate(-628.65 -161.58)"/><path class="cls-2" d="M668.42,290.27a82.46,82.46,0,0,1-7.91,8.46l0,0v0h0l0,0a76.88,76.88,0,0,0,5.44-5.59,88.21,88.21,0,0,0,5.55-6.92v0C670.89,287.11,669.74,288.68,668.42,290.27Z" transform="translate(-628.65 -161.58)"/><path class="cls-2" d="M672.79,284.46l-1.22,1.69a1.9,1.9,0,0,1-.14-.57C671.84,285.22,672.22,284.91,672.79,284.46Z" transform="translate(-628.65 -161.58)"/><path class="cls-2" d="M672.86,284.4l-1.28,1.78v0c.41-.56.8-1.13,1.22-1.69C672.81,284.43,672.84,284.42,672.86,284.4Z" transform="translate(-628.65 -161.58)"/><path class="cls-2" d="M672.37,286c-.16.24-.33.47-.5.71a2.32,2.32,0,0,1-.29-.5l.32-.45,1-1.33.91-.71-.52.85C673,285,672.68,285.5,672.37,286Z" transform="translate(-628.65 -161.58)"/><path class="cls-2" d="M665.36,255.58c.22-1,1-5.3,1.33-7.6-.07.69-.15,1.37-.24,2s-.2,1.31-.31,2-.24,1.25-.37,1.86S665.5,255,665.36,255.58Z" transform="translate(-628.65 -161.58)"/><path class="cls-2" d="M665.46,294.25c-.67.69-2.44,2.5-4.08,4s-4.53,3.9-4.85,4.17c-.91.76-1.59,1.3-2.26,1.82,1.78-1.44,2.31-1.87,6.21-5.25.4-.35,1.26-1.12,2.49-2.3a101.21,101.21,0,0,0,7.27-7.89c1-1.15,1.54-1.92,1.55-1.93l.3-.43,1.13-1.69,1.87-2.75c.33-.5.66-1,1-1.5,0,0,0,0,.08,0l.08,0c-1.08,1.6-4.32,6.35-4.34,6.38-.4.58-.73,1.05-1,1.39C670.46,288.73,667.86,291.8,665.46,294.25Z" transform="translate(-628.65 -161.58)"/><path class="cls-2" d="M668.79,290.46c-1.17,1.34-3.34,3.84-6.44,6.78-1.69,1.61-5.55,4.92-7.62,6.59.31-.26.95-.79,2.36-2l.58-.51.58-.52.6-.53.61-.55,0,0,0,0,0,0,0,0h0l0,0h0l.2-.18.21-.19.21-.2.21-.19a79.44,79.44,0,0,0,5.91-6.1c2.44-2.76,4.21-5.16,5.16-6.45a2.32,2.32,0,0,0,.29.5c.51-.71.51-.71,1.9-3l-.91.71c2.23-3,2.23-3,2.55-3.49l.16-.24h0a4.42,4.42,0,0,0,.5-.2l-4,5.94-.3.43S670.87,288.06,668.79,290.46Z" transform="translate(-628.65 -161.58)"/><path class="cls-2" d="M675.57,280.67c-.63.9-1,1.39-2.71,3.73l-.07.06c.85-1.18,1.72-2.34,2.56-3.53l.17-.24S675.55,280.68,675.57,280.67Z" transform="translate(-628.65 -161.58)"/><path class="cls-2" d="M671.57,286.15a88.21,88.21,0,0,1-5.55,6.92,76.88,76.88,0,0,1-5.44,5.59l.36-.34.38-.37.39-.37.39-.39,0,0,0,0,0,0,0,0,.68-.69.7-.73.71-.78.73-.81,0,0,0,0,0,0,0,0,.75-.87.76-.91.76-.95.77-1,0,0,0,0,0,0,0,0c.26-.35.52-.69.77-1.05l.78-1.09c.25-.37.51-.74.76-1.13s.51-.77.77-1.17v0h0v0l0,0,0,0,0,0,0,0,.72-1.12c.23-.38.47-.76.71-1.14l.72-1.16c.25-.39.49-.78.73-1.17a2.35,2.35,0,0,0,1.14-.12c-1.08,1.52-2.73,3.76-2.73,3.77l-.1.07c-.69.55-1.12.93-1.26,1.05A1.9,1.9,0,0,0,671.57,286.15Z" transform="translate(-628.65 -161.58)"/><path class="cls-2" d="M672.44,286l3.82-5.62a2.17,2.17,0,0,1,.33-.19,30.22,30.22,0,0,0,4.67-3.95,82.59,82.59,0,0,0,5.81-6.45c-.71,1.52-1.44,3-2.19,4.36s-1.5,2.73-2.26,4-1.53,2.55-2.29,3.77-1.51,2.4-2.25,3.57q-1.61,2.5-3.24,4.65c-1.08,1.43-2.16,2.74-3.21,3.93s-2,2.26-3,3.21-1.82,1.77-2.61,2.48-1.83,1.63-2.7,2.39-1.69,1.47-2.51,2.12-1.6,1.24-2.37,1.75a19.77,19.77,0,0,1-2.3,1.34,21,21,0,0,1-5,1.36l-.21,0c-.5.06-.55.07-1.34.12-.5,0-.52,0-1.31,0h-.37l-.43,0-.49,0-.51-.05-.5-.09-.47-.1-.45-.13-.43-.15-.41-.16-.33-.16c-.22-.09-.5-.24-.72-.34a5.09,5.09,0,0,0,1.84.68,6.77,6.77,0,0,0,1.09,0l.78-.05.56-.1a17.59,17.59,0,0,0,5.47-3c.85-.63,2.79-2.2,2.81-2.21,1.29-1.07,1.64-1.37,4.4-3.73,1.14-1,2.23-2,3.83-3.54,2.49-2.46,4.13-4.32,5.87-6.32A26.91,26.91,0,0,0,672.44,286Z" transform="translate(-628.65 -161.58)"/><path class="cls-2" d="M666.7,247.89c0-.48.1-1.73.11-3.29,0-.36,0-.72,0-1.08,0-.08,0-.18,0-.26s0-1,0-2-.05-2-.07-2.36c.06.8.11,1.59.14,2.36s0,1.54,0,2.3,0,1.48-.07,2.21S666.76,247.19,666.7,247.89Z" transform="translate(-628.65 -161.58)"/><path class="cls-2" d="M663.94,225c-.3-.52-.61-1-1.11-1.69a18,18,0,0,0-1.41-1.84c.26.25.51.51.74.78a9.42,9.42,0,0,1,.67.86c.21.29.4.6.59.92S663.78,224.7,663.94,225Z" transform="translate(-628.65 -161.58)"/><path class="cls-2" d="M647.45,165.16a26.7,26.7,0,0,1,4-1.28c.55-.13,1.46-.31,2-.4a11.28,11.28,0,0,1,1.76-.2,12.69,12.69,0,0,0-1.77.57,8.8,8.8,0,0,0-1.41.71,3.82,3.82,0,0,0-.91.77,1.1,1.1,0,0,0-.29.77,16.19,16.19,0,0,0-1.69.12,14.5,14.5,0,0,0-1.71.28,15.8,15.8,0,0,0-1.73.46,14.61,14.61,0,0,0-1.73.66,2.34,2.34,0,0,1,.93-1.16A11.25,11.25,0,0,1,647.45,165.16Z" transform="translate(-628.65 -161.58)"/><path class="cls-2" d="M665.47,229.4c-.18-.62-1-3.16-1.51-4.32.17.33.32.67.46,1s.28.71.4,1.07.24.73.35,1.1Z" transform="translate(-628.65 -161.58)"/><path class="cls-2" d="M636.61,212.58a12.75,12.75,0,0,0,2.11,1.84A23.64,23.64,0,0,0,640.5,216c.56.46,1.09.85,1.56,1.18s.89.6,1.23.81l.79.46a17,17,0,0,0,1.86.88,15.15,15.15,0,0,0,1.7.55,11.77,11.77,0,0,0,1.56.29,12,12,0,0,0,1.45.07h.92l.22,0,.22,0,.21,0,.21,0h0l.2,0,.2,0,.2,0,.2,0h.12l.17,0,.18,0,.17,0,.17,0h0l.35,0h0l.09,0h.09l.08,0h.09l.68-.1h0l.67-.07h1.23l.29,0,.28,0h0l.28.06.28.06.28.09.28.1h0a7.54,7.54,0,0,1,1.13.58h0a13.23,13.23,0,0,1,1.15.92h0a28.48,28.48,0,0,1,2.52,3.53h0v0h0c.51,1.16,1.33,3.7,1.51,4.32v.1c.37,1.73.68,3.81.8,4.62v.27c0,.37.09.73.13,1.09s.07.72.1,1.07.07.71.1,1.06l.09,1v.19h0v0h0c0,.51.09,1.71.08,3.26,0,.08,0,.2,0,.29,0,.36,0,.72,0,1.08,0,.64,0,1.29,0,1.93s0,1.32-.1,2.44V248c-.29,2.3-1.11,6.6-1.33,7.6v.11c-.69,2.5-1.55,5-1.89,6l0,.05,0,.05v.05l0,.05-.46,1.2c-.16.38-.3.74-.45,1.09s-.28.68-.42,1l-.38.89v.16h0c-.57,1.26-1.49,3.16-2.14,4.41l0,0v0l0,0,0,0c-.68,1.21-1.74,3-2.48,4.19l0,0,0,0,0,0,0,0c-.75,1.13-2,2.83-2.75,3.89l0,0,0,0,0,0,0,0c-.87,1.07-2.09,2.5-3,3.48H651v0h0a60.14,60.14,0,0,0,9-13.64l.76-1.55c.28-.6.28-.6.81-1.8l.66-1.53c.25-.6.49-1.21.73-1.81s.27-.69.78-2.08c.27-.78.27-.78.77-2.35.27-.86.27-.86.73-2.61.24-.94.24-.94.64-2.85.2-1,.2-1,.5-3.09.14-1.1.14-1.1.32-3.32.08-1.17.08-1.17.1-3.53,0-1.24,0-1.24-.17-3.74,0-.54-.11-1.26-.16-1.8l-.18-1.86-.24-1.88c-.09-.64-.13-.93-.29-1.87,0,0-.18-.9-.39-1.84a17.46,17.46,0,0,0-.49-1.77,16.4,16.4,0,0,0-.61-1.69,13.2,13.2,0,0,0-.76-1.55,10.22,10.22,0,0,0-.91-1.4,8.88,8.88,0,0,0-1.06-1.19l-.41-.36q-.19-.17-.39-.3l-.36-.24-.32-.17-.27-.12-.19-.07-.11,0H660l-.14,0-.22,0-.29,0-.36.06.07,0-.41.07-.34.05-.48.08-.52.07-.57.07-.61.07-.64.06-.66.05-.67,0h-.69l-1,0c-.4,0-.44,0-1-.06l-1-.11-.92-.16-.88-.19-.87-.25c-.3-.09-.31-.09-.85-.28l-.84-.34c-.29-.12-.32-.13-.85-.38l-.82-.42-.67-.37-.95-.59-1.18-.83c-.45-.33-.45-.33-1.35-1.06-.5-.41-.5-.41-1.47-1.3-.53-.5-.53-.5-1.54-1.56-.53-.58-.53-.58-1.54-1.81-.31-.4-.71-1-1-1.37A23.19,23.19,0,0,0,636.61,212.58Zm21.9,7.18h0m-2-.2h0" transform="translate(-628.65 -161.58)"/><path class="cls-2" d="M676.07,280l-.5.7s0,0-.05,0c.51-.72,1.45-2.06,3-4.61C678.16,276.7,677.18,278.33,676.07,280Z" transform="translate(-628.65 -161.58)"/><path class="cls-2" d="M676.26,280.37c1-1.42,3.85-5.74,6.08-9.86a5.81,5.81,0,0,1,.5-.92,2.26,2.26,0,0,1,.29-.25,35.35,35.35,0,0,0,3.76-3.89c1.8-2.09,3.05-3.81,4-5.06-.28.86-.58,1.69-.88,2.51s-.61,1.61-.92,2.39-.64,1.55-1,2.29-.66,1.48-1,2.2a82.59,82.59,0,0,1-5.81,6.45A24.4,24.4,0,0,1,676.26,280.37Z" transform="translate(-628.65 -161.58)"/><path class="cls-2" d="M676.26,280.37a1.29,1.29,0,0,1-.16.09c1-1.59,3.86-5.81,6.09-9.91a5.3,5.3,0,0,1,.42-.78h0l.21-.17c-.56,1-1.51,2.78-2.83,4.94C678,277.78,676.27,280.36,676.26,280.37Z" transform="translate(-628.65 -161.58)"/><path class="cls-2" d="M675.57,280.67c1-1.39,1.73-2.54,3-4.59.5-.83,1-1.62,1.6-2.73s1.18-2.14,1.4-2.58c.06-.12.13-.27.2-.38s0,0,0,0a9.13,9.13,0,0,0,.83-.59c-1.35,2.5-2.66,4.77-5,8.34-.57.89-1.53,2.33-1.54,2.35A3.68,3.68,0,0,1,675.57,280.67Z" transform="translate(-628.65 -161.58)"/><path class="cls-2" d="M681.71,270.4h0c-1.08,2.07-2,3.72-3.2,5.69,1-1.7,1.8-3.1,3-5.35A1.71,1.71,0,0,1,681.71,270.4Z" transform="translate(-628.65 -161.58)"/><path class="cls-2" d="M676.35,279.49c-.34.51-.83,1.2-.83,1.2a2.39,2.39,0,0,1-1.14.12c.12-.2.24-.39.35-.59l.36-.59.36-.59.35-.6,0-.06,0-.06,0-.06,0-.05c.33-.58.66-1.16,1-1.74s.66-1.19,1-1.8.65-1.23,1-1.86.65-1.27,1-1.92a2.9,2.9,0,0,0,1.85-.49A97.24,97.24,0,0,1,676.35,279.49Z" transform="translate(-628.65 -161.58)"/><path class="cls-2" d="M661.46,305.33c-.85.49-1.53.8-2.24,1.13a26,26,0,0,1-3.8,1.34,12.87,12.87,0,0,0,2.79-1.15,23.91,23.91,0,0,0,2.85-1.87c1-.73,2-1.55,3-2.45s2.13-1.88,3.28-2.91c.79-.7,1.67-1.53,2.61-2.47s2-2,3-3.21,2.13-2.49,3.21-3.92,2.17-3,3.23-4.65c1.49-2.34,3-4.76,4.55-7.35s3-5.36,4.46-8.39a85.75,85.75,0,0,0,4-10,90.87,90.87,0,0,0,3-12.1c.6-.14,1.14-.28,1.62-.43s.89-.3,1.24-.44a4.62,4.62,0,0,0,.81-.41c.19-.13.31-.25.32-.35-.31,1.73-.31,1.73-1.06,5-.38,1.6-.38,1.6-1.25,4.67-.44,1.48-.44,1.48-1.41,4.33-.49,1.37-.51,1.42-1.55,4-.53,1.28-.53,1.28-1.66,3.74-.56,1.19-.58,1.23-1.74,3.5-.58,1.1-.6,1.14-1.8,3.28-.58,1-.63,1.1-1.82,3.11-.57.93-.57.93-1.83,3l-1.79,2.83c-.42.66-.44.68-1.29,1.95-.43.62-.46.67-1.3,1.84-.44.59-.44.59-1.31,1.72-.44.56-.49.62-1.31,1.62-.43.52-.43.52-1.29,1.51-.42.48-.46.53-1.25,1.39-.41.43-.81.86-1.22,1.28l-1.17,1.17-1.1,1-1,.94-1.63,1.46L668,300.49c-.56.49-.77.66-1.55,1.31-.58.47-.58.47-1.56,1.23-.64.48-.65.49-1.63,1.17S662.07,305,661.46,305.33Z" transform="translate(-628.65 -161.58)"/><path class="cls-2" d="M699.44,245.6v.06l0,.06c0,.1-.12.22-.32.35a4.29,4.29,0,0,1-.81.41c-.35.14-.76.29-1.24.44s-1,.29-1.62.43l.1-.56c.6-.14,1.14-.28,1.62-.43s.89-.3,1.24-.44a4.29,4.29,0,0,0,.81-.41q.3-.19.33-.36v.45Z" transform="translate(-628.65 -161.58)"/><path class="cls-3" d="M700.2,246c-.31,1.53-.71,3.57-1.08,5.09-.49,2.08-1,4-1.26,4.72a88.71,88.71,0,0,1-3.81,10.33c-1.83,4.13-3.84,7.7-4.41,8.69-1,1.78-1.71,3-3.67,6.08-2.48,3.95-3.29,5.09-3.77,5.76a71.72,71.72,0,0,1-6.51,7.92c-.62.65-1.78,1.86-3.43,3.37-.27.25-2.71,2.47-5.29,4.61a28.4,28.4,0,0,1-11.32,6.12,13.1,13.1,0,0,0,2.92-1.19,25.11,25.11,0,0,0,3-1.92c1-.75,2-1.58,3.07-2.49s2.14-1.88,3.28-2.89c.79-.71,1.68-1.55,2.64-2.5s2-2,3-3.25,2.15-2.53,3.25-4,2.21-3,3.29-4.73c1.48-2.34,3-4.77,4.56-7.37s3.06-5.4,4.49-8.45a86.4,86.4,0,0,0,4-10.06,93.34,93.34,0,0,0,3.06-12.21c.6-.14,1.14-.28,1.61-.43s.9-.3,1.25-.44a5.35,5.35,0,0,0,.81-.42C700.06,246.27,700.18,246.15,700.2,246Z" transform="translate(-628.65 -161.58)"/><path class="cls-3" d="M700.31,245.47l-.11.57a.76.76,0,0,1-.33.36,5.35,5.35,0,0,1-.81.42c-.35.14-.77.29-1.25.44s-1,.29-1.61.43l.12-.58c.59-.14,1.13-.29,1.6-.44s.9-.29,1.25-.43a5.35,5.35,0,0,0,.81-.42C700.17,245.69,700.29,245.57,700.31,245.47Z" transform="translate(-628.65 -161.58)"/><path class="cls-2" d="M655.42,307.8l-1.34.35a12.27,12.27,0,0,0,2.78-1.14,24,24,0,0,0,2.86-1.87c1-.73,2-1.56,3-2.46s2.13-1.88,3.28-2.9c.79-.71,1.67-1.54,2.61-2.48s2-2,3-3.21,2.13-2.5,3.21-3.93,2.17-3,3.24-4.65c1.48-2.34,3-4.76,4.54-7.35s3-5.37,4.46-8.4a86.45,86.45,0,0,0,4-10,94.22,94.22,0,0,0,3-12.11l1.33-.32a90.87,90.87,0,0,1-3,12.1,85.75,85.75,0,0,1-4,10c-1.42,3-2.94,5.79-4.46,8.39s-3.06,5-4.55,7.35c-1.06,1.67-2.15,3.22-3.23,4.65s-2.16,2.74-3.21,3.92-2.05,2.26-3,3.21-1.82,1.77-2.61,2.47c-1.15,1-2.24,2-3.28,2.91s-2.05,1.72-3,2.45a23.91,23.91,0,0,1-2.85,1.87A12.87,12.87,0,0,1,655.42,307.8Z" transform="translate(-628.65 -161.58)"/><polygon class="cls-2" points="65.54 85.53 66.88 85.22 66.78 85.77 65.44 86.09 65.54 85.53"/><path class="cls-3" d="M655.65,308.73l-1.34.36a13.14,13.14,0,0,0,2.92-1.2,22.8,22.8,0,0,0,3-1.92c1-.74,2-1.58,3.07-2.48s2.14-1.88,3.27-2.89c.8-.72,1.69-1.55,2.65-2.51s2-2,3-3.25,2.15-2.53,3.25-4,2.21-3,3.29-4.73c1.49-2.34,3-4.77,4.56-7.38s3.06-5.39,4.5-8.45a88.23,88.23,0,0,0,4-10.06A93.86,93.86,0,0,0,694.87,248l1.33-.32a93.34,93.34,0,0,1-3.06,12.21,86.4,86.4,0,0,1-4,10.06c-1.43,3.05-2.95,5.84-4.49,8.45s-3.08,5-4.56,7.37c-1.08,1.7-2.19,3.27-3.29,4.73s-2.19,2.78-3.25,4-2.08,2.29-3,3.25-1.85,1.79-2.64,2.5c-1.14,1-2.22,2-3.28,2.89s-2.07,1.74-3.07,2.49a25.11,25.11,0,0,1-3,1.92A13.1,13.1,0,0,1,655.65,308.73Z" transform="translate(-628.65 -161.58)"/><polygon class="cls-3" points="66.33 85.85 67.67 85.53 67.56 86.12 66.22 86.44 66.33 85.85"/><path class="cls-2" d="M690.84,260.39c-.72,1-2.24,3.09-4,5.06a35.84,35.84,0,0,1-4,4.14,91,91,0,0,0,4.61-10,94.11,94.11,0,0,0,3.61-11.34l.74-.12.75-.13.77-.16.77-.17c-.22,1.18-.45,2.32-.69,3.43s-.51,2.2-.78,3.26-.56,2.09-.85,3.09S691.16,259.44,690.84,260.39Z" transform="translate(-628.65 -161.58)"/><path class="cls-2" d="M682.84,269.59l-.1.08-.13.1a89.7,89.7,0,0,0,5-11,98.92,98.92,0,0,0,3.3-10.53h.14a94.11,94.11,0,0,1-3.61,11.34A91.66,91.66,0,0,1,682.84,269.59Z" transform="translate(-628.65 -161.58)"/><path class="cls-2" d="M681.73,270.39a99.22,99.22,0,0,0,5.35-11.65,87.09,87.09,0,0,0,3.23-10.4l.15,0h.15l.15,0,.16,0a94.72,94.72,0,0,1-4.36,13.21,90.37,90.37,0,0,1-3.95,8.29A7.92,7.92,0,0,1,681.73,270.39Z" transform="translate(-628.65 -161.58)"/><path class="cls-2" d="M682.05,269.77c3-5.83,5-11.17,5-11.23a81.92,81.92,0,0,0,3.19-10.19h0a87.66,87.66,0,0,1-3.23,10.4A95.31,95.31,0,0,1,682.05,269.77Z" transform="translate(-628.65 -161.58)"/><path class="cls-2" d="M681.73,270.36s0,0,0,0c-.19.11-.33.18-.44.23a3.26,3.26,0,0,1-.51.19,2.5,2.5,0,0,1-.9.07,2,2,0,0,0,.1-.21l.1-.21c0-.06.07-.13.1-.2a2,2,0,0,1,.1-.21v0h0v0h0v0h0l.81-1.76.78-1.83c.25-.62.51-1.25.75-1.89s.49-1.29.73-2c.47-1,.72-1.57,1.37-2.9.88-1.82,1.46-3,2-4.47.73-1.92,1.54-5,2-6.67h.35l.38,0,.4,0,.41,0a82.78,82.78,0,0,1-3.19,10.19A129.78,129.78,0,0,1,681.73,270.36Z" transform="translate(-628.65 -161.58)"/><path class="cls-2" d="M701,234.35c-.13,1.52-.2,2-.63,5.36-.25,1.8-.25,1.8-.89,5.44,0,.11-.14.23-.33.36a4.62,4.62,0,0,1-.81.41c-.35.14-.77.29-1.25.44s-1,.29-1.61.43A109.38,109.38,0,0,0,697.36,233a94.69,94.69,0,0,0,0-13.16,89,89,0,0,0-1.78-12.53,91.76,91.76,0,0,0-3.48-12c-.61-1.66-1.33-3.62-2.21-5.74a65,65,0,0,0-3.21-6.7A49.25,49.25,0,0,0,682.1,176a38.12,38.12,0,0,0-6.27-6.23c-.8-.62-1.84-1.38-3.08-2.16a35.45,35.45,0,0,0-4.25-2.31,29.4,29.4,0,0,0-5.17-1.81,22,22,0,0,0-5.79-.65c.2,0,.39-.08.59-.1l.57-.08.55-.05.53,0a32.43,32.43,0,0,1,3.43.11c1.41.15,1.44.16,2.89.41,1.07.22,1.24.26,2.53.61.87.25.92.27,2.27.75.74.28.84.33,2.06.86.65.3.7.32,1.86.92.59.31.61.32,1.68.95.52.31.53.32,1.48.93.45.3.47.31,1.28.89.38.27.44.32,1.07.8a33.66,33.66,0,0,1,2.69,2.32c.83.8.83.8,2.37,2.48.73.84.73.84,2.08,2.6.64.86.64.86,1.83,2.67.56.87.58.91,1.6,2.69.48.87.48.87,1.38,2.67.41.85.43.88,1.2,2.6.35.8.38.87,1,2.47.3.74.44,1.11.9,2.31.26.69.51,1.39.77,2.08.48,1.38,1.1,3.23,1.54,4.63.47,1.56.47,1.56,1.28,4.72.39,1.6.39,1.6,1,4.82.29,1.63.29,1.63.75,4.92.2,1.65.2,1.65.47,5,.12,1.69.12,1.69.21,5.1,0,1.72,0,1.72-.07,5.19C701.29,231.32,701.17,232.79,701,234.35Z" transform="translate(-628.65 -161.58)"/><path class="cls-3" d="M654.21,162.17a33.94,33.94,0,0,1,6.48-.59,30.33,30.33,0,0,1,5.45.54c.82.17,1.75.37,2.58.62a31.83,31.83,0,0,1,3.34,1.17,36,36,0,0,1,6.25,3.34,36.87,36.87,0,0,1,6.39,5.33,44.28,44.28,0,0,1,5.19,6.68,58.6,58.6,0,0,1,4.27,8.11c1,2.37,1.7,4.15,2.75,7,0,0-.13-.05-.32,0s-.48,0-.84.09l-1.28.22-1.66.33c-.62-1.7-1.35-3.69-2.25-5.84a68.55,68.55,0,0,0-3.27-6.83,49.56,49.56,0,0,0-4.67-7,38,38,0,0,0-9.56-8.57,37.31,37.31,0,0,0-4.36-2.37,30.06,30.06,0,0,0-5.3-1.85,22.82,22.82,0,0,0-5.95-.67l-.8,0c-.27,0-.54,0-.81.06l-.81.1Z" transform="translate(-628.65 -161.58)"/><path class="cls-2" d="M688.74,248.46c-.44,1.66-1.25,4.75-2,6.67-.55,1.45-1.13,2.65-2,4.47-.66,1.36-.89,1.85-1.37,2.9.07-.18.13-.37.2-.56s.13-.37.19-.56l.2-.57.18-.57h0v0h0v0c.15-.46.3-.92.44-1.39s.29-.95.42-1.43.28-1,.41-1.47l.39-1.51c.88-2.53,1.38-4,2-5.88h.89Z" transform="translate(-628.65 -161.58)"/><path class="cls-2" d="M687.14,248.32l.14.05.16,0,.19,0,.22,0c-.6,1.82-1.14,3.42-2,5.88.12-.47.23-1,.35-1.43l.33-1.47c.1-.5.21-1,.31-1.51s.2-1,.29-1.54h0v0h0Z" transform="translate(-628.65 -161.58)"/><path class="cls-3" d="M686.92,248.06l.1-.57a.22.22,0,0,0,0,.08.09.09,0,0,0,0,.06.27.27,0,0,0,.08.07l.11.05-.11.57-.11,0-.07-.06,0-.07Z" transform="translate(-628.65 -161.58)"/><path class="cls-3" d="M696.91,194.36c1.22,3.51,1.22,3.51,2.25,7.08.45,1.57,1,4,1.16,4.83a91.74,91.74,0,0,1,1.73,12.51,99.11,99.11,0,0,1-.21,15.76c-.16,1.89-.57,5.82-1.53,10.93,0,.1-.14.22-.33.35a4.62,4.62,0,0,1-.81.41,11.61,11.61,0,0,1-1.24.44c-.48.15-1,.3-1.61.44a112.18,112.18,0,0,0,1.84-14,95.46,95.46,0,0,0,0-13.32A91.12,91.12,0,0,0,692.81,195l1.66-.33,1.28-.22q.54-.07.84-.09C696.78,194.31,696.89,194.33,696.91,194.36Z" transform="translate(-628.65 -161.58)"/><path class="cls-2" d="M694.19,247.11l-.1.56c-.74.18-1.49.33-2.21.45s-1.42.21-2,.27a14.67,14.67,0,0,1-1.65.08,3.18,3.18,0,0,1-1-.15c0-.19.07-.38.1-.57a3.18,3.18,0,0,0,1,.15,14.42,14.42,0,0,0,1.65-.07c.63-.06,1.32-.15,2.05-.27S693.45,247.29,694.19,247.11Z" transform="translate(-628.65 -161.58)"/><path class="cls-3" d="M688,248.07a3.48,3.48,0,0,0,1,.15,14.67,14.67,0,0,0,1.65-.08c.63,0,1.33-.14,2-.27s1.47-.27,2.21-.44l-.11.58c-.74.18-1.49.33-2.21.45s-1.42.21-2,.27a14.17,14.17,0,0,1-1.65.06,3.07,3.07,0,0,1-1-.15Z" transform="translate(-628.65 -161.58)"/><path class="cls-2" d="M656.18,163.08l1.36-.25a22,22,0,0,1,5.79.65,29.4,29.4,0,0,1,5.17,1.81,35.45,35.45,0,0,1,4.25,2.31c1.24.78,2.28,1.54,3.08,2.16A38.12,38.12,0,0,1,682.1,176a49.25,49.25,0,0,1,4.56,6.87,65,65,0,0,1,3.21,6.7c.88,2.12,1.6,4.08,2.21,5.74a91.76,91.76,0,0,1,3.48,12,89,89,0,0,1,1.78,12.53,94.69,94.69,0,0,1,0,13.16,109.38,109.38,0,0,1-1.84,13.82l-1.33.32A111.32,111.32,0,0,0,696,233.28a94.83,94.83,0,0,0,0-13.17,87.46,87.46,0,0,0-1.79-12.54,88.48,88.48,0,0,0-3.48-12c-.61-1.66-1.32-3.62-2.21-5.74a66.11,66.11,0,0,0-3.21-6.71,48.38,48.38,0,0,0-4.56-6.87,38.12,38.12,0,0,0-6.27-6.23c-.8-.63-1.84-1.38-3.08-2.17a35.62,35.62,0,0,0-4.26-2.31,27.76,27.76,0,0,0-5.16-1.81A22.53,22.53,0,0,0,656.18,163.08Z" transform="translate(-628.65 -161.58)"/><path class="cls-3" d="M652.85,162.43l1.36-.26L655,162l.81-.1c.27,0,.54-.05.81-.06l.8,0a22.82,22.82,0,0,1,5.95.67,30.06,30.06,0,0,1,5.3,1.85,37.31,37.31,0,0,1,4.36,2.37,38,38,0,0,1,9.56,8.57,49.56,49.56,0,0,1,4.67,7,68.55,68.55,0,0,1,3.27,6.83c.9,2.15,1.63,4.14,2.25,5.84l-1.34.28c-.63-1.7-1.35-3.69-2.26-5.85a69.62,69.62,0,0,0-3.27-6.83,49.35,49.35,0,0,0-4.67-7,39,39,0,0,0-6.41-6.36,38.43,38.43,0,0,0-3.15-2.21,36.69,36.69,0,0,0-4.37-2.37,28.75,28.75,0,0,0-5.3-1.85,22.72,22.72,0,0,0-5.95-.67l-.8,0-.81.07-.81.1Z" transform="translate(-628.65 -161.58)"/><path class="cls-3" d="M691.47,195.24l1.34-.28a91.12,91.12,0,0,1,5.34,24.84,95.46,95.46,0,0,1,0,13.32,112.18,112.18,0,0,1-1.84,14l-1.34.32a112.15,112.15,0,0,0,1.85-14,97.15,97.15,0,0,0,0-13.33A89.84,89.84,0,0,0,695,207.39,90.83,90.83,0,0,0,691.47,195.24Z" transform="translate(-628.65 -161.58)"/><path class="cls-2" d="M690.73,195.58a88.48,88.48,0,0,1,3.48,12A87.46,87.46,0,0,1,696,220.11a94.83,94.83,0,0,1,0,13.17,111.32,111.32,0,0,1-1.83,13.83c-.74.18-1.49.33-2.21.45s-1.42.21-2.05.27a14.42,14.42,0,0,1-1.65.07,3.18,3.18,0,0,1-1-.15,112.76,112.76,0,0,0,1.67-13.37,99,99,0,0,0,0-12.89,89.31,89.31,0,0,0-1.68-12.35,83.59,83.59,0,0,0-3.35-11.75c-.6-1.63-1.3-3.54-2.15-5.6a66.15,66.15,0,0,0-3.1-6.49,47,47,0,0,0-4.36-6.6,36.53,36.53,0,0,0-6-5.95l-.61-.47-.7-.51-.78-.53c-.27-.19-.55-.37-.84-.56h0a33,33,0,0,0-3-1.68,29.7,29.7,0,0,0-3.47-1.5,25.32,25.32,0,0,0-3.87-1.06,21.22,21.22,0,0,0-4.17-.34,1.19,1.19,0,0,1,.37-.85,4,4,0,0,1,1.11-.86,10.05,10.05,0,0,1,1.7-.75,13.67,13.67,0,0,1,2.1-.56,22.53,22.53,0,0,1,5.8.66,27.76,27.76,0,0,1,5.16,1.81,35.62,35.62,0,0,1,4.26,2.31c1.24.79,2.28,1.54,3.08,2.17a38.12,38.12,0,0,1,6.27,6.23,48.38,48.38,0,0,1,4.56,6.87,66.11,66.11,0,0,1,3.21,6.71C689.41,192,690.12,193.92,690.73,195.58Z" transform="translate(-628.65 -161.58)"/><path class="cls-3" d="M687,247.49c.56-3.3.82-4.81,1.17-8s.43-4.74.58-7.83a102.75,102.75,0,0,0-.32-12.7c-.17-1.72-.4-4.07-1-7.38-.55-3.09-1.12-5.34-1.58-7.15A108.12,108.12,0,0,0,681.55,192a55.85,55.85,0,0,0-5.45-10.33,37.39,37.39,0,0,0-6.34-7.25,35.86,35.86,0,0,0-4.12-3.06,31.73,31.73,0,0,0-4.6-2.43c-2.8-1.23-6-1.8-7.33-1.56-.36.06-.71.14-1.07.23s-.71.2-1.06.32-.71.25-1.07.4a11.3,11.3,0,0,0-1.07.48c-.32.19-1,.58-2,1.23a23.51,23.51,0,0,0-3.29,2.73,23.89,23.89,0,0,0-3.57,4.5,25.37,25.37,0,0,0-2.8,6.53,33.28,33.28,0,0,0-1.05,5.9,28.27,28.27,0,0,0,0,5.13,26.86,26.86,0,0,0,1.85,7.72,25.83,25.83,0,0,0,3.06,5.41,27.66,27.66,0,0,0,3.48,3.88,29.34,29.34,0,0,0,3.06,2.48c.86.6,1.5,1,1.78,1.17a14.67,14.67,0,0,0,1.68.79,13.58,13.58,0,0,0,1.53.5,10.76,10.76,0,0,0,1.39.25,11.65,11.65,0,0,0,1.29.07c.29,0,.57,0,.84,0s.55,0,.82-.08l.8-.11.78-.13.73-.13.72-.1.73-.07.73,0a7.08,7.08,0,0,1,1.37.1,6.54,6.54,0,0,1,1.39.38,7.74,7.74,0,0,1,1.43.73,10.37,10.37,0,0,1,1.45,1.16,14.4,14.4,0,0,1,2.94,4.07,23.32,23.32,0,0,1,1.73,4.83,41.15,41.15,0,0,1,.9,5.09c.21,1.69.35,3.33.48,4.85a52.29,52.29,0,0,1-.07,9.48,52.86,52.86,0,0,1-1.4,8,58.93,58.93,0,0,1-2,6.35c-.68,1.82-1.34,3.34-1.85,4.53-.69,1.58-1.45,3.15-2.27,4.67s-1.7,3-2.63,4.44-1.9,2.81-2.92,4.11-2.06,2.52-3.14,3.66-1.93,2-2.85,2.78-1.8,1.55-2.65,2.21-1.65,1.23-2.42,1.76-1.49,1-2.17,1.46-1.46,1-2,1.38a15.39,15.39,0,0,0-1.43,1.16,4.44,4.44,0,0,0-.84,1.09,2.61,2.61,0,0,0-.27,1.17,5.58,5.58,0,0,0,.51,2.29,11,11,0,0,0,1.46,2.38,13.2,13.2,0,0,0,2.06,2.1,9.94,9.94,0,0,0,2.32,1.46,3.58,3.58,0,0,1,.48.11l.56.16.58.15a2.86,2.86,0,0,0,.56.07h.43l.43,0,.43-.07.43-.1h0a5.5,5.5,0,0,0-.82.27,18,18,0,0,0,2.33-1.58c1.24-1,2.66-2.22,3.35-2.82a71.61,71.61,0,0,0,6.78-6.56,67.9,67.9,0,0,0,4.84-6.06c1.34-1.87,3.6-5.51,4.51-7,2.91-4.76,4.06-7,5.27-9.39,0,0,.85-1.7,1.66-3.53.64-1.47.66-1.51,1.56-3.8,0,0,.75-1.91,1.45-4.08.57-1.74.66-2.1,1.31-4.42.53-1.92,1.17-4.8,1.63-7.33v.08l0,.07.07.06.11,0a90.86,90.86,0,0,1-3,11.86,86.06,86.06,0,0,1-3.89,9.81c-1.4,3-2.88,5.71-4.39,8.28s-3,5-4.49,7.28c-1,1.64-2.1,3.16-3.16,4.57s-2.12,2.68-3.14,3.85-2,2.21-2.93,3.14-1.79,1.74-2.56,2.43c-1.38,1.24-2.66,2.39-3.87,3.41a43,43,0,0,1-3.44,2.68,16.08,16.08,0,0,1-3.16,1.73,8,8,0,0,1-3,.57,5.16,5.16,0,0,1-.67-.05c-.22,0-.44-.06-.67-.11s-.44-.12-.67-.19a6.31,6.31,0,0,1-.68-.26,11.16,11.16,0,0,1-2.73-1.72,15.67,15.67,0,0,1-2.46-2.55,13.11,13.11,0,0,1-1.75-3,7.93,7.93,0,0,1-.64-3.1,4.85,4.85,0,0,1,.39-1.88,5.21,5.21,0,0,1,1-1.52,13.37,13.37,0,0,1,1.65-1.39c.65-.47,1.38-.95,2.2-1.49.67-.44,1.38-.91,2.13-1.43s1.55-1.09,2.37-1.73,1.69-1.35,2.59-2.16,1.82-1.7,2.77-2.71a46.79,46.79,0,0,0,3-3.57c1-1.27,1.93-2.6,2.83-4s1.76-2.84,2.56-4.32,1.53-3,2.2-4.56c.5-1.17,1.14-2.65,1.8-4.42a56.38,56.38,0,0,0,1.93-6.14,53.33,53.33,0,0,0,1.35-7.7,50.66,50.66,0,0,0,.06-9.08c-.13-1.49-.26-3.06-.46-4.66a41.53,41.53,0,0,0-.82-4.74,21.87,21.87,0,0,0-1.53-4.39,12.34,12.34,0,0,0-2.54-3.56,7.49,7.49,0,0,0-1.19-1,6,6,0,0,0-1.15-.6,5.37,5.37,0,0,0-1.14-.31,6.08,6.08,0,0,0-1.13-.08l-.66,0-.68.07-.68.1-.7.11-.81.14-.84.11q-.42.06-.87.09c-.3,0-.6,0-.91,0a12,12,0,0,1-1.45-.07,11.77,11.77,0,0,1-1.56-.29,15.15,15.15,0,0,1-1.7-.55,17,17,0,0,1-1.86-.88,20.43,20.43,0,0,1-2-1.25,28.89,28.89,0,0,1-3.29-2.67,29.5,29.5,0,0,1-3.71-4.22,28.53,28.53,0,0,1-3.29-5.88,29.49,29.49,0,0,1-1.23-3.75,30.42,30.42,0,0,1-.81-4.69,32.12,32.12,0,0,1,0-5.56,35.73,35.73,0,0,1,1.13-6.36,27.8,27.8,0,0,1,3-7,25.65,25.65,0,0,1,3.76-4.84,24.17,24.17,0,0,1,3.51-2.93A18.27,18.27,0,0,1,643.3,168a15.72,15.72,0,0,1,1.92-.81,18,18,0,0,1,1.91-.57,18.51,18.51,0,0,1,1.9-.34,17.17,17.17,0,0,1,1.88-.14,21.17,21.17,0,0,1,5.49.63,27.46,27.46,0,0,1,4.9,1.73,35.27,35.27,0,0,1,4.06,2.22,35.38,35.38,0,0,1,8.91,8,48,48,0,0,1,4.37,6.6,68.33,68.33,0,0,1,3.09,6.49c.85,2.06,1.55,4,2.15,5.6a83.59,83.59,0,0,1,3.35,11.75,89.31,89.31,0,0,1,1.68,12.35,99,99,0,0,1,0,12.89,112.7,112.7,0,0,1-1.66,13.37l-.11-.05a.27.27,0,0,1-.08-.07.09.09,0,0,1,0-.06A.22.22,0,0,1,687,247.49Z" transform="translate(-628.65 -161.58)"/><path class="cls-2" d="M650.9,166.1a21.07,21.07,0,0,1,5.49.63,27.85,27.85,0,0,1,4.91,1.73,35.27,35.27,0,0,1,4.06,2.22,35.9,35.9,0,0,1,2.94,2.07,36.53,36.53,0,0,1,6,5.95,47,47,0,0,1,4.36,6.6,66.15,66.15,0,0,1,3.1,6.49c.85,2.06,1.55,4,2.15,5.6a83.59,83.59,0,0,1,3.35,11.75,89.31,89.31,0,0,1,1.68,12.35,99,99,0,0,1,0,12.89,112.76,112.76,0,0,1-1.67,13.37l0,.14,0,.15,0,.14,0,.14a89.24,89.24,0,0,1-3,11.86,84.27,84.27,0,0,1-3.88,9.81c-1.4,3-2.89,5.71-4.39,8.28s-3,5-4.49,7.28c-1,1.64-2.1,3.16-3.16,4.57s-2.12,2.68-3.14,3.85-2,2.21-2.94,3.14-1.78,1.74-2.55,2.43c-1.38,1.24-2.66,2.39-3.87,3.41a43,43,0,0,1-3.44,2.68,16.08,16.08,0,0,1-3.16,1.73,8.06,8.06,0,0,1-3,.57,5,5,0,0,1-.67-.05c-.22,0-.44-.06-.67-.11s-.45-.12-.67-.19a6.31,6.31,0,0,1-.68-.26,11.72,11.72,0,0,1-2.74-1.72,16,16,0,0,1-2.45-2.55,13.11,13.11,0,0,1-1.75-3,7.93,7.93,0,0,1-.64-3.1,4.85,4.85,0,0,1,.39-1.88,5.21,5.21,0,0,1,1-1.52,12.67,12.67,0,0,1,1.65-1.39c.64-.47,1.38-.95,2.19-1.49s1.39-.91,2.14-1.43,1.55-1.09,2.37-1.73,1.69-1.35,2.58-2.16,1.82-1.7,2.78-2.71,2.06-2.3,3-3.57,1.93-2.6,2.83-4,1.76-2.84,2.56-4.32,1.53-3,2.2-4.56c.5-1.17,1.14-2.65,1.8-4.42a58.67,58.67,0,0,0,1.93-6.14,52,52,0,0,0,1.34-7.7,48.87,48.87,0,0,0,.06-9.08c-.12-1.49-.26-3.06-.45-4.66a42.11,42.11,0,0,0-.83-4.75,21.37,21.37,0,0,0-1.52-4.38,12.34,12.34,0,0,0-2.54-3.56,8,8,0,0,0-1.19-1,6,6,0,0,0-1.15-.6,5.37,5.37,0,0,0-1.14-.31,6.14,6.14,0,0,0-1.13-.08l-.67,0-.67.07-.68.1-.7.11-.81.14-.84.11c-.28,0-.58.07-.87.09s-.6,0-.91,0a12,12,0,0,1-1.45-.07,11.77,11.77,0,0,1-1.56-.29,15.15,15.15,0,0,1-1.7-.55,17,17,0,0,1-1.86-.88,21.48,21.48,0,0,1-2-1.25,29.81,29.81,0,0,1-3.28-2.67,29.5,29.5,0,0,1-3.71-4.22,28.53,28.53,0,0,1-3.29-5.88,29.49,29.49,0,0,1-1.23-3.75,30.42,30.42,0,0,1-.81-4.69,32.12,32.12,0,0,1,0-5.56,35.73,35.73,0,0,1,1.13-6.36,27.44,27.44,0,0,1,3-7,25.65,25.65,0,0,1,3.76-4.84,24.71,24.71,0,0,1,3.5-2.93A19,19,0,0,1,643.3,168a15.72,15.72,0,0,1,1.92-.81,18,18,0,0,1,1.91-.57,18.51,18.51,0,0,1,1.9-.34A17,17,0,0,1,650.9,166.1Z" transform="translate(-628.65 -161.58)"/><path class="cls-3" d="M654.31,309.09a23.65,23.65,0,0,1-4.53.76,18.47,18.47,0,0,1-3.59-.14,9.06,9.06,0,0,1-1.46-.36,13.51,13.51,0,0,1-1.65-.72,14.88,14.88,0,0,1-2.69-1.78,17.34,17.34,0,0,1-3.31-3.63,15.76,15.76,0,0,1-1.2-2.11,13.31,13.31,0,0,1-.57-1.47,9.08,9.08,0,0,1-.43-3.52,6.46,6.46,0,0,1,.9-2.83c1.22-2.08,3.63-3.66,6-5.2a49,49,0,0,0,6.87-5.23,46.81,46.81,0,0,0,6.08-7,58.55,58.55,0,0,0,4.45-7.3c.68-1.38,1.23-2.46,2.3-5,.35-.83,1.16-2.78,1.9-5a49.72,49.72,0,0,0,2.34-11.05,46,46,0,0,0,.22-5.07c0-1.31-.08-3.28-.5-7.17a36.9,36.9,0,0,0-1.31-7.07,14.05,14.05,0,0,0-2.57-4.94,4.91,4.91,0,0,0-2.18-1.61,4.17,4.17,0,0,0,.87,0l-1.05.15h.06c-4.3.7-9.32,1.22-14.57-1.52a21.68,21.68,0,0,1-3.33-2.07,31.18,31.18,0,0,1-3.7-3.2,32.91,32.91,0,0,1-3.17-3.74,31.66,31.66,0,0,1-2.2-3.52,30.22,30.22,0,0,1-1.83-4.19,30.84,30.84,0,0,1-1.19-4.43,33,33,0,0,1-.48-9,37.37,37.37,0,0,1,1.7-8.42,29.49,29.49,0,0,1,1.89-4.47,27.59,27.59,0,0,1,2.34-3.74,28,28,0,0,1,8.19-7.44,31.54,31.54,0,0,1,4.71-2.17,32,32,0,0,1,5.26-1.43l.82-.14.81-.1.81-.07.8,0a22.72,22.72,0,0,1,5.95.67,28.75,28.75,0,0,1,5.3,1.85,36.69,36.69,0,0,1,4.37,2.37,38.43,38.43,0,0,1,3.15,2.21,39,39,0,0,1,6.41,6.36,49.35,49.35,0,0,1,4.67,7,69.62,69.62,0,0,1,3.27,6.83c.91,2.16,1.63,4.15,2.26,5.85-.75.15-1.5.32-2.22.49s-1.4.34-2,.51-1.18.32-1.63.46a8.45,8.45,0,0,0-1,.35c-.61-1.66-1.32-3.61-2.19-5.7a65.33,65.33,0,0,0-3.16-6.61A47.58,47.58,0,0,0,674.8,178a37.52,37.52,0,0,0-6.12-6.09c-.78-.61-1.8-1.35-3-2.12a35.68,35.68,0,0,0-4.17-2.27,27.46,27.46,0,0,0-5-1.77,21.79,21.79,0,0,0-5.64-.65,18.3,18.3,0,0,0-1.94.15,17.17,17.17,0,0,0-2,.35,18.57,18.57,0,0,0-2,.59,16.76,16.76,0,0,0-2,.84,16.29,16.29,0,0,0-2.25,1.34,24.9,24.9,0,0,0-3.62,3,27,27,0,0,0-3.88,5,28.58,28.58,0,0,0-3.07,7.26,36.83,36.83,0,0,0-1.17,6.59,34.65,34.65,0,0,0,0,5.78,31.54,31.54,0,0,0,.86,4.89,30.51,30.51,0,0,0,1.3,4,28.83,28.83,0,0,0,3.39,6.06,30.32,30.32,0,0,0,7.23,7.12,23.32,23.32,0,0,0,2.06,1.29,16.2,16.2,0,0,0,2,.92,13.54,13.54,0,0,0,3.45.88,13.48,13.48,0,0,0,1.52.08c.33,0,.64,0,1,0l.89-.08.85-.12.81-.13.68-.11.66-.1.65-.06.63,0a5.84,5.84,0,0,1,1,.08,4.89,4.89,0,0,1,1,.27,5.71,5.71,0,0,1,1,.52,7.51,7.51,0,0,1,1,.84,11.07,11.07,0,0,1,2.36,3.35,20.24,20.24,0,0,1,1.42,4.19,43,43,0,0,1,.78,4.56c.18,1.53.31,3.06.43,4.49a48.89,48.89,0,0,1,0,8.83,49.68,49.68,0,0,1-1.29,7.47,53.91,53.91,0,0,1-1.88,6c-.65,1.75-1.3,3.25-1.83,4.48a58.32,58.32,0,0,1-2.81,5.65c-1,1.71-1.93,3.24-2.87,4.6s-1.84,2.53-2.66,3.52-1.55,1.81-2.14,2.44c-1,1-1.86,1.89-2.74,2.68s-1.74,1.5-2.55,2.13-1.6,1.2-2.35,1.71-1.45,1-2.12,1.43c-.83.55-1.6,1-2.28,1.55a12.32,12.32,0,0,0-1.76,1.53,6.11,6.11,0,0,0-1.14,1.73,5.73,5.73,0,0,0-.43,2.19,9.06,9.06,0,0,0,.69,3.5,14.12,14.12,0,0,0,1.89,3.32,16.6,16.6,0,0,0,2.65,2.77,12.74,12.74,0,0,0,3,1.86c.24.1.49.2.73.28s.49.14.73.2l.72.12a5.81,5.81,0,0,0,.72.05,8.48,8.48,0,0,0,3.24-.6,16,16,0,0,0,3.32-1.79,42.1,42.1,0,0,0,3.53-2.72c1.23-1,2.52-2.19,3.88-3.41.78-.7,1.65-1.52,2.59-2.47s1.93-2,3-3.18,2.1-2.49,3.18-3.91,2.15-3,3.21-4.64c1.48-2.33,3-4.74,4.51-7.31s3-5.33,4.42-8.34a84.92,84.92,0,0,0,3.92-9.89,92.83,92.83,0,0,0,3-12,3.07,3.07,0,0,0,1,.15,14.17,14.17,0,0,0,1.65-.06c.63-.06,1.32-.15,2-.27s1.47-.27,2.21-.45a93.86,93.86,0,0,1-3.07,12.22,88.23,88.23,0,0,1-4,10.06c-1.44,3.06-3,5.84-4.5,8.45s-3.07,5-4.56,7.38c-1.08,1.7-2.19,3.28-3.29,4.73s-2.19,2.79-3.25,4-2.08,2.29-3,3.25-1.85,1.79-2.65,2.51c-1.13,1-2.22,2-3.27,2.89s-2.07,1.74-3.07,2.48a22.8,22.8,0,0,1-3,1.92A13.14,13.14,0,0,1,654.31,309.09Z" transform="translate(-628.65 -161.58)"/><path class="cls-3" d="M684.61,197.05A84.15,84.15,0,0,1,688,209a91.56,91.56,0,0,1,1.7,12.52,99.67,99.67,0,0,1,0,13.05A113.54,113.54,0,0,1,688,248.07l0,.14,0,.14,0,.15,0,.14a92.83,92.83,0,0,1-3,12,84.92,84.92,0,0,1-3.92,9.89c-1.41,3-2.9,5.76-4.42,8.34s-3,5-4.51,7.31c-1.06,1.67-2.14,3.21-3.21,4.64s-2.15,2.73-3.18,3.91-2,2.24-3,3.18-1.81,1.77-2.59,2.47c-1.36,1.22-2.65,2.37-3.88,3.41a42.1,42.1,0,0,1-3.53,2.72,16,16,0,0,1-3.32,1.79,8.48,8.48,0,0,1-3.24.6,5.81,5.81,0,0,1-.72-.05l-.72-.12c-.24-.06-.49-.12-.73-.2s-.49-.18-.73-.28a12.74,12.74,0,0,1-3-1.86,16.6,16.6,0,0,1-2.65-2.77,14.12,14.12,0,0,1-1.89-3.32,9.06,9.06,0,0,1-.69-3.5,5.73,5.73,0,0,1,.43-2.19,6.11,6.11,0,0,1,1.14-1.73,12.32,12.32,0,0,1,1.76-1.53c.68-.5,1.45-1,2.28-1.55.67-.44,1.38-.91,2.12-1.43s1.53-1.08,2.35-1.71,1.67-1.34,2.55-2.13,1.79-1.68,2.74-2.68c.59-.63,1.32-1.44,2.14-2.44s1.72-2.17,2.66-3.52,1.91-2.89,2.87-4.6a58.32,58.32,0,0,0,2.81-5.65c.53-1.23,1.18-2.73,1.83-4.48a53.91,53.91,0,0,0,1.88-6,49.68,49.68,0,0,0,1.29-7.47,48.89,48.89,0,0,0,0-8.83c-.12-1.43-.25-3-.43-4.49a43,43,0,0,0-.78-4.56,20.24,20.24,0,0,0-1.42-4.19,11.07,11.07,0,0,0-2.36-3.35,7.51,7.51,0,0,0-1-.84,5.71,5.71,0,0,0-1-.52,4.89,4.89,0,0,0-1-.27,5.84,5.84,0,0,0-1-.08l-.63,0-.65.06-.66.1-.68.11-.81.13-.85.12-.89.08c-.31,0-.62,0-1,0a13.48,13.48,0,0,1-1.52-.08,13.54,13.54,0,0,1-3.45-.88,16.2,16.2,0,0,1-2-.92,23.32,23.32,0,0,1-2.06-1.29,30.32,30.32,0,0,1-7.23-7.12,28.83,28.83,0,0,1-3.39-6.06,30.51,30.51,0,0,1-1.3-4A31.54,31.54,0,0,1,629,196a34.65,34.65,0,0,1,0-5.78,36.83,36.83,0,0,1,1.17-6.59,28.58,28.58,0,0,1,3.07-7.26,27,27,0,0,1,3.88-5,24.9,24.9,0,0,1,3.62-3A16.29,16.29,0,0,1,643,167a16.76,16.76,0,0,1,2-.84,18.57,18.57,0,0,1,2-.59,17.17,17.17,0,0,1,2-.35,18.3,18.3,0,0,1,1.94-.15,21.79,21.79,0,0,1,5.64.65,27.46,27.46,0,0,1,5,1.77,35.68,35.68,0,0,1,4.17,2.27c1.21.77,2.23,1.51,3,2.12A37.52,37.52,0,0,1,674.8,178a47.58,47.58,0,0,1,4.46,6.74,65.33,65.33,0,0,1,3.16,6.61C683.29,193.44,684,195.39,684.61,197.05Zm2.64,50.7a112.7,112.7,0,0,0,1.66-13.37,99,99,0,0,0,0-12.89,89.31,89.31,0,0,0-1.68-12.35,83.59,83.59,0,0,0-3.35-11.75c-.6-1.63-1.3-3.54-2.15-5.6a68.33,68.33,0,0,0-3.09-6.49,48,48,0,0,0-4.37-6.6,35.38,35.38,0,0,0-8.91-8,35.27,35.27,0,0,0-4.06-2.22,27.46,27.46,0,0,0-4.9-1.73,21.17,21.17,0,0,0-5.49-.63,17.17,17.17,0,0,0-1.88.14,18.51,18.51,0,0,0-1.9.34,18,18,0,0,0-1.91.57,15.72,15.72,0,0,0-1.92.81,18.27,18.27,0,0,0-2.18,1.29,24.17,24.17,0,0,0-3.51,2.93,25.65,25.65,0,0,0-3.76,4.84,27.8,27.8,0,0,0-3,7,35.73,35.73,0,0,0-1.13,6.36,32.12,32.12,0,0,0,0,5.56,30.42,30.42,0,0,0,.81,4.69,29.49,29.49,0,0,0,1.23,3.75,28.53,28.53,0,0,0,3.29,5.88,29.5,29.5,0,0,0,3.71,4.22,28.89,28.89,0,0,0,3.29,2.67,20.43,20.43,0,0,0,2,1.25,17,17,0,0,0,1.86.88,15.15,15.15,0,0,0,1.7.55,11.77,11.77,0,0,0,1.56.29,12,12,0,0,0,1.45.07c.31,0,.61,0,.91,0s.59-.05.87-.09l.84-.11.81-.14.7-.11.68-.1.68-.07.66,0a6.08,6.08,0,0,1,1.13.08,5.37,5.37,0,0,1,1.14.31,6,6,0,0,1,1.15.6,7.49,7.49,0,0,1,1.19,1,12.34,12.34,0,0,1,2.54,3.56,21.87,21.87,0,0,1,1.53,4.39,41.53,41.53,0,0,1,.82,4.74c.2,1.6.33,3.17.46,4.66a50.66,50.66,0,0,1-.06,9.08,53.33,53.33,0,0,1-1.35,7.7,56.38,56.38,0,0,1-1.93,6.14c-.66,1.77-1.3,3.25-1.8,4.42-.67,1.54-1.41,3.07-2.2,4.56s-1.65,2.93-2.56,4.32-1.85,2.73-2.83,4a46.79,46.79,0,0,1-3,3.57c-1,1-1.88,1.91-2.77,2.71s-1.76,1.52-2.59,2.16-1.61,1.21-2.37,1.73-1.46,1-2.13,1.43c-.82.54-1.55,1-2.2,1.49a13.37,13.37,0,0,0-1.65,1.39,5.21,5.21,0,0,0-1,1.52,4.85,4.85,0,0,0-.39,1.88,7.93,7.93,0,0,0,.64,3.1,13.11,13.11,0,0,0,1.75,3,15.67,15.67,0,0,0,2.46,2.55,11.16,11.16,0,0,0,2.73,1.72,6.31,6.31,0,0,0,.68.26c.23.07.45.14.67.19s.45.08.67.11a5.16,5.16,0,0,0,.67.05,8,8,0,0,0,3-.57,16.08,16.08,0,0,0,3.16-1.73,43,43,0,0,0,3.44-2.68c1.21-1,2.49-2.17,3.87-3.41.77-.69,1.63-1.5,2.56-2.43s1.91-2,2.93-3.14,2.08-2.45,3.14-3.85,2.12-2.93,3.16-4.57c1.47-2.32,3-4.72,4.49-7.28s3-5.3,4.39-8.28a86.06,86.06,0,0,0,3.89-9.81,90.86,90.86,0,0,0,3-11.86l0-.14,0-.14,0-.15,0-.14" transform="translate(-628.65 -161.58)"/><path class="cls-3" d="M684.61,197.05a8.45,8.45,0,0,1,1-.35c.45-.14,1-.3,1.63-.46s1.3-.34,2-.51,1.47-.34,2.22-.49A90.83,90.83,0,0,1,695,207.39a89.84,89.84,0,0,1,1.82,12.71,97.15,97.15,0,0,1,0,13.33,112.15,112.15,0,0,1-1.85,14c-.74.17-1.49.32-2.21.44s-1.42.22-2,.27a14.67,14.67,0,0,1-1.65.08,3.48,3.48,0,0,1-1-.15,113.54,113.54,0,0,0,1.69-13.54,99.67,99.67,0,0,0,0-13.05A91.56,91.56,0,0,0,688,209,84.15,84.15,0,0,0,684.61,197.05Z" transform="translate(-628.65 -161.58)"/></g><path class="cls-2" d="M696.4,284.89" transform="translate(-628.65 -161.58)"/></svg>