<svg xmlns="http://www.w3.org/2000/svg" viewBox="0 0 75.31 138.73"><defs><style>.cls-1{fill:#fff;stroke:#000;stroke-miterlimit:10;}</style></defs><g id="Layer_2" data-name="Layer 2"><g id="Layer_1-2" data-name="Layer 1"><path class="cls-1" d="M55.63,87.27c1.3.58,10.15,4.73,13.94,13.8l0,.06c3.81,9.26.06,17.58-1.07,20-5,10.72-15.35,14.74-17.41,15.46-13.81,4.81-26.28-2.29-30.51-5.13-10.5-7.06-14.17-17.41-16.46-23.86-8.07-22.72-.46-43.5,1.32-48.75,5.65-16.72,15.08-27.14,23.09-36A87.39,87.39,0,0,1,44.68,9C53.57,3.09,59.76-1,66.09,1.05c4.6,1.53,9.25,6.33,8.68,10.5-.74,5.4-9,5.54-20.65,14.5A67.09,67.09,0,0,0,39.31,42C36,47.05,30.22,56,30.19,68c0,5.59,0,12.57,4.53,16.29C40.28,88.83,45.46,82.7,55.63,87.27Z"/></g></g></svg>