<svg id="prefix__Layer_1" data-name="Layer 1" xmlns="http://www.w3.org/2000/svg" viewBox="0 0 73.41 149.48"><defs><style>.prefix__cls-2{fill:#14202e}.prefix__cls-3{fill:#fff}</style></defs><g style="isolation:isolate"><path class="prefix__cls-2" d="M645.73 224.3l-.1.57c0 .1-.13.22-.33.34a4.77 4.77 0 01-.84.4c-.35.14-.78.28-1.27.42s-1.05.28-1.66.42l.11-.59c.61-.13 1.16-.27 1.65-.41s.92-.28 1.28-.42a5.53 5.53 0 00.83-.39c.2-.13.32-.24.33-.34z" transform="translate(-630.46 -161)"/><path class="prefix__cls-2" d="M9.82 65.16l1.36-.3-.11.59-1.36.3.11-.59z"/><path class="prefix__cls-2" d="M632.25 226.77l.1-.57a.08.08 0 000 .07v.06a.17.17 0 00.06.06l.1.05-.09.56a.23.23 0 01-.1-.05l-.07-.06v-.06z" transform="translate(-630.46 -161)"/><path class="prefix__cls-3" d="M633 227.07l.1-.57a.17.17 0 000 .07.09.09 0 000 .06l.07.06a.31.31 0 00.1.05l-.1.57-.11-.05s-.05 0-.06-.06a.21.21 0 010-.06v-.07z" transform="translate(-630.46 -161)"/><path class="prefix__cls-2" d="M633.32 226.74a3 3 0 001 .15c.46 0 1 0 1.65-.06s1.33-.14 2.06-.25 1.49-.25 2.23-.42l-.1.58c-.75.17-1.51.31-2.24.42s-1.42.2-2.05.25a14 14 0 01-1.65.05 3 3 0 01-1-.15zM645.63 224.87c-.45 2.73-.77 4.71-1.1 7.81s-.4 4.71-.53 7.64a99.07 99.07 0 00.35 12.36c.3 2.79.47 4.33 1 7.17.6 3.36 1.29 6 1.55 7a110 110 0 004.7 13.4c.34.77 1.37 3.13 2.45 5.08a45.69 45.69 0 003.23 5.17 36 36 0 006.58 7.08 35.1 35.1 0 008.35 5.1 24.59 24.59 0 004.29 1.33 9.81 9.81 0 003.92.2c-.4.11-.81.2-1.2.27s-.8.14-1.2.18a11.71 11.71 0 01-1.18.09h-1.17a20.45 20.45 0 01-5.16-.82 26.53 26.53 0 01-4.6-1.81 34.72 34.72 0 01-3.8-2.21c-1.1-.74-2-1.45-2.74-2a35 35 0 01-5.54-5.7 46.24 46.24 0 01-4-6.27 63.21 63.21 0 01-2.89-6.16c-.8-2-1.47-3.77-2-5.34a77.31 77.31 0 01-3.12-11.21 89.78 89.78 0 01-1.54-11.83 102.75 102.75 0 010-12.29 119.5 119.5 0 011.41-12.61c.61-.14 1.17-.28 1.66-.42s.92-.28 1.28-.42a5.93 5.93 0 00.83-.4c.04-.18.15-.26.17-.39z" transform="translate(-630.46 -161)"/><path class="prefix__cls-2" d="M680.39 304.18l-1.34.36-1.2.27-1.19.18c-.4 0-.79.07-1.19.09s-.78 0-1.16 0a20.46 20.46 0 01-5.17-.81 27.36 27.36 0 01-4.6-1.81 34.43 34.43 0 01-3.8-2.22c-1.1-.74-2-1.45-2.75-2a35 35 0 01-5.53-5.71 45.12 45.12 0 01-4.06-6.27 63.21 63.21 0 01-2.89-6.16c-.8-1.95-1.47-3.77-2-5.35a77.67 77.67 0 01-3.12-11.21 88.28 88.28 0 01-1.55-11.84 105.08 105.08 0 010-12.3 117.57 117.57 0 011.41-12.63l1.35-.29a119.5 119.5 0 00-1.41 12.61 102.75 102.75 0 000 12.29 89.78 89.78 0 001.54 11.83 77.31 77.31 0 003.12 11.21c.57 1.57 1.24 3.39 2 5.34a63.21 63.21 0 002.89 6.16 46.24 46.24 0 004 6.27 35 35 0 005.54 5.7c.71.59 1.64 1.3 2.74 2a34.72 34.72 0 003.8 2.21 26.53 26.53 0 004.6 1.81 20.45 20.45 0 005.16.82h1.17a11.71 11.71 0 001.18-.09q.6-.06 1.2-.18c.45-.08.87-.17 1.26-.28zM680.13 166.35l.59-.14c.13 0 .25-.09.39-.12a13.61 13.61 0 00-2.26 1.5c-.93.7-2.19 1.81-2.61 2.18-1.31 1.17-4.06 3.76-4.34 4-.57.55-1.74 1.69-3.11 3.2a68.68 68.68 0 00-4.78 5.87c-1.89 2.62-2.63 3.83-4.82 7.45-5.08 8.35-10.72 18.54-13.42 33.94 0 .1-.13.21-.32.33a4.77 4.77 0 01-.84.4 12.86 12.86 0 01-1.28.42c-.49.14-1 .28-1.65.41a87.94 87.94 0 012.78-11.46 84.22 84.22 0 013.69-9.59c1.34-2.94 2.77-5.65 4.22-8.21s2.94-5 4.39-7.33c1-1.64 2-3.17 3.06-4.58s2.06-2.73 3.06-3.91 2-2.27 2.88-3.22 1.76-1.8 2.52-2.52c1.25-1.17 2.41-2.26 3.5-3.25s2.11-1.86 3.08-2.62a20.15 20.15 0 012.76-1.85 8.86 8.86 0 012.51-.9z" transform="translate(-630.46 -161)"/><path class="prefix__cls-3" d="M679.43 162.4a22.68 22.68 0 013.57-.4 4.36 4.36 0 00-.51 0h-.54l-.55.08-.57.09h-.69l-.35.05z" transform="translate(-630.46 -161)"/><path class="prefix__cls-2" d="M678.77 166.61l1.36-.26a8.86 8.86 0 00-2.55 1 20.15 20.15 0 00-2.76 1.85c-1 .76-2 1.64-3.08 2.62s-2.25 2.08-3.5 3.25c-.76.72-1.61 1.56-2.52 2.52s-1.88 2-2.88 3.22-2 2.49-3.06 3.91-2.06 2.94-3.06 4.58c-1.45 2.35-2.93 4.77-4.39 7.33s-2.88 5.27-4.22 8.21a84.22 84.22 0 00-3.69 9.59 87.94 87.94 0 00-2.78 11.46l-1.36.3a89.75 89.75 0 012.78-11.47 84.22 84.22 0 013.69-9.59c1.34-2.94 2.77-5.66 4.23-8.22s2.94-5 4.38-7.34c1-1.64 2-3.17 3.07-4.58s2.06-2.73 3.06-3.91 2-2.27 2.88-3.23 1.76-1.79 2.52-2.51c1.25-1.18 2.41-2.27 3.5-3.25s2.11-1.87 3.07-2.62a20.34 20.34 0 012.77-1.86 8.91 8.91 0 012.54-1z" transform="translate(-630.46 -161)"/><path class="prefix__cls-3" d="M678.08 162.66l1.35-.26.34-.06.35-.05h.69l-1.35.26h-1.04a2 2 0 00-.34.11z" transform="translate(-630.46 -161)"/><path class="prefix__cls-2" d="M679.29 161.42a24 24 0 015.6-.39 10.2 10.2 0 013.85.91 2.94 2.94 0 00-.77-.22 6.27 6.27 0 00-1-.09 11 11 0 00-1.25.05c-.44 0-.92.11-1.41.21a7.32 7.32 0 00-1-.4 6.05 6.05 0 00-.88-.19 7.7 7.7 0 00-.83-.05h-1.58l-.37.05z" transform="translate(-630.46 -161)"/><path class="prefix__cls-2" d="M677.94 161.68l1.35-.26.37-.06.37-.05h1.58a7.7 7.7 0 01.83.05 6.05 6.05 0 01.88.19 7.32 7.32 0 011 .4l-1.35.26a6.16 6.16 0 00-1-.4 6.35 6.35 0 00-.88-.19 5.78 5.78 0 00-.83-.05h-1.63l-.36.05c-.09.01-.21.04-.33.06z" transform="translate(-630.46 -161)"/><path class="prefix__cls-3" d="M684.75 307l-1.44.51c-.75.25-1.3.4-1.84.55l.67-.19.67-.22.67-.25.67-.28a14.23 14.23 0 002.43-1.23 23.37 23.37 0 003.79-2.93 25.86 25.86 0 004.07-5 29.06 29.06 0 003.27-7.37 36.29 36.29 0 001.27-6.78 33 33 0 00-.88-11.13 31.61 31.61 0 00-5-10.57 32.84 32.84 0 00-4-4.62 29.08 29.08 0 00-3.57-2.92 17.58 17.58 0 00-2.24-1.35 19.85 19.85 0 00-2.06-1 14.22 14.22 0 00-3.64-1 13 13 0 00-1.61-.1h-1c-.33 0-.64 0-.94.08l-.88.11-.85.13-.66.08-.65.09c-.21 0-.41 0-.62.06h-.59a6.84 6.84 0 01-.9-.08 4 4 0 01-.87-.24 4.38 4.38 0 01-.88-.46 7.09 7.09 0 01-.91-.73 10.05 10.05 0 01-2.13-3 19.63 19.63 0 01-1.31-3.9 40.45 40.45 0 01-.74-4.36c-.18-1.49-.31-3-.43-4.43a47.48 47.48 0 01.05-8.62 51.61 51.61 0 011.29-7.37 58.35 58.35 0 011.85-5.95c.64-1.73 1.27-3.19 1.76-4.34q1-2.28 2.15-4.49c.78-1.48 1.62-2.91 2.5-4.3s1.82-2.73 2.79-4 2-2.48 3-3.6 1.87-1.94 2.76-2.77 1.76-1.56 2.58-2.22 1.63-1.26 2.39-1.81 1.49-1.05 2.18-1.52c.87-.6 1.7-1.16 2.43-1.71a13.31 13.31 0 002-1.74 7 7 0 001.3-2.06 7.68 7.68 0 00.54-2.68 10.34 10.34 0 00-.79-4 14.88 14.88 0 00-2.11-3.66 16.76 16.76 0 00-2.94-3 12.46 12.46 0 00-3.24-1.89 5.47 5.47 0 00-.9-.38 5.54 5.54 0 00-.82-.18c-.26 0-.52 0-.78-.05h-.79l.59-.1.57-.07h3.25c.23 0 .45 0 .68.07l.63.11.58.14.53.16a4.68 4.68 0 01.48.18l.32.14a12.13 12.13 0 011.44.66 14.71 14.71 0 011.31.82 12.06 12.06 0 011.23 1 13.49 13.49 0 011.13 1.07c.36.38.36.38 1 1.17.32.42.32.42.88 1.26a11 11 0 01.74 1.31 12.38 12.38 0 01.54 1.34 9 9 0 01.34 1.37 6.37 6.37 0 01.1 1.36 6.79 6.79 0 01-.09.95 4.68 4.68 0 01-.22.88 5.2 5.2 0 01-.36.84 7.2 7.2 0 01-.5.82 9 9 0 01-.66.8 9.5 9.5 0 01-.79.79c-.31.28-.34.31-.91.77-.31.25-.35.28-1 .74l-1 .71-1 .69-.84.58-.84.59-.87.63-.89.66c-.32.24-.62.48-.93.73s-.64.52-.95.78-.66.57-1 .86l-1 .95-1.06 1.11c-.37.38-.45.46-1.1 1.15-.41.44-.41.44-1.2 1.35l-1.18 1.44c-.4.5-.4.5-1.16 1.52-.38.52-.41.56-1.12 1.58-.37.54-.43.62-1.09 1.63-.35.56-.4.65-1 1.7-.34.57-.34.57-1 1.73-.33.59-.33.59-.94 1.78-.31.6-.31.6-.89 1.8-.28.61-.32.7-.82 1.83-.22.51-.43 1-.65 1.55s-.5 1.21-.74 1.82-.28.72-.77 2.1c-.28.78-.28.78-.77 2.36-.27.86-.27.86-.73 2.61-.23.94-.23.94-.63 2.85-.2 1-.2 1-.5 3.08-.14 1.09-.14 1.09-.32 3.29-.07 1.16-.07 1.16-.09 3.51 0 1.22 0 1.22.17 3.7l.15 1.79.13 1.83c.07.65.07.65.23 1.86.09.65.09.65.3 1.86.11.63.11.63.38 1.82.14.61.14.61.48 1.76.19.58.19.58.61 1.66a14.39 14.39 0 00.75 1.55 11 11 0 00.91 1.39 8.88 8.88 0 001.06 1.19l.41.37.39.3.37.24.32.18a1.69 1.69 0 00.28.12l.22.08h.13-.26 1.02-.1l.36-.06.41-.06.47-.07.51-.07.56-.06.59-.06.62-.05H680c.37 0 .44 0 1 .07.35 0 .38 0 .92.11l.89.16c.32.06.33.07.87.2.29.07.57.16.85.24l.85.29.84.34q.42.18.84.39c.28.13.56.28.83.43s.45.24.68.37.31.18 1 .6c.39.25.39.25 1.19.83.46.34.46.34 1.38 1.08.5.42.5.42 1.49 1.32.54.51.54.51 1.57 1.58.54.59.54.59 1.57 1.84.53.67.53.67 1.52 2.1.5.77.5.77 1.41 2.37a29.14 29.14 0 011.26 2.65c.19.47.19.47.54 1.44.18.52.18.52.51 1.59.16.57.16.57.45 1.75.14.62.14.62.36 1.9.11.67.11.67.25 2 .07.71.07.71.12 2.18v2.31c0 .81 0 .81-.22 2.45-.11.85-.11.85-.43 2.56-.18.9-.18.9-.66 2.69a27.35 27.35 0 01-1.12 3.17 25.71 25.71 0 01-1.36 2.8 24.76 24.76 0 01-1.57 2.46 26.1 26.1 0 01-1.7 2.15 25.44 25.44 0 01-1.79 1.85c-.72.67-.8.74-1.82 1.57-.75.59-.87.67-1.8 1.32-.77.5-.84.55-1.74 1.07s-.86.47-1.66.87c-.42.19-.49.22-1 .44-.91.21-1.23.33-1.57.51z" transform="translate(-630.46 -161)"/><path class="prefix__cls-2" d="M688.62 161.89a13.21 13.21 0 011.53.7c.72.39 1.4.87 1.41.87a17.77 17.77 0 013.08 2.8 15.77 15.77 0 012.28 3.45 11.08 11.08 0 011 3 7.91 7.91 0 01.1 1.54 6.94 6.94 0 01-.2 1.59 6.74 6.74 0 01-1 2.29c-1.2 1.81-3.47 3.37-5.66 4.87a52.85 52.85 0 00-7.77 6.21 50.51 50.51 0 00-6.2 7.45 62 62 0 00-4.88 8.53 77.1 77.1 0 00-4.13 10.88 52.75 52.75 0 00-1.21 5.53c-.33 2-.49 4.23-.52 4.72 0 1-.14 3 0 5.18.12 2.43.46 5.7.66 7.12a31.66 31.66 0 001.35 6 11.6 11.6 0 002.78 4.62 4.63 4.63 0 001.73 1.13 3.35 3.35 0 00-.59 0l1-.14a29.59 29.59 0 017.92-.35 18.46 18.46 0 016.8 2.2 30.49 30.49 0 016.68 5.12 32.25 32.25 0 013.23 3.79 30.47 30.47 0 012.24 3.57c.27.51.82 1.56 1.3 2.74a28 28 0 011.11 3.18c.06.27.17.62.24.89s.16.65.23.93.14.68.2 1c.17.83.31 1.93.33 2.06a32.94 32.94 0 01-.47 10.93 37.09 37.09 0 01-1.21 4.44 28.78 28.78 0 01-3.64 7.05 28 28 0 01-7.32 7.08 27.18 27.18 0 01-4 2.22s-1.82.76-2.51 1c-.49.18-1.41.5-2.74.86.23-.06.46-.12.69-.2l.68-.22.69-.26.69-.28a15 15 0 002.51-1.28 23.53 23.53 0 003.9-3 26.21 26.21 0 004.2-5.12 29.7 29.7 0 003.37-7.6 37.26 37.26 0 001.31-7 34.08 34.08 0 000-6.23 33.36 33.36 0 00-.93-5.32 33.76 33.76 0 00-1.44-4.33 33.3 33.3 0 00-3.69-6.63 33.72 33.72 0 00-4.16-4.76 30.72 30.72 0 00-3.68-3 18 18 0 00-2.31-1.4 19.76 19.76 0 00-2.17-1 17.26 17.26 0 00-2-.66 14.7 14.7 0 00-1.84-.34 16.89 16.89 0 00-1.69-.11h-1l-1 .08-.89.12-.83.12-.66.09-.63.08-.59.07h-.56a5 5 0 01-.78-.06 3.82 3.82 0 01-1.49-.6 5.64 5.64 0 01-.76-.61 9.27 9.27 0 01-2-2.83 18.76 18.76 0 01-1.2-3.71 38.77 38.77 0 01-.69-4.18c-.18-1.43-.3-2.87-.42-4.26a46.68 46.68 0 010-8.38 48.91 48.91 0 011.3-7.13 53.86 53.86 0 011.82-5.82c.64-1.71 1.27-3.18 1.79-4.4q1-2.25 2.12-4.43c.77-1.45 1.59-2.87 2.46-4.24s1.8-2.69 2.75-3.94 2-2.45 3-3.55 1.84-1.91 2.72-2.72 1.73-1.54 2.55-2.19 1.61-1.25 2.36-1.79 1.47-1 2.15-1.51c.91-.62 1.76-1.2 2.54-1.79a13.88 13.88 0 002.06-1.88 7.85 7.85 0 001.41-2.28 8.7 8.7 0 00.58-3 11.7 11.7 0 00-.82-4.41 16.1 16.1 0 00-2.26-4 17.51 17.51 0 00-3.15-3.17 13.52 13.52 0 00-3.47-2 13.01 13.01 0 012.55-.26 6.24 6.24 0 011 .07 3.18 3.18 0 01.76.2z" transform="translate(-630.46 -161)"/><path class="prefix__cls-3" d="M633.11 226.5c.28-1.5.67-3.51 1-5 .48-2.13 1-4.09 1.19-4.66a90.61 90.61 0 013.7-10.27 102.44 102.44 0 015.16-10.34c1-1.73 2.68-4.6 4.46-7.5.5-.8 1.32-2.14 2.56-3.9a75.78 75.78 0 016.9-8.44c1.75-1.85 6-5.93 9-8.36a23.73 23.73 0 0111.08-5.37 2 2 0 01.34-.06h1.04a16.24 16.24 0 00-2.09.56 11.2 11.2 0 00-1.69.76 4.41 4.41 0 00-1.11.86 1.23 1.23 0 00-.36.86 8.36 8.36 0 00-3.13.74 16.9 16.9 0 00-3.23 1.92 45 45 0 00-3.51 2.9c-1.22 1.1-2.52 2.33-3.92 3.64-.77.74-1.64 1.6-2.57 2.58s-1.93 2.08-3 3.31-2.07 2.55-3.13 4-2.11 3-3.14 4.7c-1.45 2.38-3 4.84-4.43 7.45s-2.92 5.37-4.29 8.38a85.93 85.93 0 00-3.76 9.81 91.89 91.89 0 00-2.83 11.76.31.31 0 01-.1-.05l-.07-.06a.09.09 0 010-.06.15.15 0 01-.07-.16z" transform="translate(-630.46 -161)"/><path class="prefix__cls-3" d="M681.47 308l-1.33.36.66-.19.67-.22.67-.25.67-.28a14.6 14.6 0 002.44-1.23 24 24 0 003.79-2.93 25.62 25.62 0 004.06-5 28.38 28.38 0 003.27-7.37 35.65 35.65 0 001.28-6.79 33.48 33.48 0 000-6 32 32 0 00-9.87-20.32 30.24 30.24 0 00-3.57-2.93 19.75 19.75 0 00-2.24-1.35 19 19 0 00-2.07-1 15.49 15.49 0 00-1.89-.63 15.25 15.25 0 00-1.75-.33 12.76 12.76 0 00-1.61-.1h-1c-.32 0-.63 0-.93.08l-.89.11-.84.13-.67.08-.64.09-.62.06h-.59a6.55 6.55 0 01-.9-.08 4.8 4.8 0 01-.88-.24 5 5 0 01-.88-.46 7 7 0 01-.9-.74 9.91 9.91 0 01-2.14-3 19.72 19.72 0 01-1.31-3.91 40.45 40.45 0 01-.74-4.36c-.18-1.49-.31-3-.43-4.43a47.59 47.59 0 01.05-8.63 50.15 50.15 0 011.29-7.38 59.15 59.15 0 011.85-5.95c.64-1.73 1.26-3.19 1.76-4.34.65-1.52 1.37-3 2.15-4.5s1.62-2.91 2.5-4.3 1.82-2.73 2.79-4 2-2.48 3-3.6 1.87-1.95 2.76-2.77 1.76-1.56 2.59-2.23 1.62-1.26 2.38-1.8 1.49-1.05 2.18-1.53c.88-.6 1.7-1.15 2.44-1.71a13.75 13.75 0 001.94-1.74 7.15 7.15 0 001.31-2.06 7.69 7.69 0 00.53-2.68 10.6 10.6 0 00-.78-4 14.92 14.92 0 00-2.12-3.66A16.76 16.76 0 00686 165a12.46 12.46 0 00-3.24-1.89 5.47 5.47 0 00-.9-.38 4.51 4.51 0 00-.82-.18 6.81 6.81 0 00-.78 0h-.79l1.35-.26h.79c.26 0 .52 0 .78.05a5.54 5.54 0 01.82.18 5.47 5.47 0 01.9.38 12.46 12.46 0 013.24 1.89 16.76 16.76 0 012.94 3 14.88 14.88 0 012.11 3.66 10.34 10.34 0 01.79 4 7.68 7.68 0 01-.54 2.68 7 7 0 01-1.3 2.06 13.31 13.31 0 01-2 1.74c-.73.55-1.56 1.11-2.43 1.71-.69.47-1.42 1-2.18 1.52s-1.56 1.14-2.39 1.81-1.69 1.4-2.58 2.22-1.81 1.74-2.76 2.77-2 2.32-3 3.6-1.9 2.61-2.79 4-1.72 2.82-2.5 4.3-1.5 3-2.15 4.49c-.49 1.15-1.12 2.61-1.76 4.34a58.35 58.35 0 00-1.85 5.95 51.61 51.61 0 00-1.29 7.37 47.48 47.48 0 00-.05 8.62c.12 1.44.25 2.94.43 4.43a40.45 40.45 0 00.74 4.36 19.63 19.63 0 001.31 3.9 10.05 10.05 0 002.13 3 7.09 7.09 0 00.91.73 4.38 4.38 0 00.88.46 4 4 0 00.87.24 6.84 6.84 0 00.9.08h.59c.21 0 .41 0 .62-.06l.65-.09.66-.08.85-.13.88-.11c.3 0 .61-.06.94-.08s.65 0 1 0a13 13 0 011.61.1 14.22 14.22 0 013.64 1 19.85 19.85 0 012.06 1 17.58 17.58 0 012.24 1.35 29.08 29.08 0 013.57 2.92 32.84 32.84 0 014 4.62 31.61 31.61 0 015 10.57 33 33 0 01.88 11.13 36.29 36.29 0 01-1.27 6.78 29.06 29.06 0 01-3.27 7.37 25.86 25.86 0 01-4.07 5 23.37 23.37 0 01-3.79 2.93 14.23 14.23 0 01-2.43 1.23l-.67.28-.67.25-.67.22z" transform="translate(-630.46 -161)"/><path class="prefix__cls-2" d="M681.74 309l-1.34.36c.23-.06.46-.12.69-.2l.69-.22.69-.26.69-.28a15.07 15.07 0 002.5-1.28 23.56 23.56 0 003.91-3 26.57 26.57 0 004.19-5.13 29.36 29.36 0 003.37-7.6 36.49 36.49 0 001.32-7 34 34 0 000-6.23 33.69 33.69 0 00-.93-5.33 32.15 32.15 0 00-1.43-4.32 33.13 33.13 0 00-3.7-6.64 33.69 33.69 0 00-4.15-4.76 31.74 31.74 0 00-3.69-3 17.8 17.8 0 00-2.31-1.39 17.61 17.61 0 00-2.18-1 16.65 16.65 0 00-2-.66 14.9 14.9 0 00-1.83-.34 16.89 16.89 0 00-1.69-.11h-1l-1 .08-.89.12-.84.12-.66.09-.62.08-.6.07h-.55a4.93 4.93 0 01-.78-.06 3.79 3.79 0 01-.75-.21 3.84 3.84 0 01-.75-.39 6.49 6.49 0 01-.76-.62 8.85 8.85 0 01-2-2.83 18.24 18.24 0 01-1.21-3.7 42.08 42.08 0 01-.69-4.19c-.18-1.43-.3-2.87-.42-4.26a46.78 46.78 0 010-8.39 48.91 48.91 0 011.23-7.15 53.38 53.38 0 011.82-5.83c.63-1.71 1.27-3.18 1.79-4.4.64-1.5 1.35-3 2.12-4.44s1.59-2.87 2.46-4.24 1.8-2.69 2.75-3.94 2-2.45 3-3.55 1.85-1.91 2.72-2.72 1.74-1.54 2.55-2.2 1.61-1.24 2.36-1.79l2.15-1.5c.91-.62 1.77-1.2 2.54-1.8a13.44 13.44 0 002.07-1.88 7.72 7.72 0 001.41-2.28 9 9 0 00.58-3 12 12 0 00-.83-4.41 16.29 16.29 0 00-2.26-4 17.79 17.79 0 00-3.14-3.17 13.74 13.74 0 00-3.48-2l1.35-.26a13.52 13.52 0 013.47 2 17.51 17.51 0 013.15 3.17 16.1 16.1 0 012.26 4 11.7 11.7 0 01.82 4.41 8.7 8.7 0 01-.58 3 7.85 7.85 0 01-1.41 2.28 13.88 13.88 0 01-2.06 1.88c-.78.59-1.63 1.17-2.54 1.79-.68.47-1.4 1-2.15 1.51s-1.54 1.13-2.36 1.79-1.67 1.38-2.55 2.19-1.78 1.71-2.72 2.72-2 2.29-3 3.55-1.87 2.57-2.75 3.94-1.69 2.79-2.46 4.24-1.48 2.93-2.12 4.43c-.52 1.22-1.15 2.69-1.79 4.4a53.86 53.86 0 00-1.72 5.74 48.91 48.91 0 00-1.23 7.15 46.68 46.68 0 000 8.38c.12 1.39.24 2.83.42 4.26a38.77 38.77 0 00.69 4.18 18.76 18.76 0 001.2 3.71 9.27 9.27 0 002 2.83 5.64 5.64 0 00.76.61 3.82 3.82 0 001.49.6 5 5 0 00.78.06h.56l.59-.07.63-.08.66-.09.83-.12.89-.12 1-.08h1a16.89 16.89 0 011.69.11 14.7 14.7 0 011.84.34 17.26 17.26 0 012 .66 19.76 19.76 0 012.17 1 18 18 0 012.31 1.4 30.72 30.72 0 013.68 3 33.72 33.72 0 014.16 4.76 33.3 33.3 0 013.69 6.63 33.76 33.76 0 011.44 4.33 33.36 33.36 0 01.93 5.32 34.08 34.08 0 010 6.23 37.26 37.26 0 01-1.31 7 29.7 29.7 0 01-3.37 7.6 26.21 26.21 0 01-4.2 5.12 23.53 23.53 0 01-3.9 3 15 15 0 01-2.51 1.28l-.69.28-.69.26-.68.22c-.33.09-.53.15-.79.24z" transform="translate(-630.46 -161)"/><path class="prefix__cls-3" d="M680.14 308.37a30.45 30.45 0 01-10.95 1 29.32 29.32 0 01-10-3 39.25 39.25 0 01-4.95-3 38.13 38.13 0 01-4.87-4.07 42.23 42.23 0 01-3.4-3.85 49.11 49.11 0 01-3.58-5.34 59.25 59.25 0 01-2.71-5.3c-1.29-2.84-2.43-6-2.44-6-.24-.69-.51-1.37-.76-2.06s-.55-1.59-.78-2.27-.53-1.6-.73-2.3a88.57 88.57 0 01-2.66-11.8c-.2-1.37-.4-2.67-.61-4.88-.17-1.66-.17-1.66-.36-5-.07-1.25-.07-1.69-.09-5.06v-2.56c0-.14.08-3.4.56-7.84.11-1 .43-4 1.16-8.05v.07a.21.21 0 000 .06l.06.06.11.05a113.31 113.31 0 00-1.56 13.15 98.41 98.41 0 00.06 12.63 88.69 88.69 0 001.67 12.08 85 85 0 003.26 11.51c.58 1.61 1.27 3.49 2.1 5.51a65.89 65.89 0 003 6.41 48.35 48.35 0 004.26 6.58 37.31 37.31 0 005.84 6c.75.61 1.73 1.36 2.89 2.14a35.55 35.55 0 004 2.35 29 29 0 004.87 1.91 21.49 21.49 0 005.48.87 16.93 16.93 0 001.88-.05 18.17 18.17 0 001.91-.25 17.46 17.46 0 001.93-.47 20 20 0 001.94-.72 17.28 17.28 0 002.21-1.19 22.5 22.5 0 003.57-2.76 24.13 24.13 0 003.87-4.67 26.21 26.21 0 003.09-6.92 34.82 34.82 0 001.19-6.35 30.77 30.77 0 000-5.6 30 30 0 00-.82-4.75 29.06 29.06 0 00-1.25-3.82 29.35 29.35 0 00-3.36-6 30.8 30.8 0 00-3.8-4.31 30.24 30.24 0 00-3.35-2.74 19.87 19.87 0 00-2-1.28 17.86 17.86 0 00-1.89-.91 13.82 13.82 0 00-1.72-.57 12.89 12.89 0 00-3-.4h-.92l-.88.07-.85.11-.82.12-.69.11-.69.08c-.22 0-.45.05-.67.06a5 5 0 01-.67 0 7.17 7.17 0 01-1.13-.09 5.82 5.82 0 01-2.29-.93 8.62 8.62 0 01-1.18-.95 12.3 12.3 0 01-2.53-3.57 21.28 21.28 0 01-1.52-4.37 42.13 42.13 0 01-.82-4.73c-.2-1.59-.33-3.16-.46-4.64a51.43 51.43 0 01.05-9.06 52.85 52.85 0 011.33-7.72 59.08 59.08 0 011.92-6.19c.66-1.79 1.3-3.29 1.8-4.47.67-1.57 1.41-3.13 2.21-4.64s1.67-3 2.58-4.44 1.87-2.82 2.87-4.14 2-2.56 3.1-3.72 1.93-2 2.85-2.85 1.8-1.61 2.65-2.3 1.66-1.29 2.44-1.85 1.52-1.07 2.21-1.55c.85-.59 1.61-1.11 2.28-1.61a14.63 14.63 0 001.71-1.5 5.73 5.73 0 001.09-1.61 4.9 4.9 0 00.41-2 8.16 8.16 0 00-.65-3.19 13.24 13.24 0 00-1.82-3 15.86 15.86 0 00-2.53-2.52 11.19 11.19 0 00-2.83-1.65c-.23-.09-.47-.17-.7-.24s-.46-.12-.69-.16l-.69-.09h-.69a1.23 1.23 0 01.36-.86 4.41 4.41 0 011.11-.86 11.2 11.2 0 011.69-.76 16.24 16.24 0 012.09-.56h.79a6.81 6.81 0 01.78 0 4.51 4.51 0 01.82.18 5.47 5.47 0 01.9.38A12.46 12.46 0 01686 165a16.76 16.76 0 012.94 2.95 14.92 14.92 0 012.12 3.66 10.6 10.6 0 01.78 4 7.69 7.69 0 01-.53 2.68 7.15 7.15 0 01-1.31 2.06 13.75 13.75 0 01-1.94 1.74c-.74.56-1.56 1.11-2.44 1.71-.69.48-1.42 1-2.18 1.53s-1.56 1.14-2.38 1.8-1.69 1.4-2.59 2.23-1.81 1.74-2.76 2.77-2 2.32-3 3.6-1.9 2.61-2.79 4-1.72 2.83-2.5 4.3-1.5 3-2.15 4.5c-.5 1.15-1.12 2.61-1.76 4.34a59.15 59.15 0 00-1.85 5.95 50.15 50.15 0 00-1.29 7.38 47.59 47.59 0 00-.05 8.63c.12 1.44.25 2.94.43 4.43a40.45 40.45 0 00.74 4.36 19.72 19.72 0 001.31 3.91 9.91 9.91 0 002.14 3 7 7 0 00.9.74 5 5 0 00.88.46 4.8 4.8 0 00.88.24 6.55 6.55 0 00.9.08h.59l.62-.06.64-.09.67-.08.84-.13.89-.11c.3 0 .61-.06.93-.08s.65 0 1 0a12.76 12.76 0 011.61.1 15.25 15.25 0 011.75.33 15.49 15.49 0 011.89.63 19 19 0 012.07 1 19.75 19.75 0 012.24 1.35 30.24 30.24 0 013.57 2.93 31.94 31.94 0 019.87 20.32 33.48 33.48 0 010 6 35.65 35.65 0 01-1.28 6.79 28.38 28.38 0 01-3.27 7.37 25.62 25.62 0 01-4.06 5 24 24 0 01-3.79 2.93 14.6 14.6 0 01-2.44 1.23l-.67.28-.67.25-.67.22z" transform="translate(-630.46 -161)"/><path class="prefix__cls-2" d="M632.35 226.2c.28-1.52.67-3.55 1-5 .59-2.6 1.2-4.69 1.21-4.72a90.13 90.13 0 013.67-10.36 101.38 101.38 0 015.18-10.4c1.19-2.13 3.16-5.39 4.48-7.54.41-.66 1.36-2.22 2.6-4a76.73 76.73 0 017-8.55 118 118 0 019-8.43 24.51 24.51 0 0111.4-5.5c.12 0 .24-.05.37-.06l.36-.05H680.21a5.78 5.78 0 01.83.05 6.35 6.35 0 01.88.19 6.16 6.16 0 011 .4 16.15 16.15 0 00-2.13.55 12.22 12.22 0 00-1.8.74 6.3 6.3 0 00-1.28.83 1.61 1.61 0 00-.56.83c-.26-.1-.51-.19-.76-.26a6.74 6.74 0 00-.75-.17 6.42 6.42 0 00-.75-.1h-.74a9 9 0 00-3.33.78 17.91 17.91 0 00-3.4 2 45.57 45.57 0 00-3.59 2.95c-1.25 1.11-2.55 2.34-3.93 3.65-.79.74-1.67 1.61-2.61 2.61s-1.94 2.11-3 3.34-2.1 2.6-3.17 4.07S649 187 648 188.74c-1.46 2.39-3 4.85-4.44 7.47s-2.94 5.41-4.32 8.44a89.47 89.47 0 00-3.79 9.9 94.83 94.83 0 00-2.86 11.89l-.1-.05a.17.17 0 01-.06-.06v-.06a.08.08 0 01-.08-.07zM679.05 304.54l.15-.05a1.94 1.94 0 00-.52.26 17.56 17.56 0 002.41-1.45 20.32 20.32 0 002.44-2.09 21.89 21.89 0 002.15-2.55 22.38 22.38 0 002-3.26 28.3 28.3 0 002.51-8.08 31.42 31.42 0 00.31-7.86 29.38 29.38 0 00-1.76-7.7 28.3 28.3 0 00-3.54-6.5 30.68 30.68 0 00-5.07-5.39 19 19 0 00-6.18-3.69 5.59 5.59 0 00-3.13-.24h.14a23.41 23.41 0 01-7.08.36 8.61 8.61 0 01-4.62-2 11.42 11.42 0 01-1.8-1.9 15.23 15.23 0 01-1.84-3.22 25.34 25.34 0 01-1.19-3.65c0-.29-.15-.67-.21-1s-.14-.67-.19-1c-.11-.58-.25-1.35-.31-1.94-.07-.64-.17-1.29-.24-1.93s-.13-1.24-.27-2.83a50.55 50.55 0 01-.16-8.34 53.92 53.92 0 012.58-13.49 84.4 84.4 0 013.93-9.71 64.82 64.82 0 014.74-8.16 54 54 0 0114-14.22c1.27-.9 2.58-1.77 3.83-2.7a12.28 12.28 0 001.29-1.1 3.87 3.87 0 001.14-2.79h.18a4.9 4.9 0 01-.41 2 5.73 5.73 0 01-1.09 1.61 14.63 14.63 0 01-1.71 1.5c-.67.5-1.43 1-2.28 1.61-.69.48-1.43 1-2.21 1.55s-1.59 1.17-2.44 1.85-1.74 1.45-2.65 2.3-1.87 1.79-2.85 2.85-2.1 2.41-3.1 3.72-2 2.7-2.87 4.14-1.77 2.92-2.58 4.44-1.54 3.07-2.21 4.64c-.5 1.18-1.14 2.68-1.8 4.47a59.08 59.08 0 00-1.92 6.19 52.85 52.85 0 00-1.33 7.72 51.43 51.43 0 00-.05 9.06c.13 1.48.26 3.05.46 4.64a42.13 42.13 0 00.82 4.73 21.28 21.28 0 001.52 4.37 12.3 12.3 0 002.53 3.57 8.62 8.62 0 001.18.95 5.82 5.82 0 002.29.93 7.17 7.17 0 001.13.09 5 5 0 00.67 0c.22 0 .45 0 .67-.06l.69-.08.69-.11.82-.12.85-.11.88-.07h.92a12.89 12.89 0 013 .4 13.82 13.82 0 011.72.57 17.86 17.86 0 011.89.91 19.87 19.87 0 012 1.28 30.24 30.24 0 013.35 2.74 30.8 30.8 0 013.8 4.31 29.35 29.35 0 013.36 6 29.06 29.06 0 011.25 3.82 30 30 0 01.82 4.75 30.77 30.77 0 010 5.6 34.82 34.82 0 01-1.19 6.35 26.21 26.21 0 01-3.09 6.92 24.13 24.13 0 01-3.87 4.67 22.5 22.5 0 01-3.57 2.76 17.28 17.28 0 01-2.21 1.19 20 20 0 01-1.94.72 17.46 17.46 0 01-1.93.47 18.17 18.17 0 01-1.91.25 16.93 16.93 0 01-1.88.05 21.49 21.49 0 01-5.48-.87 29 29 0 01-4.87-1.91 35.55 35.55 0 01-4-2.35c-1.16-.78-2.14-1.53-2.89-2.14a37.31 37.31 0 01-5.84-6 48.35 48.35 0 01-4.26-6.58 65.89 65.89 0 01-3-6.41c-.83-2-1.52-3.9-2.1-5.51a85 85 0 01-3.26-11.51 88.69 88.69 0 01-1.67-12.08 98.41 98.41 0 01-.06-12.63 113.31 113.31 0 011.56-13.15 3 3 0 001 .15 14 14 0 001.65-.05c.63 0 1.33-.14 2.05-.25s1.49-.25 2.24-.42a117.57 117.57 0 00-1.41 12.63 105.08 105.08 0 000 12.3 88.28 88.28 0 001.55 11.84 77.67 77.67 0 003.12 11.21c.57 1.58 1.24 3.4 2 5.35a63.21 63.21 0 002.89 6.16 45.12 45.12 0 004.06 6.27 35 35 0 005.53 5.71c.72.59 1.65 1.3 2.75 2a34.43 34.43 0 003.8 2.22 27.36 27.36 0 004.6 1.81 20.46 20.46 0 005.17.81h1.16c.39 0 .79-.05 1.19-.09l1.19-.18z" transform="translate(-630.46 -161)"/><path class="prefix__cls-2" d="M684.57 176.34a5.93 5.93 0 00-.08-1.17 8.54 8.54 0 00-.53-1.78 12.29 12.29 0 00-1.71-2.82 13.45 13.45 0 00-2.8-2.66l-.45-.3-.66-.38-.24-.16h-.05s-1-.26-1.28-.31a6.81 6.81 0 002-.12 8.91 8.91 0 00-2.54 1 20.34 20.34 0 00-2.77 1.86c-1 .75-2 1.63-3.07 2.62s-2.25 2.07-3.5 3.25c-.76.72-1.61 1.56-2.52 2.51s-1.88 2-2.88 3.23-2 2.49-3.06 3.91-2.07 2.94-3.07 4.58c-1.44 2.36-2.92 4.77-4.38 7.34s-2.89 5.28-4.23 8.22a84.22 84.22 0 00-3.69 9.59 89.75 89.75 0 00-2.78 11.47c-.74.17-1.5.31-2.23.42s-1.43.19-2.06.25-1.19.07-1.65.06a3 3 0 01-1-.15 91.89 91.89 0 012.81-11.8 85.93 85.93 0 013.76-9.81c1.37-3 2.82-5.78 4.29-8.38s3-5.07 4.43-7.45c1-1.68 2.09-3.25 3.14-4.7s2.11-2.79 3.13-4 2-2.33 3-3.31 1.8-1.84 2.57-2.58c1.4-1.31 2.7-2.54 3.92-3.64a45 45 0 013.51-2.9 16.9 16.9 0 013.23-1.92 8.36 8.36 0 013.13-.74h.69l.69.09c.23 0 .46.1.69.16s.47.15.7.24a11.19 11.19 0 012.83 1.65 15.86 15.86 0 012.53 2.52 13.24 13.24 0 011.82 3 8.16 8.16 0 01.65 3.19h-.18z" transform="translate(-630.46 -161)"/><path class="prefix__cls-3" d="M674.21 165.54h.69l.69.09c.23 0 .46.1.69.16s.47.15.7.24a11.19 11.19 0 012.83 1.65 15.86 15.86 0 012.53 2.52 13.24 13.24 0 011.82 3 8.16 8.16 0 01.65 3.19 4.9 4.9 0 01-.41 2 5.73 5.73 0 01-1.09 1.61 14.63 14.63 0 01-1.71 1.5c-.67.5-1.43 1-2.28 1.61-.69.48-1.43 1-2.21 1.55s-1.59 1.17-2.44 1.85-1.74 1.45-2.65 2.3-1.87 1.79-2.85 2.85-2.1 2.41-3.1 3.72-2 2.7-2.87 4.14-1.77 2.92-2.58 4.44-1.54 3.07-2.21 4.64c-.5 1.18-1.14 2.68-1.8 4.47a59.08 59.08 0 00-1.92 6.19 52.85 52.85 0 00-1.33 7.72 51.43 51.43 0 00-.05 9.06c.13 1.48.26 3.05.46 4.64a42.13 42.13 0 00.82 4.73 21.28 21.28 0 001.52 4.37 12.3 12.3 0 002.53 3.57 8.62 8.62 0 001.18.95 5.82 5.82 0 002.29.93 7.17 7.17 0 001.13.09 5 5 0 00.67 0c.22 0 .45 0 .67-.06l.69-.08.69-.11.82-.12.85-.11.88-.07h.92a12.89 12.89 0 013 .4 13.82 13.82 0 011.72.57 17.86 17.86 0 011.89.91 19.87 19.87 0 012 1.28 30.24 30.24 0 013.35 2.74 30.8 30.8 0 013.8 4.31 29.35 29.35 0 013.36 6 29.06 29.06 0 011.25 3.82 30 30 0 01.82 4.75 30.77 30.77 0 010 5.6 34.82 34.82 0 01-1.19 6.35 26.21 26.21 0 01-3.09 6.92 24.13 24.13 0 01-3.87 4.67 22.5 22.5 0 01-3.57 2.76 17.28 17.28 0 01-2.21 1.19 20 20 0 01-1.94.72 17.46 17.46 0 01-1.93.47 18.17 18.17 0 01-1.91.25 16.93 16.93 0 01-1.88.05 21.49 21.49 0 01-5.48-.87 29 29 0 01-4.87-1.91 35.55 35.55 0 01-4-2.35c-1.16-.78-2.14-1.53-2.89-2.14a37.31 37.31 0 01-5.84-6 48.35 48.35 0 01-4.26-6.58 65.89 65.89 0 01-3-6.41c-.83-2-1.52-3.9-2.1-5.51a85 85 0 01-3.26-11.51 88.69 88.69 0 01-1.67-12.08 98.41 98.41 0 01-.06-12.63 113.31 113.31 0 011.56-13.15V226.82a91.89 91.89 0 012.99-11.82 85.93 85.93 0 013.76-9.81c1.37-3 2.82-5.78 4.29-8.38s3-5.07 4.43-7.45c1-1.68 2.09-3.25 3.14-4.7s2.11-2.79 3.13-4 2-2.33 3-3.31 1.8-1.84 2.57-2.58c1.4-1.31 2.7-2.54 3.92-3.64a45 45 0 013.51-2.9 16.9 16.9 0 013.23-1.92 8.36 8.36 0 013.08-.77z" transform="translate(-630.46 -161)"/><path class="prefix__cls-2" d="M677.16 165.1a12.08 12.08 0 013.06 1.78 16.14 16.14 0 012.74 2.74 14 14 0 012 3.35 9.32 9.32 0 01.7 3.59 6.22 6.22 0 01-.46 2.29 6.55 6.55 0 01-1.2 1.84 13.53 13.53 0 01-1.83 1.63c-.7.54-1.5 1.09-2.37 1.69-.69.48-1.42 1-2.19 1.54s-1.57 1.16-2.41 1.84-1.72 1.42-2.62 2.26-1.84 1.77-2.8 2.81-2.08 2.37-3.07 3.67-1.93 2.66-2.83 4.07-1.75 2.88-2.54 4.38-1.52 3-2.18 4.58c-.53 1.25-1.18 2.77-1.84 4.54a60.43 60.43 0 00-1.88 6.06 49.94 49.94 0 00-1.3 16.31c.12 1.42.25 2.94.43 4.47a42.17 42.17 0 00.78 4.54 21 21 0 001.41 4.18 11.56 11.56 0 002.36 3.36 7.35 7.35 0 001 .83 5.59 5.59 0 001 .54 5.34 5.34 0 001 .28 7 7 0 001 .09h.63l.64-.06.67-.09.69-.11.81-.12.85-.1c.29 0 .59-.06.9-.08s.63 0 .95 0c.49 0 1 0 1.54.1a14.08 14.08 0 011.68.32 13.79 13.79 0 011.82.6 17.82 17.82 0 012 .95 22.58 22.58 0 012.09 1.32 31.32 31.32 0 013.47 2.84 30.81 30.81 0 017.4 10.63 31.38 31.38 0 011.33 4 32.72 32.72 0 01.86 5 33.23 33.23 0 010 5.82 35.2 35.2 0 01-1.23 6.59 27.33 27.33 0 01-3.19 7.15 25.38 25.38 0 01-4 4.82 24.68 24.68 0 01-3.69 2.85 18.52 18.52 0 01-2.29 1.23 18.12 18.12 0 01-2 .74 16 16 0 01-2 .49 16.89 16.89 0 01-2 .26 18.08 18.08 0 01-1.94.05 22.69 22.69 0 01-5.64-.89 28.81 28.81 0 01-5-2 36.63 36.63 0 01-4.11-2.4c-1.19-.8-2.19-1.57-3-2.2a38.64 38.64 0 01-6-6.18 47.51 47.51 0 01-4.35-6.71 68.49 68.49 0 01-3.08-6.53c-.85-2.06-1.54-4-2.13-5.61a84.14 84.14 0 01-3.31-11.67 89.11 89.11 0 01-1.49-12.28 97.17 97.17 0 01-.06-12.78 113.84 113.84 0 011.52-13.31v-.56a94.83 94.83 0 012.86-11.89 89.47 89.47 0 013.79-9.9c1.38-3 2.84-5.81 4.32-8.44s3-5.08 4.44-7.47c1-1.72 2.12-3.31 3.19-4.79s2.14-2.83 3.17-4.07 2-2.35 3-3.34 1.82-1.87 2.61-2.61c1.38-1.31 2.68-2.54 3.93-3.65a45.57 45.57 0 013.59-2.95 17.91 17.91 0 013.4-2 9 9 0 013.33-.78h.74a6.42 6.42 0 01.75.1 6.74 6.74 0 01.75.17c.32.09.57.18.83.28zm7.65 11.35a8.16 8.16 0 00-.65-3.19 13.24 13.24 0 00-1.82-3 15.86 15.86 0 00-2.53-2.52 11.19 11.19 0 00-2.83-1.65c-.23-.09-.47-.17-.7-.24s-.46-.12-.69-.16l-.69-.09h-.69a8.36 8.36 0 00-3.13.74 16.9 16.9 0 00-3.23 1.92 45 45 0 00-3.51 2.9c-1.22 1.1-2.52 2.33-3.92 3.64-.77.74-1.64 1.6-2.57 2.58s-1.93 2.08-3 3.31-2.07 2.55-3.13 4-2.11 3-3.14 4.7c-1.45 2.38-3 4.84-4.43 7.45s-2.92 5.37-4.29 8.38a85.93 85.93 0 00-3.76 9.81 91.89 91.89 0 00-2.83 11.76V227.36a113.31 113.31 0 00-1.56 13.15 98.41 98.41 0 00.06 12.63 88.69 88.69 0 001.67 12.08 85 85 0 003.26 11.51c.58 1.61 1.27 3.49 2.1 5.51a65.89 65.89 0 003 6.41 48.35 48.35 0 004.26 6.58 37.31 37.31 0 005.84 6c.75.61 1.73 1.36 2.89 2.14a35.55 35.55 0 004 2.35 29 29 0 004.87 1.91 21.49 21.49 0 005.48.87 16.93 16.93 0 001.88-.05 18.17 18.17 0 001.91-.25 17.46 17.46 0 001.93-.47 20 20 0 001.94-.72 17.28 17.28 0 002.21-1.19 22.5 22.5 0 003.57-2.76 24.13 24.13 0 003.87-4.67 26.21 26.21 0 003.09-6.92 34.82 34.82 0 001.19-6.35 30.77 30.77 0 000-5.6 30 30 0 00-.82-4.75 29.06 29.06 0 00-1.25-3.82 29.35 29.35 0 00-3.36-6 30.8 30.8 0 00-3.8-4.31 30.24 30.24 0 00-3.35-2.74 19.87 19.87 0 00-2-1.28 17.86 17.86 0 00-1.89-.91 13.82 13.82 0 00-1.72-.57 12.89 12.89 0 00-3-.4h-.92l-.88.07-.85.11-.82.12-.69.11-.69.08c-.22 0-.45.05-.67.06a5 5 0 01-.67 0 7.17 7.17 0 01-1.13-.09 5.82 5.82 0 01-2.29-.93 8.62 8.62 0 01-1.18-.95 12.3 12.3 0 01-2.53-3.57 21.28 21.28 0 01-1.52-4.37 42.13 42.13 0 01-.82-4.73c-.2-1.59-.33-3.16-.46-4.64a51.43 51.43 0 01.05-9.06 52.85 52.85 0 011.33-7.72 59.08 59.08 0 011.92-6.19c.66-1.79 1.3-3.29 1.8-4.47.67-1.57 1.41-3.13 2.21-4.64s1.67-3 2.58-4.44 1.87-2.82 2.87-4.14 2-2.56 3.1-3.72 1.93-2 2.85-2.85 1.8-1.61 2.65-2.3 1.66-1.29 2.44-1.85 1.52-1.07 2.21-1.55c.85-.59 1.61-1.11 2.28-1.61a14.63 14.63 0 001.71-1.5 5.73 5.73 0 001.09-1.61 4.9 4.9 0 00.41-2" transform="translate(-630.46 -161)"/><path class="prefix__cls-2" d="M680.4 309.33a31 31 0 01-11.18 1 29.86 29.86 0 01-10.23-3 37.16 37.16 0 01-5.07-3 38.55 38.55 0 01-5-4.16 40.28 40.28 0 01-3.48-3.94 49.42 49.42 0 01-3.66-5.45 59.82 59.82 0 01-2.76-5.4c-1.31-2.87-2.48-6.09-2.49-6.11-.11-.33-.28-.76-.4-1.08-.32-.87-.71-2-1.17-3.32-.23-.7-.53-1.63-.73-2.33a88.27 88.27 0 01-2.7-12 100.86 100.86 0 01.71-33.77v.13l.07.06a.23.23 0 00.1.05 113.84 113.84 0 00-1.57 13.31 97.17 97.17 0 00.06 12.78 89.11 89.11 0 001.69 12.23A84.14 84.14 0 00636 277c.59 1.64 1.28 3.55 2.13 5.61a68.49 68.49 0 003.08 6.53 47.51 47.51 0 004.35 6.71 38.64 38.64 0 006 6.18c.77.63 1.77 1.4 3 2.2a36.63 36.63 0 004.11 2.4 28.81 28.81 0 005 2 22.69 22.69 0 005.64.89 18.08 18.08 0 001.94-.05 16.89 16.89 0 002-.26 16 16 0 002-.49 18.12 18.12 0 002-.74 18.52 18.52 0 002.29-1.23 24.68 24.68 0 003.69-2.85 25.38 25.38 0 004-4.82 27.33 27.33 0 003.19-7.15 35.2 35.2 0 001.23-6.59 33.23 33.23 0 000-5.82 32.72 32.72 0 00-.86-5 31.38 31.38 0 00-1.33-4 30.81 30.81 0 00-7.4-10.63 31.32 31.32 0 00-3.47-2.84 22.58 22.58 0 00-2.09-1.32 17.82 17.82 0 00-2-.95 13.79 13.79 0 00-1.82-.6 14.08 14.08 0 00-1.68-.32c-.53-.06-1.05-.09-1.54-.1h-.95c-.31 0-.61 0-.9.08l-.85.1-.81.12-.69.11-.67.09-.64.06h-.63a7 7 0 01-1-.09 5.34 5.34 0 01-1-.28 5.59 5.59 0 01-1-.54 7.35 7.35 0 01-1-.83 11.56 11.56 0 01-2.36-3.36 21 21 0 01-1.41-4.18 42.17 42.17 0 01-.78-4.54c-.18-1.53-.31-3-.43-4.47a49.94 49.94 0 011.3-16.31 60.43 60.43 0 011.88-6.06c.66-1.77 1.31-3.29 1.84-4.54q1-2.32 2.18-4.58t2.54-4.38c.9-1.41 1.85-2.78 2.83-4.07s2-2.53 3.07-3.67 1.89-2 2.8-2.81 1.78-1.59 2.62-2.26 1.64-1.29 2.41-1.84 1.5-1.06 2.19-1.54c.87-.6 1.67-1.15 2.37-1.69a13.53 13.53 0 001.83-1.63 6.55 6.55 0 001.2-1.84 6.22 6.22 0 00.46-2.29 9.32 9.32 0 00-.7-3.59 14 14 0 00-2-3.35 16.14 16.14 0 00-2.74-2.74 12.08 12.08 0 00-3.06-1.78 1.61 1.61 0 01.56-.83 6.3 6.3 0 011.28-.83 12.22 12.22 0 011.8-.74 16.15 16.15 0 012.13-.55 13.74 13.74 0 013.48 2 17.79 17.79 0 013.14 3.17 16.29 16.29 0 012.26 4 12 12 0 01.83 4.41 9 9 0 01-.58 3 7.72 7.72 0 01-1.41 2.28 13.44 13.44 0 01-2.07 1.88c-.77.6-1.63 1.18-2.54 1.8l-2.15 1.5c-.75.55-1.54 1.14-2.36 1.79s-1.67 1.38-2.55 2.2-1.78 1.71-2.72 2.72-2 2.29-3 3.55-1.87 2.57-2.75 3.94-1.69 2.79-2.46 4.24-1.48 2.94-2.12 4.44c-.52 1.22-1.16 2.69-1.79 4.4a53.38 53.38 0 00-1.82 5.83 48.91 48.91 0 00-1.23 7.15 46.78 46.78 0 000 8.39c.12 1.39.24 2.83.42 4.26a42.08 42.08 0 00.69 4.19 18.24 18.24 0 001.21 3.7 8.85 8.85 0 002 2.83 6.49 6.49 0 00.76.62 3.84 3.84 0 00.75.39 3.79 3.79 0 00.75.21 4.93 4.93 0 00.78.06h.55l.6-.07.62-.08.66-.09.84-.12.89-.12 1-.08h1a16.89 16.89 0 011.69.11 14.9 14.9 0 011.83.34 16.65 16.65 0 012 .66 17.61 17.61 0 012.18 1 17.8 17.8 0 012.31 1.39 31.74 31.74 0 013.69 3 33.69 33.69 0 014.15 4.76 33.13 33.13 0 013.7 6.64 32.15 32.15 0 011.43 4.32 33.69 33.69 0 01.93 5.33 34 34 0 010 6.23 36.49 36.49 0 01-1.32 7 29.36 29.36 0 01-3.37 7.6 26.57 26.57 0 01-4.19 5.13 23.56 23.56 0 01-3.91 3 15.07 15.07 0 01-2.5 1.28l-.69.28-.69.26-.69.22c-.5.16-.73.22-.96.28z" transform="translate(-630.46 -161)"/></g></svg>