<svg xmlns="http://www.w3.org/2000/svg" viewBox="0 0 643.56 502.87"><defs><style>.cls-1{isolation:isolate;}.cls-2,.cls-5{fill:#8bbcff;opacity:0.8;}.cls-3{fill:#f15a24;}.cls-4{fill:#d4145a;}.cls-4,.cls-6{opacity:0.75;}.cls-5{mix-blend-mode:multiply;}.cls-6{fill:#fbb03b;}</style></defs><g class="cls-1"><g id="Layer_1" data-name="Layer 1"><path class="cls-2" d="M906,481.3a320.56,320.56,0,0,1-41.4,116.53A324.59,324.59,0,0,1,709.44,732.47q-1.37-3.22-2.6-6.56l14.79-24.77-2.47-25.26-8.53-87A170.8,170.8,0,0,1,720,570.38l16.76-10.76-4.72-7.38a183.28,183.28,0,0,1,71.16-57,177.92,177.92,0,0,1,26.42-9.56,183.88,183.88,0,0,1,54.75-6.45c2.51.1,5,.22,7.48.41Q899,480.18,906,481.3Z" transform="translate(-262.46 -254.02)"/><path class="cls-2" d="M679.73,436.94a185.33,185.33,0,0,1-1.84,26.11l-3.51,2.1L641.52,446l15.88-10.16-4-6.29-10.32-16.1-26.51,17-.82.53-.62-.38-60.22-35.17-46.75-27.3-29.92,3.22q28.79,32.09,57.62,64.16,5.82,6.53,11.7,13l55.16,61.44c-19.74,12.79-38.56,25.42-56.19,37.65-3.22,2.22-6.41,4.44-9.57,6.63-32.24,22.58-60,43.49-81.21,61A182.71,182.71,0,0,1,313.89,436.94c0-2,0-4,.13-5.94,3.09-98.27,83.76-177,182.79-177A182.88,182.88,0,0,1,679.67,432.38C679.7,433.88,679.73,435.41,679.73,436.94Z" transform="translate(-262.46 -254.02)"/><path class="cls-3" d="M602.69,509.92c-19.74,12.79-38.56,25.42-56.19,37.65-3.22,2.22-6.41,4.44-9.57,6.63-32.24,22.58-60,43.49-81.21,61q-7.55,6.24-13.91,11.85l-28.33-16.57c.69-3.19,1.5-6.35,2.35-9.47A233.57,233.57,0,0,1,530.11,457c5.66-3.06,11.48-5.9,17.42-8.47Z" transform="translate(-262.46 -254.02)"/><path class="cls-3" d="M616.54,430.38l-.82.53-.62-.38C615.57,430.47,616.07,430.41,616.54,430.38Z" transform="translate(-262.46 -254.02)"/><path class="cls-3" d="M715.22,441.35c-11.94,6.76-24.45,14-37.33,21.7l-3.51,2.1L641.52,446l15.88-10.16-4-6.29a228.75,228.75,0,0,1,61.85,11.85Z" transform="translate(-262.46 -254.02)"/><path class="cls-3" d="M864.62,597.83A323.26,323.26,0,0,1,585.93,756.9q-14.64,0-28.92-1.29a321.72,321.72,0,0,1-145.15-49.46,235,235,0,0,1-4.16-44.06,230,230,0,0,1,1.88-29.64q6.29,6.62,12.66,13.35c-8.6,9.29-12.41,15.88-10.44,19s9.56,2.34,21.6-1.6c8.73,21.7,16.89,42.53,25.83,64.54l5.75-9.6-6.38-64.88c19.36-8.57,43.75-21,71.51-36.4q9.81-5.43,20.17-11.38c1.38-.78,2.79-1.59,4.19-2.4.41-.22.85-.47,1.25-.72,1.6-.91,3.19-1.85,4.82-2.79.78-.47,1.56-.93,2.38-1.37,1.34-.82,2.68-1.6,4.06-2.38,20.7-12.16,42.62-25.51,65.23-39.83.4.9.78,1.81,1.18,2.72q25,57.82,50,115.63L706.19,727l.65-1.06,14.79-24.77-2.47-25.26-8.53-87-1.16-11.76L720,570.38l16.76-10.76-4.72-7.38-9.64-15L706.53,547.4l-3.72-37.87C725.6,493.93,746.59,479,765,465.1a233.55,233.55,0,0,1,98,127.45v0C863.59,594.33,864.12,596.08,864.62,597.83Z" transform="translate(-262.46 -254.02)"/><path class="cls-4" d="M602.69,509.92c-19.74,12.79-38.56,25.42-56.19,37.65-3.22,2.22-6.41,4.44-9.57,6.63a181.47,181.47,0,0,1-8.41-33.8A185.3,185.3,0,0,1,530.11,457a178.58,178.58,0,0,1,5.72-21.51q5.82,6.53,11.7,13Z" transform="translate(-262.46 -254.02)"/><path class="cls-4" d="M683.39,674.3a182.89,182.89,0,0,1-112-61v0c-1.94-2.25-3.85-4.54-5.69-6.88s-3.51-4.54-5.19-6.88c2.12-1.25,4.28-2.5,6.44-3.75,20.7-12.17,42.62-25.52,65.22-39.84.41.91.78,1.81,1.19,2.72Z" transform="translate(-262.46 -254.02)"/><path class="cls-4" d="M892.35,493.23a181.84,181.84,0,0,1-29.29,99.3v0a182.73,182.73,0,0,1-143.9,83.29l-8.54-87-1.15-11.76L720,570.37l16.76-10.76L732,552.23l-9.63-15-15.88,10.16-3.72-37.86c22.79-15.61,43.77-30.58,62.22-44.44,53.91-40.42,86.52-71.1,81.49-78.95-5.73-8.94-58.7,14.07-131.3,55.22-11.94,6.76-24.45,14-37.33,21.7l-3.51,2.1L641.52,446l15.88-10.16-4-6.29-10.32-16.1-26.51,17-.82.53-.62-.38-60.22-35.17a182.71,182.71,0,0,1,154.56-85.05c96.46,0,175.47,74.67,182.41,169.35C892.2,484.13,892.35,488.66,892.35,493.23Z" transform="translate(-262.46 -254.02)"/><path class="cls-5" d="M633.39,558.67a183.5,183.5,0,0,1-63.94,46.18c-1.22.57-2.47,1.07-3.72,1.57a179.44,179.44,0,0,1-35.62,10.41c9.73-5.41,19.92-11.16,30.43-17.29,2.12-1.25,4.28-2.5,6.44-3.75,20.7-12.17,42.62-25.52,65.22-39.84C632.61,556.86,633,557.76,633.39,558.67Z" transform="translate(-262.46 -254.02)"/><path class="cls-4" d="M313.89,318.14a73.53,73.53,0,0,1-48.3,69A319.76,319.76,0,0,1,302,278,73.26,73.26,0,0,1,313.89,318.14Z" transform="translate(-262.46 -254.02)"/><path class="cls-6" d="M576.55,662.09A231.83,231.83,0,0,1,557,755.61a321.32,321.32,0,0,1-174.92-71c-1.38-1.09-2.75-2.22-4.1-3.37A322.91,322.91,0,0,1,262.46,443.68,228,228,0,0,1,314,431a233.1,233.1,0,0,1,178.1,51.59,233.74,233.74,0,0,1,36.4,37.8,225.83,225.83,0,0,1,18,27.18l-9.57,6.62c-32.24,22.58-60,43.5-81.2,61-5,4.16-9.66,8.1-13.92,11.85L413.48,610.5l-28-16.32-11.13,1.21c11.94,12.73,23.51,24.8,35.18,37.06q6.29,6.62,12.66,13.35c-8.6,9.29-12.41,15.88-10.44,19s9.56,2.34,21.6-1.6c8.73,21.7,16.89,42.53,25.83,64.54l5.75-9.6-6.38-64.88c19.36-8.57,43.75-21,71.51-36.4q7.85-4.35,16-9c2.75-1.57,5.5-3.13,8.31-4.75s5.57-3.26,8.41-4.91l0,0c2.18.87,3.12,1.25,5.34,2.12.41,1.5.81,3,1.19,4.57.72,2.78,1.38,5.6,2,8.44v0A231.71,231.71,0,0,1,576.55,662.09Z" transform="translate(-262.46 -254.02)"/></g></g></svg>