<svg id="publicdomainvectors.org" xmlns="http://www.w3.org/2000/svg" viewBox="0 0 576.27 358.57"><defs><style>.cls-1{fill:#e6c8e6;}.cls-1,.cls-10,.cls-2,.cls-3,.cls-4,.cls-5,.cls-6,.cls-7,.cls-8,.cls-9{fill-rule:evenodd;}.cls-2{fill:#909;}.cls-3{fill:#590059;}.cls-4{fill:#606;}.cls-5{fill:#730073;}.cls-6{fill:#d6b2d6;}.cls-7{fill:#fff;}.cls-8{fill:#eb8723;}.cls-9{fill:#c30;}.cls-10{fill:#333;}</style></defs><path class="cls-1" d="M322.34,122.66c140.77,0,254.88,114.12,254.88,254.88a254.11,254.11,0,0,1-18,94.11H85.41a254.11,254.11,0,0,1-18-94.11C67.46,236.78,181.58,122.66,322.34,122.66Z" transform="translate(-34.2 -122.66)"/><path class="cls-2" d="M322.34,481.23c158.7,0,288.14-4.3,288.14-9.58S481,462.06,322.34,462.06,34.2,466.37,34.2,471.65,163.64,481.23,322.34,481.23Z" transform="translate(-34.2 -122.66)"/><polygon class="cls-3" points="506.72 348.98 272.23 348.98 362.5 80.45 412.4 68.76 459.77 77.18 506.72 348.98"/><path class="cls-2" d="M93,471.65l53.34-277.41,3.31-.92a182.63,182.63,0,0,1,49.93-7H447.1l-38.71,9.29-11.69,7.49L341.05,471.65H93Z" transform="translate(-34.2 -122.66)"/><polygon class="cls-4" points="218.62 318.92 260.08 103.32 319.14 103.32 274.46 318.92 218.62 318.92"/><path class="cls-5" d="M341.05,471.65l53.34-277.41,3.31-.92a182.63,182.63,0,0,1,49.93-7,172.49,172.49,0,0,1,47.93,7l3.25.95,53.34,277.36H540.92L489.26,203a160.27,160.27,0,0,0-41.63-5.65,170.36,170.36,0,0,0-43.7,5.69L352.28,471.65Z" transform="translate(-34.2 -122.66)"/><polygon class="cls-6" points="369.73 80.38 444.84 80.38 491.16 342.79 319.14 343.44 369.73 80.38"/><polygon class="cls-1" points="454.32 337.61 356.1 337.61 405.15 95.96 454.32 337.61"/><path class="cls-7" d="M439.31,235.08c-.76,82.78-6.94,145.84-49,225.2l-37,5.82L403.93,203c13,11.84,62.1,11.84,75.11,0L525.48,466.1l-37-5.82c-42.06-79.36-48.24-142.42-49-225.2Z" transform="translate(-34.2 -122.66)"/><path class="cls-6" d="M364.88,464.29l-11.54,1.81L403.93,203c2.7,2.46,6.18,3.89,10.06,5.23Z" transform="translate(-34.2 -122.66)"/><polygon class="cls-4" points="177.9 276.16 202.92 146.08 238.55 146.08 211.6 276.16 177.9 276.16"/><polygon class="cls-4" points="95.18 243.94 107.81 178.3 125.79 178.3 112.19 243.94 95.18 243.94"/><path class="cls-3" d="M450.44,382.51l-.92,15.37a245.55,245.55,0,0,0,0,29.47,343.81,343.81,0,0,1,.14,38.39l14.43,5.91,2.58-25.13c.87-8.49.08-9-2.34-17.19L466.67,404c5.88-3.62,9.85-11.27,10-20.63l-22.84-5.8Z" transform="translate(-34.2 -122.66)"/><path class="cls-8" d="M473.23,360.73l2.43,23.5,1.67,6.9,3.42-.43.54-8.62,2.88-7.8a23.52,23.52,0,0,0-.41-17.27Z" transform="translate(-34.2 -122.66)"/><path class="cls-8" d="M470.13,330.83l-2.57-5.49,2.1-16.19-15.31-.88-2.52,15A5,5,0,0,0,455.9,329a9.5,9.5,0,0,0,3,0l.38,2.23Z" transform="translate(-34.2 -122.66)"/><path class="cls-3" d="M459.51,382.51l3,15.37a268.85,268.85,0,0,0,7.45,29.47,380.24,380.24,0,0,1,9.85,38.39l15.92,5.91-3.77-25.13c-1.27-8.49-2.2-9-6.69-17.19L481.17,404c2.66-8.06-.78-15-4.08-21l-15.47-5.44Z" transform="translate(-34.2 -122.66)"/><path class="cls-9" d="M470.34,329.36l3,4,4.28,1.21a15.64,15.64,0,0,1,7,9.59c3.05,12.38-1.21,21.95-8,32.74l.46,6.08-3.27,2.57a9.39,9.39,0,0,1-12.63-.93,9.41,9.41,0,0,0-10.75-2.11v-8.82c-2-4.21-6.16-31.31-.92-35.61l8-6.54Z" transform="translate(-34.2 -122.66)"/><path class="cls-9" d="M455.9,338.44l-2.69-.52a9.67,9.67,0,0,0-9,3.13,12.12,12.12,0,0,0-2.87,9.92l-2.63,14,1.46,1.42a10,10,0,0,0,12.39,1.48Z" transform="translate(-34.2 -122.66)"/><path class="cls-8" d="M440.7,364.76l-5.26,22.93-.64,7.1,6-.64,1.53-2.17-.94-4.1,5.19-6.17a22.88,22.88,0,0,0,5.15-16.3C448.57,363.6,444.77,363.76,440.7,364.76Z" transform="translate(-34.2 -122.66)"/><path class="cls-8" d="M435,393.4l-.19,2.46a2.29,2.29,0,0,0,1.5,2.32l4,0a3,3,0,0,0,2.17-.95,6.8,6.8,0,0,0,1.76-3.5,2,2,0,0,0-.6-1.79,2,2,0,0,0-1.83-.49Z" transform="translate(-34.2 -122.66)"/><path class="cls-10" d="M453.69,312.2l-1.93-3.93a3.8,3.8,0,0,1,5.22-5l12.56,1.64a2,2,0,0,1,1.46.72,2,2,0,0,1,.47,1.56l.71.52a3.35,3.35,0,0,1,1.22,3.57l-5,15.79h-3.68a3.93,3.93,0,0,1-3.74-2.75l-1.36-6.27-2.59-.69,1.23-3.36a1.56,1.56,0,0,0-1.6-2.08Z" transform="translate(-34.2 -122.66)"/><path class="cls-8" d="M460.93,314.94c1.09,0,1.8,1.55,1.58,3.46s-1.29,3.46-2.38,3.46-1.8-1.55-1.58-3.46S459.84,314.94,460.93,314.94Z" transform="translate(-34.2 -122.66)"/></svg>