<svg id="publicdomainvectors.org" xmlns="http://www.w3.org/2000/svg" viewBox="0 0 440.54 515.15"><defs><style>.cls-1,.cls-6{fill:#f7bc81;}.cls-1,.cls-10,.cls-2,.cls-3,.cls-4,.cls-5,.cls-7,.cls-8,.cls-9{fill-rule:evenodd;}.cls-2{fill:#f55723;}.cls-3{fill:#333;}.cls-4{fill:#fa6837;}.cls-5{fill:#f2a150;}.cls-7{fill:#fff;}.cls-8{fill:#f5b26e;}.cls-9{fill:none;stroke:#000;stroke-miterlimit:10;stroke-width:2px;}</style></defs><path class="cls-1" d="M438.54,559.47l14-97.59a65.44,65.44,0,0,1,18.14-37.32c59.45-62.29,130.33,14,84.66,83.79-11.25,17.19-22.71,33.61-36.77,51.12Z" transform="translate(-157.17 -44.32)"/><path class="cls-2" d="M445.75,270.22h0a71.35,71.35,0,0,0-45,90.77l28.67,83.7c12.83,37.47,54.1,57.94,91.69,45.48h0a71.36,71.36,0,0,0,45-90.78L537.44,315.7C524.61,278.23,483.35,257.76,445.75,270.22Z" transform="translate(-157.17 -44.32)"/><path class="cls-3" d="M420.25,129.33l10-37.63a25.88,25.88,0,0,0-26.15-32.54l-1.92-2.55a30.72,30.72,0,0,0-36.87-9.72l-54.5,12.59a29.51,29.51,0,0,0-3,56.62Z" transform="translate(-157.17 -44.32)"/><path class="cls-2" d="M225.49,349.63c3.3,49.67-16.32,86.23,30.23,123.38v86.46h213V473c46.55-37.15,26.92-73.71,30.23-123.38Z" transform="translate(-157.17 -44.32)"/><path class="cls-2" d="M281.38,258.42h0a71.35,71.35,0,0,1,45,90.78l-28.67,83.69c-12.83,37.47-54.1,57.94-91.69,45.48h0a71.35,71.35,0,0,1-45-90.77l28.67-83.7C202.52,266.43,243.79,246,281.38,258.42Z" transform="translate(-157.17 -44.32)"/><path class="cls-4" d="M294.79,232.56l-75.33,26a51,51,0,0,0-34.19,53,119.31,119.31,0,0,0,177,93.16,119.31,119.31,0,0,0,176.95-93.16,51,51,0,0,0-34.19-53l-75.33-26-67.43,34Z" transform="translate(-157.17 -44.32)"/><polygon class="cls-5" points="137.63 188.24 170.2 175.33 170.2 119.7 205.05 119.7 239.91 119.7 239.91 175.33 272.48 188.24 205.05 222.25 137.63 188.24"/><path class="cls-3" d="M301.56,77.89H422.48V180.46A60.64,60.64,0,0,1,362,240.92h0a60.63,60.63,0,0,1-60.46-60.46Z" transform="translate(-157.17 -44.32)"/><rect class="cls-6" x="152.77" y="45.47" width="104.56" height="70.79" rx="27.82"/><path class="cls-1" d="M302.44,108.39c7.59,0,15.16,9.37,16.9,20.94s-3,20.95-10.57,20.95-15.16-9.38-16.91-20.95,3-20.94,10.58-20.94Zm119.16,0c-7.59,0-15.16,9.37-16.91,20.94s3,20.95,10.57,20.95,15.16-9.38,16.91-20.95S429.18,108.39,421.6,108.39Z" transform="translate(-157.17 -44.32)"/><path class="cls-7" d="M362,199.71c5.9,0,10.72-6.44,10.72-14.33s-4.82-14.32-10.72-14.32-10.73,6.43-10.73,14.32S356.11,199.71,362,199.71Z" transform="translate(-157.17 -44.32)"/><path class="cls-1" d="M328.19,288.38l-1.41-38a90.92,90.92,0,0,1,2.06-22.85L341,180.47A12.53,12.53,0,0,1,365.39,186l-6.62,28.33,31.52,13a30.6,30.6,0,0,1,18.51,25.13l-.91,22.39A15.51,15.51,0,0,1,387.78,289l-2.28,6.85a26,26,0,0,1-37,14.62l-9.89-5.34A19.4,19.4,0,0,1,328.19,288.38Z" transform="translate(-157.17 -44.32)"/><path class="cls-8" d="M358.77,214.28l31.52,13a30.6,30.6,0,0,1,18.51,25.13v.39h0a35.06,35.06,0,0,1-26.26-1.07l-20.79-9.42a11.48,11.48,0,0,1-6.86-13.66Z" transform="translate(-157.17 -44.32)"/><path class="cls-1" d="M334.29,280.31,220.42,346.69a65.33,65.33,0,0,0-27.77,30.82c-35.41,78.49,61.88,115.55,109.44,47,23.71-34.19,44.13-68,68.33-125.53Z" transform="translate(-157.17 -44.32)"/><path class="cls-3" d="M377,111.24l18.44.84a5,5,0,1,1-3.36,8.8L377,120.12a4.45,4.45,0,0,1-4.22-4.44A4.3,4.3,0,0,1,377,111.24Z" transform="translate(-157.17 -44.32)"/><path class="cls-3" d="M384.8,124.43h0a6.88,6.88,0,0,1,6.87,6.86v4.34a6.89,6.89,0,0,1-6.87,6.86h0a6.88,6.88,0,0,1-6.86-6.86v-4.34A6.88,6.88,0,0,1,384.8,124.43Z" transform="translate(-157.17 -44.32)"/><path class="cls-3" d="M347,111.24l-18.43.84a5,5,0,1,0,3.35,8.8l15.08-.76a4.45,4.45,0,0,0,4.22-4.44A4.3,4.3,0,0,0,347,111.24Z" transform="translate(-157.17 -44.32)"/><path class="cls-3" d="M339.23,124.43h0a6.87,6.87,0,0,0-6.86,6.86v4.34a6.88,6.88,0,0,0,6.86,6.86h0a6.88,6.88,0,0,0,6.86-6.86v-4.34A6.88,6.88,0,0,0,339.23,124.43Z" transform="translate(-157.17 -44.32)"/><path class="cls-1" d="M362,165.4a8.63,8.63,0,1,0-8.63-8.63A8.64,8.64,0,0,0,362,165.4Z" transform="translate(-157.17 -44.32)"/><path class="cls-9" d="M453.17,168.47c-.1,3.55-6.27,3.55-6.37,0C446.9,164.92,453.07,164.92,453.17,168.47Z" transform="translate(-157.17 -44.32)"/><path class="cls-9" d="M467.38,161.45c-.19,5.72-10,5.71-10.2,0C457.37,155.73,467.19,155.74,467.38,161.45Z" transform="translate(-157.17 -44.32)"/><path class="cls-9" d="M489.67,150.4c.31,4.32-3.41,8.1-8.31,8.45-11.79.43-12.84-14.42-1.11-15.64C485.15,142.86,489.37,146.08,489.67,150.4Z" transform="translate(-157.17 -44.32)"/><path class="cls-10" d="M596.15,103.84c-2-7.18-9.38-7.11-6.88-13.78a5.45,5.45,0,0,0,.3-1c2-11.19-9.05-22.63-19.61-20.52a5.39,5.39,0,0,1-6.26-3.66c-3.91-12.33-20.85-19.09-31.53-11.22a5.26,5.26,0,0,1-6,.33c-6.22-4.1-15.45-2.24-19.11,4.26a5.18,5.18,0,0,1-5.2,2.59c-13.7-1.88-26.31,8.61-27.25,22.39A5.2,5.2,0,0,1,471,88c-32.52,10.1-20.86,54.36,14.38,49.44.95,0,1.5-.19,2,.68,3.63,6.83,11.61,7.71,18.56,8.37,7.3,1.05,12.73-1.74,18.14-5.63a5.32,5.32,0,0,1,6.69.46c12.84,11.6,32.45,9.25,44.16-3.15a5.23,5.23,0,0,1,3-1.55C592.22,134.32,601.56,117.33,596.15,103.84Zm-3,16.3c-2.44,6.45-7.75,11.82-14.64,13.15a5.29,5.29,0,0,1-.8.09c-7.27.38-6.34,7.24-14.8,9.67-12.27,5.54-24.43,3.23-33.73-7.8a1.67,1.67,0,0,0-2.35-.29c-10.72,10.51-27.72,12-37.89,1.37a5.34,5.34,0,0,0-4-1.7c-20.18.68-35.16-10.2-28.07-32.07a5.08,5.08,0,0,1,.39-.93C463.73,89.5,479.65,91.19,478,87.76a5.68,5.68,0,0,1-.46-2.24c-.31-10.07,7.51-20.69,17.85-21.62,4.67-.57,14.09,2.91,13.61-.39a5.57,5.57,0,0,1,.26-3.11c3.13-6.95,14.32-7.65,18.14-.63,1.51,2.94,8.38-6.51,12.7-6.46,10.87-1.51,23.31,7.93,21.24,19.58a1.5,1.5,0,0,0,1.44,1.89c2.32-.11,3.59-1.94,5.54-2.76a4.31,4.31,0,0,1,1.07-.27c4.74-.64,11,.21,13.54,4.68,4.1,5,3.92,10,3,15.64a5.32,5.32,0,0,0,1.08,4.13C593.18,103.85,597.31,108.71,593.12,120.14Z" transform="translate(-157.17 -44.32)"/><path class="cls-10" d="M521.31,102.36c-.79-4.45-6-5.36-8.82-2.25l0-7.31c-5.69-8.9-2.88,17.48-3.45,20,5.2,7.43,2.9-10,6.83-10.83,3.4-.92,2.89,7.66,3.37,9.91.1,2.25,3.6,2.26,3.5,0A44,44,0,0,0,521.31,102.36Z" transform="translate(-157.17 -44.32)"/><path class="cls-10" d="M538.41,102.14c-.66-4.21-6.08-4.79-8.54-1.76-.21-2.09-1.06-4.37-.25-6.42a1.82,1.82,0,0,0-.51-2.32c-6.41-2.08-.79,16.07-2.8,19.89,2.56,5.31,5-2.23,4.12-5,.16-2.48,4.67-7.36,4.75-2.35,1,2.59-.51,7.75,2.67,8.67C541.62,111.82,538.15,105.06,538.41,102.14Z" transform="translate(-157.17 -44.32)"/><path class="cls-10" d="M557.77,111.61c-1.86-7.12.39-17.74-10.82-11.06l.06-7.4c0-2.26-3.48-2.26-3.5,0,.47,2.35-2.24,27.37,3.35,18.66-.17-3.77,1-10.49,6.09-9.58a48.62,48.62,0,0,0,1.45,10.31C555,114.72,558.32,113.8,557.77,111.61Z" transform="translate(-157.17 -44.32)"/><path class="cls-10" d="M563.23,110.43a1.75,1.75,0,0,0,0,3.5A1.75,1.75,0,0,0,563.23,110.43Z" transform="translate(-157.17 -44.32)"/><path class="cls-10" d="M572.69,111.85c-.54-2-4-1.64-3.87.55C568.84,115.1,573.39,114.41,572.69,111.85Z" transform="translate(-157.17 -44.32)"/><path class="cls-10" d="M579.59,112.17c-.59-2.2-4.24-1.34-3.6.93S580.23,114.44,579.59,112.17Z" transform="translate(-157.17 -44.32)"/><path class="cls-10" d="M505,102.27c-1.9-4-7.24-2.58-10.76-4-4.78-1.62-.63-4.93,2.41-5.17,1.79-.46,3.94-.78,5.34.71,1.76,1.88,4.59-1,2.82-2.83-12.52-8.9-27.15,11-6,12.14,1.47.08,3.13.16,2.62,2-.58,5.13-8.61,5.81-11.48,2.46-1.3-2.22-4.76-.21-3.45,2C491.8,117.63,508.48,112.71,505,102.27Z" transform="translate(-157.17 -44.32)"/></svg>